<svg xmlns="http://www.w3.org/2000/svg" viewBox="0 0 100 100" width="100" height="100" aria-hidden="true" role="img" style="background-color: white;">
  
  <!-- Circular clipping mask -->
  <clipPath id="circular-mask">
    <circle cx="50" cy="50" r="48"/>
  </clipPath>
  
  <!-- Apply the circular mask to all content -->
  <g clip-path="url(#circular-mask)">
    <rect x="0" y="0" width="100" height="100" fill="white"/>
    <use href="#content"/>
  </g>
  
  <!-- Group all existing content -->
  <g id="content">
    <use href="#letter-m"/>
    <use href="#laurel-wreath"/>
  </g>
  
  <!-- Redefine letter M -->
  <g id="letter-m">
    <path d="M35 70V30h10L50 60 55 30h10v40H60V45L55 65h-10L40 45v25z" fill="#000000"/>
  </g>
  
  <!-- Redefine laurel wreath -->
  <g id="laurel-wreath" fill="#000000">
    <!-- Left side of wreath -->
    <path d="M30 85c-10-10-15-25-15-35 0-5 5-5 5 0 0 8 3 20 10 30 2 3-2 3 0 5z"/>
    <path d="M25 75c-8-12-10-25-8-35 1-5 6-3 5 2-1 8 0 18 5 28 1 3-3 2-2 5z"/>
    <path d="M22 65c-5-13-5-25-1-35 2-4 7-1 5 3-3 8-3 18 0 28 1 3-4 1-4 4z"/>
    
    <!-- Right side of wreath -->
    <path d="M70 85c10-10 15-25 15-35 0-5-5-5-5 0 0 8-3 20-10 30-2 3 2 3 0 5z"/>
    <path d="M75 75c8-12 10-25 8-35-1-5-6-3-5 2 1 8 0 18-5 28-1 3 3 2 2 5z"/>
    <path d="M78 65c5-13 5-25 1-35-2-4-7-1-5 3 3 8 3 18 0 28-1 3 4 1 4 4z"/>
  </g>
</svg>
