<svg width="34" height="26" viewBox="0 0 34 26" fill="none" xmlns="http://www.w3.org/2000/svg">
    <path
        d="M1.2999 7.3C1.11568 7.47165 0.967923 7.67866 0.865443 7.90866C0.762963 8.13865 0.707859 8.38694 0.703417 8.63869C0.698975 8.89045 0.745286 9.14052 0.839589 9.37399C0.933892 9.60746 1.07425 9.81955 1.2523 9.99759C1.43035 10.1756 1.64243 10.316 1.8759 10.4103C2.10937 10.5046 2.35944 10.5509 2.6112 10.5465C2.86296 10.542 3.11124 10.4869 3.34124 10.3845C3.57124 10.282 3.77824 10.1342 3.9499 9.95L6.9999 6.9L6.9999 23.625C6.9999 24.1223 7.19744 24.5992 7.54907 24.9508C7.9007 25.3025 8.37761 25.5 8.8749 25.5C9.37218 25.5 9.84909 25.3025 10.2007 24.9508C10.5524 24.5992 10.7499 24.1223 10.7499 23.625L10.7499 6.9L13.7999 9.95C14.1553 10.2812 14.6254 10.4615 15.1112 10.4529C15.597 10.4444 16.0604 10.2476 16.404 9.90405C16.7475 9.56052 16.9443 9.09706 16.9528 8.61131C16.9614 8.12555 16.7811 7.65544 16.4499 7.3L10.1999 1.05C9.84833 0.698875 9.37177 0.50165 8.8749 0.50165C8.37802 0.50165 7.90146 0.698875 7.5499 1.05L1.2999 7.3ZM20.1999 16.05C19.8445 15.7188 19.3743 15.5385 18.8886 15.5471C18.4028 15.5556 17.9394 15.7524 17.5958 16.0959C17.2523 16.4395 17.0555 16.9029 17.047 17.3887C17.0384 17.8744 17.2187 18.3446 17.5499 18.7L23.7999 24.95C24.1515 25.3011 24.628 25.4984 25.1249 25.4984C25.6218 25.4984 26.0983 25.3011 26.4499 24.95L32.6999 18.7C33.0311 18.3446 33.2114 17.8744 33.2028 17.3887C33.1943 16.9029 32.9975 16.4395 32.6539 16.0959C32.3104 15.7524 31.847 15.5556 31.3612 15.5471C30.8754 15.5385 30.4053 15.7188 30.0499 16.05L26.9999 19.1V2.375C26.9999 1.87772 26.8024 1.40081 26.4507 1.04918C26.0991 0.697544 25.6222 0.5 25.1249 0.5C24.6276 0.5 24.1507 0.697544 23.7991 1.04918C23.4474 1.40081 23.2499 1.87772 23.2499 2.375V19.1L20.1999 16.05Z"
        fill="#17A6FF" />
</svg>