<svg width="26" height="34" viewBox="0 0 26 34" fill="none" xmlns="http://www.w3.org/2000/svg">
    <path
        d="M18.7 1.30002C18.5283 1.1158 18.3213 0.968045 18.0913 0.865565C17.8613 0.763085 17.6131 0.707981 17.3613 0.703539C17.1095 0.699097 16.8595 0.745409 16.626 0.839711C16.3925 0.934014 16.1805 1.07437 16.0024 1.25242C15.8244 1.43047 15.684 1.64255 15.5897 1.87602C15.4954 2.10949 15.4491 2.35957 15.4535 2.61132C15.458 2.86308 15.5131 3.11136 15.6155 3.34136C15.718 3.57136 15.8658 3.77836 16.05 3.95002L19.1 7.00002H2.375C1.87772 7.00002 1.40081 7.19756 1.04917 7.54919C0.697544 7.90082 0.5 8.37774 0.5 8.87502C0.5 9.3723 0.697544 9.84921 1.04917 10.2008C1.40081 10.5525 1.87772 10.75 2.375 10.75H19.1L16.05 13.8C15.7188 14.1555 15.5385 14.6256 15.5471 15.1113C15.5556 15.5971 15.7524 16.0605 16.0959 16.4041C16.4395 16.7476 16.9029 16.9444 17.3887 16.953C17.8744 16.9615 18.3446 16.7812 18.7 16.45L24.95 10.2C25.3011 9.84845 25.4984 9.37189 25.4984 8.87502C25.4984 8.37814 25.3011 7.90158 24.95 7.55002L18.7 1.30002ZM9.95 20.2C10.2812 19.8446 10.4615 19.3745 10.4529 18.8887C10.4444 18.403 10.2476 17.9395 9.90405 17.596C9.56052 17.2524 9.09706 17.0556 8.61131 17.0471C8.12555 17.0385 7.65544 17.2188 7.3 17.55L1.05 23.8C0.698874 24.1516 0.50165 24.6281 0.50165 25.125C0.50165 25.6219 0.698874 26.0985 1.05 26.45L7.3 32.7C7.65544 33.0312 8.12555 33.2115 8.61131 33.203C9.09706 33.1944 9.56052 32.9976 9.90405 32.6541C10.2476 32.3105 10.4444 31.8471 10.4529 31.3613C10.4615 30.8756 10.2812 30.4055 9.95 30.05L6.9 27H23.625C24.1223 27 24.5992 26.8025 24.9508 26.4508C25.3025 26.0992 25.5 25.6223 25.5 25.125C25.5 24.6277 25.3025 24.1508 24.9508 23.7992C24.5992 23.4476 24.1223 23.25 23.625 23.25H6.9L9.95 20.2Z"
        fill="#17A6FF" />
</svg>