<svg width="17" height="23" viewBox="0 0 17 23" fill="none" xmlns="http://www.w3.org/2000/svg">
    <path
        d="M11.632 11.512C12.4427 11.64 13.1787 11.9707 13.84 12.504C14.5227 13.0373 15.056 13.6987 15.44 14.488C15.8453 15.2773 16.048 16.12 16.048 17.016C16.048 18.1467 15.76 19.1707 15.184 20.088C14.608 20.984 13.7653 21.6987 12.656 22.232C11.568 22.744 10.2773 23 8.784 23H0.464V0.695999H8.464C9.97867 0.695999 11.2693 0.951999 12.336 1.464C13.4027 1.95467 14.2027 2.62667 14.736 3.48C15.2693 4.33333 15.536 5.29333 15.536 6.36C15.536 7.68267 15.1733 8.78133 14.448 9.656C13.744 10.5093 12.8053 11.128 11.632 11.512ZM3.376 10.328H8.272C9.63733 10.328 10.6933 10.008 11.44 9.368C12.1867 8.728 12.56 7.84267 12.56 6.712C12.56 5.58133 12.1867 4.696 11.44 4.056C10.6933 3.416 9.616 3.096 8.208 3.096H3.376V10.328ZM8.528 20.6C9.97867 20.6 11.1093 20.2587 11.92 19.576C12.7307 18.8933 13.136 17.944 13.136 16.728C13.136 15.4907 12.7093 14.52 11.856 13.816C11.0027 13.0907 9.86133 12.728 8.432 12.728H3.376V20.6H8.528Z"
        fill="#17A6FF" />
</svg>