<svg width="39" height="33" viewBox="0 0 39 33" fill="none" xmlns="http://www.w3.org/2000/svg">
<path d="M13.4062 19.5938V21.6562H6.09375V19.5938H8.53125V14.4375H6.09375V12.375H8.53125V11.3438H10.9688V19.5938H13.4062ZM23.1562 19.5938H18.2812V17.5312H20.7188C22.063 17.5312 23.1562 16.6062 23.1562 15.4688V13.4062C23.1562 12.2688 22.063 11.3438 20.7188 11.3438H15.8438V13.4062H20.7188V15.4688H18.2812C16.937 15.4688 15.8438 16.3938 15.8438 17.5312V21.6562H23.1562V19.5938ZM30.4688 11.3438H25.5938V13.4062H30.4688V15.4688H26.8125V17.5312H30.4688V19.5938H25.5938V21.6562H30.4688C31.813 21.6562 32.9062 20.7312 32.9062 19.5938V13.4062C32.9062 12.2688 31.813 11.3438 30.4688 11.3438ZM2.4375 4.125V8.25H4.875V4.125H9.75V2.0625H4.875C4.22853 2.0625 3.60855 2.2798 3.15143 2.66659C2.69431 3.05339 2.4375 3.57799 2.4375 4.125ZM34.125 2.0625H29.25V4.125H34.125V8.25H36.5625V4.125C36.5625 3.57799 36.3057 3.05339 35.8486 2.66659C35.3915 2.2798 34.7715 2.0625 34.125 2.0625ZM4.875 28.875V24.75H2.4375V28.875C2.4375 29.422 2.69431 29.9466 3.15143 30.3334C3.60855 30.7202 4.22853 30.9375 4.875 30.9375H9.75V28.875H4.875ZM34.125 24.75V28.875H29.25V30.9375H34.125C34.7715 30.9375 35.3915 30.7202 35.8486 30.3334C36.3057 29.9466 36.5625 29.422 36.5625 28.875V24.75H34.125Z" fill="#FFC300"/>
</svg>
