<svg width="39" height="38" viewBox="0 0 39 38" fill="none" xmlns="http://www.w3.org/2000/svg">
<path d="M13.7089 6.02001C14.1996 6.21126 14.5225 6.67501 14.5225 7.19126V16.57C14.5225 16.9048 14.3861 17.226 14.1434 17.4627C13.9007 17.6995 13.5716 17.8325 13.2284 17.8325C12.8852 17.8325 12.556 17.6995 12.3134 17.4627C12.0707 17.226 11.9343 16.9048 11.9343 16.57V10.5125C11.9341 10.4996 11.93 10.487 11.9225 10.4763C11.915 10.4656 11.9045 10.4573 11.8923 10.4524C11.88 10.4475 11.8665 10.4462 11.8535 10.4486C11.8405 10.4511 11.8285 10.4572 11.819 10.4663C11.7031 10.591 11.5628 10.6918 11.4064 10.7629C11.2499 10.8339 11.0805 10.8737 10.908 10.8799C10.7356 10.8861 10.5636 10.8586 10.4022 10.799C10.2409 10.7395 10.0933 10.649 9.96829 10.5329C9.84328 10.4169 9.74331 10.2776 9.67428 10.1233C9.60526 9.96902 9.56856 9.80281 9.56634 9.63447C9.56413 9.46613 9.59645 9.29906 9.6614 9.14309C9.72635 8.98712 9.82262 8.84539 9.94455 8.72626L12.2918 6.32126C12.4701 6.13871 12.7004 6.01245 12.953 5.95876C13.2056 5.90506 13.4688 5.9264 13.7089 6.02001ZM25.6885 8.45501C25.4592 8.46626 25.0979 8.57625 24.6905 9.04875C24.5816 9.17722 24.4477 9.28338 24.2966 9.36111C24.1455 9.43885 23.9801 9.48662 23.8099 9.50166C23.6398 9.51671 23.4682 9.49874 23.3053 9.44878C23.1423 9.39882 22.991 9.31787 22.8603 9.2106C22.7295 9.10333 22.6218 8.97185 22.5434 8.82377C22.465 8.67568 22.4174 8.51391 22.4034 8.34779C22.3894 8.18167 22.4092 8.01449 22.4618 7.8559C22.5144 7.6973 22.5986 7.55043 22.7096 7.42376C23.5066 6.49876 24.506 5.98501 25.5591 5.93376C26.0498 5.91185 26.5398 5.99065 26.9973 6.16506C27.4548 6.33946 27.8697 6.6056 28.2152 6.94626C29.6245 8.31751 29.7988 10.6575 27.9922 12.55C27.4669 13.1 26.8301 13.75 26.1857 14.4063V14.4075L25.5617 15.0425C25.5398 15.0646 25.525 15.0924 25.5193 15.1226C25.5135 15.1528 25.517 15.184 25.5293 15.2123C25.5416 15.2406 25.5622 15.2647 25.5884 15.2816C25.6147 15.2986 25.6455 15.3076 25.677 15.3075H28.3356C28.6788 15.3075 29.008 15.4405 29.2507 15.6773C29.4933 15.914 29.6297 16.2352 29.6297 16.57C29.6297 16.9048 29.4933 17.226 29.2507 17.4627C29.008 17.6995 28.6788 17.8325 28.3356 17.8325H23.1466C21.7551 17.8325 20.9223 16.2125 21.9178 15.1425C22.5482 14.465 23.4822 13.5113 24.374 12.6013C25.0146 11.9475 25.6322 11.3175 26.0985 10.8288C26.5918 10.3125 26.72 9.86001 26.7212 9.54251C26.7236 9.39286 26.6954 9.24425 26.6382 9.10538C26.581 8.96651 26.496 8.84017 26.3881 8.73376C26.2983 8.64175 26.1895 8.56934 26.0689 8.52129C25.9484 8.47325 25.8187 8.45066 25.6885 8.45501ZM11.837 23.35C11.9169 23.1872 12.0358 23.0456 12.1838 22.9372C12.3318 22.8288 12.5043 22.7568 12.6869 22.7273C12.8694 22.6978 13.0566 22.7117 13.2324 22.7679C13.4083 22.824 13.5677 22.9207 13.6971 23.0497C13.8265 23.1787 13.9221 23.3363 13.9758 23.5091C14.0295 23.6818 14.0396 23.8647 14.0055 24.0421C13.9713 24.2195 13.8938 24.3863 13.7795 24.5282C13.6651 24.6702 13.5174 24.7831 13.3488 24.8575C13.334 24.8646 13.3179 24.8689 13.3014 24.87C12.9918 24.9018 12.7043 25.0413 12.4917 25.2631C12.279 25.4849 12.1554 25.7741 12.1436 26.0776C12.1318 26.3811 12.2325 26.6786 12.4273 26.9155C12.622 27.1524 12.8978 27.3129 13.2041 27.3675C13.3944 27.4227 13.5669 27.5251 13.7048 27.6645C13.8427 27.804 13.9413 27.9759 13.991 28.1635C14.0407 28.3511 14.0398 28.5481 13.9884 28.7353C13.937 28.9225 13.8369 29.0935 13.6978 29.2318C13.5587 29.3701 13.3853 29.4709 13.1944 29.5245C13.0035 29.5781 12.8017 29.5827 12.6085 29.5377C12.4153 29.4928 12.2373 29.3998 12.0918 29.2679C11.9463 29.136 11.8382 28.9697 11.778 28.785C11.7275 28.6259 11.6452 28.4781 11.5359 28.3501C11.4265 28.2221 11.2923 28.1165 11.141 28.0394C10.9896 27.9623 10.8241 27.9151 10.654 27.9007C10.4839 27.8863 10.3125 27.9048 10.1498 27.9553C9.98706 28.0058 9.83618 28.0872 9.70584 28.1948C9.5755 28.3024 9.46828 28.4341 9.39037 28.5824C9.31245 28.7306 9.26538 28.8924 9.25186 29.0585C9.23835 29.2246 9.25865 29.3916 9.31161 29.55C9.47681 30.0564 9.75341 30.5214 10.1221 30.9125C10.4907 31.3037 10.9425 31.6116 11.4459 31.8146C11.9492 32.0176 12.492 32.1108 13.0361 32.0878C13.5803 32.0648 14.1127 31.9261 14.5962 31.6813C15.0796 31.4366 15.5024 31.0917 15.835 30.6709C16.1676 30.2501 16.4019 29.7634 16.5216 29.245C16.6412 28.7266 16.6433 28.189 16.5277 27.6697C16.4121 27.1504 16.1817 26.662 15.8524 26.2388C15.8295 26.2102 15.8171 26.175 15.8171 26.1388C15.8171 26.1025 15.8295 26.0673 15.8524 26.0388C16.1692 25.6328 16.3952 25.1664 16.5157 24.6699C16.6362 24.1734 16.6486 23.6577 16.5521 23.1562C16.4556 22.6547 16.2523 22.1785 15.9553 21.7585C15.6584 21.3384 15.2744 20.9838 14.8282 20.7176C14.382 20.4514 13.8835 20.2795 13.3649 20.213C12.8464 20.1465 12.3193 20.1868 11.8177 20.3315C11.3162 20.4762 10.8513 20.7219 10.4532 21.0528C10.055 21.3837 9.73247 21.7924 9.50636 22.2525C9.43258 22.4019 9.38968 22.564 9.38011 22.7295C9.37054 22.8951 9.39449 23.0609 9.45058 23.2174C9.56388 23.5335 9.80125 23.7928 10.1105 23.9381C10.4197 24.0835 10.7755 24.1031 11.0995 23.9925C11.2599 23.9378 11.4077 23.8528 11.5345 23.7423C11.6612 23.6319 11.7645 23.4981 11.8382 23.3488M25.2516 21.8238C25.3349 21.4989 25.2825 21.155 25.1058 20.8679C24.9292 20.5807 24.6429 20.3737 24.3099 20.2925C23.9769 20.2113 23.6245 20.2625 23.3301 20.4347C23.0358 20.607 22.8236 20.8864 22.7404 21.2113L21.3835 26.5175C21.3358 26.7037 21.3323 26.898 21.3731 27.0857C21.4139 27.2734 21.498 27.4495 21.619 27.6008C21.7401 27.752 21.8949 27.8743 22.0716 27.9585C22.2484 28.0426 22.4425 28.0863 22.6392 28.0863H25.5399C25.6283 28.0863 25.7001 28.1563 25.7001 28.2425V30.8088C25.7001 31.1436 25.8364 31.4647 26.0791 31.7015C26.3218 31.9382 26.6509 32.0713 26.9941 32.0713C27.3374 32.0713 27.6665 31.9382 27.9092 31.7015C28.1519 31.4647 28.2882 31.1436 28.2882 30.8088V28.1875C28.2882 28.1125 28.342 28.05 28.4151 28.0288C28.6782 27.9485 28.9083 27.7883 29.0716 27.5715C29.2349 27.3548 29.323 27.0928 29.323 26.8238C29.323 26.5547 29.2349 26.2927 29.0716 26.076C28.9083 25.8592 28.6782 25.699 28.4151 25.6188C28.3793 25.6084 28.3477 25.5874 28.3248 25.5587C28.3018 25.5301 28.2886 25.4951 28.2869 25.4588V24.7638C28.2763 24.436 28.1354 24.125 27.894 23.8968C27.6526 23.6686 27.3297 23.541 26.9935 23.541C26.6573 23.541 26.3344 23.6686 26.093 23.8968C25.8516 24.125 25.7107 24.436 25.7001 24.7638V25.405C25.7001 25.4464 25.6832 25.4862 25.6532 25.5155C25.6231 25.5448 25.5824 25.5613 25.5399 25.5613H24.5008C24.4766 25.5612 24.4526 25.5557 24.4308 25.5453C24.409 25.5349 24.39 25.5198 24.375 25.5012C24.3601 25.4825 24.3497 25.4608 24.3446 25.4376C24.3396 25.4145 24.34 25.3905 24.3458 25.3675L25.2516 21.8238Z" fill="#FF1093"/>
<path d="M6.6875 0.25C5.84622 0.25 5.01318 0.411661 4.23593 0.725753C3.45869 1.03984 2.75247 1.50022 2.1576 2.08058C0.956192 3.25269 0.28125 4.8424 0.28125 6.5V31.5C0.28125 33.1576 0.956192 34.7473 2.1576 35.9194C2.75247 36.4998 3.45869 36.9602 4.23593 37.2742C5.01318 37.5883 5.84622 37.75 6.6875 37.75H32.3125C34.0115 37.75 35.641 37.0915 36.8424 35.9194C38.0438 34.7473 38.7188 33.1576 38.7188 31.5V6.5C38.7188 5.67924 38.553 4.86651 38.2311 4.10823C37.9092 3.34994 37.4373 2.66095 36.8424 2.08058C36.2475 1.50022 35.5413 1.03984 34.7641 0.725753C33.9868 0.411661 33.1538 0.25 32.3125 0.25H6.6875ZM2.84375 6.5C2.84375 5.50544 3.24872 4.55161 3.96956 3.84835C4.6904 3.14509 5.66807 2.75 6.6875 2.75H32.3125C33.3319 2.75 34.3096 3.14509 35.0304 3.84835C35.7513 4.55161 36.1562 5.50544 36.1562 6.5V31.5C36.1562 32.4946 35.7513 33.4484 35.0304 34.1516C34.3096 34.8549 33.3319 35.25 32.3125 35.25H6.6875C5.66807 35.25 4.6904 34.8549 3.96956 34.1516C3.24872 33.4484 2.84375 32.4946 2.84375 31.5V6.5Z" fill="#FF1093"/>
</svg>
