<svg width="24" height="24" viewBox="0 0 24 24" fill="none" xmlns="http://www.w3.org/2000/svg">
<path d="M12 2C17.523 2 22 6.477 22 12C22 17.523 17.523 22 12 22C10.404 22.0022 8.83083 21.6208 7.41301 20.888L3.58701 21.955C3.37355 22.0146 3.14809 22.0163 2.93373 21.9601C2.71937 21.9038 2.52382 21.7916 2.36712 21.6349C2.21041 21.4782 2.09818 21.2826 2.04194 21.0683C1.98569 20.8539 1.98744 20.6285 2.04701 20.415L3.11501 16.592C2.38036 15.1729 1.99793 13.5979 2.00001 12C2.00001 6.477 6.47701 2 12 2ZM12 3.5C9.74567 3.5 7.58366 4.39553 5.9896 5.98959C4.39554 7.58365 3.50001 9.74566 3.50001 12C3.50001 13.47 3.87301 14.883 4.57301 16.137L4.72301 16.407L3.61101 20.391L7.59801 19.279L7.86801 19.429C9.00239 20.0597 10.2661 20.4222 11.5624 20.4888C12.8586 20.5554 14.1528 20.3242 15.3458 19.8131C16.5389 19.3019 17.599 18.5244 18.445 17.54C19.2909 16.5556 19.9002 15.3906 20.2261 14.1343C20.552 12.8779 20.5858 11.5636 20.325 10.2922C20.0643 9.02073 19.5158 7.82589 18.7216 6.79927C17.9275 5.77264 16.9088 4.94152 15.7437 4.36962C14.5786 3.79773 13.2979 3.50025 12 3.5ZM12 15.5C12.2652 15.5 12.5196 15.6054 12.7071 15.7929C12.8947 15.9804 13 16.2348 13 16.5C13 16.7652 12.8947 17.0196 12.7071 17.2071C12.5196 17.3946 12.2652 17.5 12 17.5C11.7348 17.5 11.4804 17.3946 11.2929 17.2071C11.1054 17.0196 11 16.7652 11 16.5C11 16.2348 11.1054 15.9804 11.2929 15.7929C11.4804 15.6054 11.7348 15.5 12 15.5ZM12 6.75C12.7294 6.75 13.4288 7.03973 13.9446 7.55546C14.4603 8.07118 14.75 8.77065 14.75 9.5C14.75 10.51 14.453 11.074 13.699 11.859L13.53 12.03C12.908 12.652 12.75 12.916 12.75 13.5C12.75 13.6989 12.671 13.8897 12.5303 14.0303C12.3897 14.171 12.1989 14.25 12 14.25C11.8011 14.25 11.6103 14.171 11.4697 14.0303C11.329 13.8897 11.25 13.6989 11.25 13.5C11.25 12.49 11.547 11.926 12.301 11.141L12.47 10.97C13.092 10.348 13.25 10.084 13.25 9.5C13.249 9.18028 13.1255 8.8731 12.9049 8.64165C12.6843 8.4102 12.3834 8.27208 12.0641 8.25568C11.7448 8.23929 11.4314 8.34587 11.1882 8.55351C10.9451 8.76115 10.7908 9.05406 10.757 9.372L10.75 9.5C10.75 9.69891 10.671 9.88968 10.5303 10.0303C10.3897 10.171 10.1989 10.25 10 10.25C9.8011 10.25 9.61033 10.171 9.46968 10.0303C9.32903 9.88968 9.25001 9.69891 9.25001 9.5C9.25001 8.77065 9.53974 8.07118 10.0555 7.55546C10.5712 7.03973 11.2707 6.75 12 6.75Z" fill="#222222"/>
</svg>
