<svg width="22" height="24" viewBox="0 0 22 24" fill="none" xmlns="http://www.w3.org/2000/svg">
<path fill-rule="evenodd" clip-rule="evenodd" d="M9.20861 5.66205C8.11058 5.66205 7.19464 6.47403 7.09876 7.53242C6.89828 9.74531 6.84755 11.9681 6.94671 14.1865C6.82702 14.1942 6.70735 14.2023 6.5877 14.2108L4.47349 14.3599C3.12219 14.4552 2.3668 15.9131 3.09634 17.0178C4.65222 19.3739 7.50403 22.0108 9.85086 23.642C10.5376 24.1193 11.4625 24.1193 12.1492 23.642C14.496 22.0108 17.3478 19.3739 18.9037 17.0178C19.6332 15.9131 18.8779 14.4552 17.5266 14.3599L15.4124 14.2108C15.2927 14.2023 15.173 14.1942 15.0533 14.1865C15.1525 11.9681 15.1018 9.74531 14.9013 7.53241C14.8054 6.47402 13.8895 5.66205 12.7914 5.66205H9.20861ZM9.12855 15.0899C8.96715 12.6353 8.9973 10.1724 9.21877 7.72211H12.7813C13.0028 10.1724 13.0329 12.6353 12.8715 15.0899C12.8534 15.365 12.9501 15.6358 13.1399 15.8414C13.3297 16.0471 13.5969 16.1705 13.8815 16.1841C14.3404 16.2059 14.7991 16.233 15.2576 16.2654L16.793 16.3737C15.4311 18.3147 13.7258 20.0097 11.7541 21.3802L11 21.9043L10.2459 21.3802C8.2743 20.0097 6.56895 18.3146 5.20701 16.3737L6.74248 16.2654C7.20091 16.233 7.65963 16.2059 8.11856 16.1841C8.40319 16.1705 8.67031 16.0471 8.86014 15.8414C9.04996 15.6358 9.14665 15.365 9.12855 15.0899Z" fill="black"/>
<path d="M2.12903 5.15014C2.12903 5.71901 1.65243 6.18017 1.06452 6.18017C0.4766 6.18017 0 5.71901 0 5.15014V2.4034C0 1.07604 1.11207 0 2.48387 0H19.5161C20.8879 0 22 1.07604 22 2.4034V5.15014C22 5.71901 21.5234 6.18017 20.9355 6.18017C20.3476 6.18017 19.871 5.71901 19.871 5.15014V2.4034C19.871 2.21378 19.7121 2.06006 19.5161 2.06006H2.48387C2.2879 2.06006 2.12903 2.21378 2.12903 2.4034V5.15014Z" fill="black"/>
</svg>
