<svg width="58" height="58" viewBox="0 0 58 58" fill="none" xmlns="http://www.w3.org/2000/svg">
<g clip-path="url(#clip0_105_1196)">
<path d="M28.9914 8.6974C28.1029 7.80881 26.9562 7.72909 25.8792 8.03205C24.8428 8.32341 23.7368 8.99166 22.6293 9.82081C20.41 11.4806 17.8341 14.0565 15.2669 16.6236L15.2205 16.67C15.0283 16.8623 14.9203 17.123 14.9203 17.3948C14.9203 17.6667 15.0283 17.9274 15.2205 18.1196C15.4128 18.3118 15.6735 18.4198 15.9453 18.4198C16.2172 18.4198 16.4779 18.3118 16.6701 18.1196C19.2924 15.4973 21.7697 13.0229 23.8556 11.4617C24.908 10.678 25.7671 10.1929 26.433 10.0064C27.0577 9.83096 27.3433 9.94838 27.5419 10.147C27.7593 10.3644 27.8695 10.6543 27.7202 11.2356C27.5607 11.8666 27.12 12.6755 26.3982 13.6622C24.9587 15.6234 22.6699 17.9181 20.294 20.2939L20.2476 20.3403C17.9269 22.6611 15.5278 25.0601 13.9855 27.162C13.2143 28.2144 12.5896 29.2827 12.3301 30.296C12.059 31.3585 12.175 32.4689 13.0462 33.3401C14.1942 34.4881 15.8192 34.2403 17.1731 33.6343C18.5821 33.0023 20.1302 31.8166 21.6247 30.3221L20.1752 28.8725C18.7691 30.2786 17.4268 31.273 16.3338 31.7629C15.1857 32.279 14.6958 32.0905 14.4958 31.8905C14.2783 31.6731 14.1696 31.3817 14.3175 30.8019C14.4769 30.1708 14.9176 29.362 15.6395 28.3753C17.0789 26.414 19.3678 24.1194 21.7436 21.7435L21.79 21.6971C24.1107 19.3764 26.5098 16.9773 28.0521 14.8755C28.8233 13.8231 29.4481 12.7547 29.7075 11.7415C29.9786 10.679 29.8626 9.56859 28.9914 8.6974ZM23.9165 26.8156C23.7243 26.6233 23.6163 26.3626 23.6163 26.0908C23.6163 25.8189 23.7243 25.5582 23.9165 25.366C24.1087 25.1738 24.3694 25.0658 24.6413 25.0658C24.9131 25.0658 25.1738 25.1738 25.3661 25.366L28.9914 28.9914C29.1585 29.1585 29.3782 29.2628 29.6132 29.2865C29.8483 29.3103 30.0844 29.2521 30.2816 29.1218L35.3275 25.7719C35.6738 25.5421 36.063 25.3848 36.4718 25.3097C36.8805 25.2345 37.3002 25.243 37.7056 25.3346C38.1109 25.4262 38.4935 25.599 38.8302 25.8425C39.1669 26.0861 39.4508 26.3954 39.6646 26.7518L43.2842 32.7805C43.3849 32.9482 43.4355 33.1411 43.4301 33.3365C43.4247 33.532 43.3635 33.7218 43.2538 33.8837L40.9127 37.3409C40.7445 37.5902 40.4517 37.7786 40.0285 37.8598C39.5731 37.9408 39.1045 37.9018 38.6688 37.7468C37.2996 37.2511 35.807 37.2104 34.4128 37.6308L25.5023 39.9023C25.3208 39.4303 25.3327 38.9058 25.5354 38.4426C25.7381 37.9794 26.1153 37.6147 26.5852 37.4279L30.8208 35.7435C30.9788 35.6807 31.1186 35.5796 31.2278 35.4494C31.337 35.3191 31.4121 35.1637 31.4463 34.9973C31.4805 34.8308 31.4728 34.6584 31.4238 34.4956C31.3749 34.3329 31.2862 34.1848 31.1658 34.0649L23.9165 26.8156ZM22.4669 23.9164C21.8903 24.4931 21.5663 25.2752 21.5663 26.0908C21.5663 26.9063 21.8903 27.6885 22.4669 28.2651L28.616 34.4142L25.8256 35.5231C25.3082 35.7292 24.8399 36.0417 24.4512 36.4405C24.0625 36.8393 23.762 37.3154 23.5692 37.8379C23.3765 38.3603 23.2958 38.9175 23.3324 39.4732C23.369 40.0289 23.5221 40.5707 23.7817 41.0634C23.9662 41.4138 24.2633 41.6919 24.6252 41.8528C24.987 42.0137 25.3925 42.0481 25.7763 41.9505L34.9419 39.6124L34.9854 39.5979C36.148 39.2471 37.1728 39.3906 37.9831 39.679C38.7398 39.9458 39.6066 40.0298 40.4198 39.8718C41.2389 39.7138 42.0666 39.292 42.6087 38.4918L44.9512 35.0332C45.28 34.5477 45.4631 33.9784 45.479 33.3923C45.495 32.8062 45.343 32.2278 45.0411 31.7253L41.4229 25.6979C41.0666 25.1039 40.5935 24.5883 40.0323 24.1822C39.4711 23.7762 38.8334 23.4881 38.1578 23.3354C37.4821 23.1827 36.7825 23.1686 36.1012 23.2938C35.4199 23.4191 34.7711 23.6812 34.1939 24.0643L29.8481 26.9489L26.8156 23.9164C26.239 23.3397 25.4568 23.0158 24.6413 23.0158C23.8257 23.0158 23.0436 23.3397 22.4669 23.9164Z" fill="#17FF70"/>
</g>
<defs>
<clipPath id="clip0_105_1196">
<rect width="41" height="41" fill="white" transform="translate(0 28.9913) rotate(-45)"/>
</clipPath>
</defs>
</svg>
