<svg width="22" height="22" viewBox="0 0 22 22" fill="none" xmlns="http://www.w3.org/2000/svg">
<path d="M11 14C12.6569 14 14 12.6569 14 11C14 9.34315 12.6569 8 11 8C9.34315 8 8 9.34315 8 11C8 12.6569 9.34315 14 11 14Z" stroke="black" stroke-width="1.5"/>
<path d="M12.765 1.152C12.398 1 11.932 1 11 1C10.068 1 9.60196 1 9.23496 1.152C8.99214 1.25251 8.77151 1.3999 8.58569 1.58572C8.39986 1.77155 8.25248 1.99218 8.15196 2.235C8.05996 2.458 8.02296 2.719 8.00896 3.098C8.00245 3.37193 7.92657 3.63973 7.7884 3.87635C7.65024 4.11298 7.45432 4.31069 7.21896 4.451C6.97977 4.58477 6.71055 4.65567 6.43649 4.65707C6.16244 4.65847 5.89251 4.59032 5.65196 4.459C5.31596 4.281 5.07296 4.183 4.83196 4.151C4.30628 4.08187 3.77466 4.22431 3.35396 4.547C3.03996 4.79 2.80596 5.193 2.33996 6C1.87396 6.807 1.63996 7.21 1.58896 7.605C1.5546 7.86545 1.57188 8.13012 1.63983 8.38389C1.70778 8.63767 1.82505 8.87556 1.98496 9.084C2.13296 9.276 2.33996 9.437 2.66096 9.639C3.13396 9.936 3.43796 10.442 3.43796 11C3.43796 11.558 3.13396 12.064 2.66096 12.36C2.33996 12.563 2.13196 12.724 1.98496 12.916C1.82505 13.1244 1.70778 13.3623 1.63983 13.6161C1.57188 13.8699 1.5546 14.1345 1.58896 14.395C1.64096 14.789 1.87396 15.193 2.33896 16C2.80596 16.807 3.03896 17.21 3.35396 17.453C3.5624 17.6129 3.8003 17.7302 4.05407 17.7981C4.30784 17.8661 4.57251 17.8834 4.83296 17.849C5.07296 17.817 5.31596 17.719 5.65196 17.541C5.89251 17.4097 6.16244 17.3415 6.43649 17.3429C6.71055 17.3443 6.97977 17.4152 7.21896 17.549C7.70196 17.829 7.98896 18.344 8.00896 18.902C8.02296 19.282 8.05896 19.542 8.15196 19.765C8.25248 20.0078 8.39986 20.2284 8.58569 20.4143C8.77151 20.6001 8.99214 20.7475 9.23496 20.848C9.60196 21 10.068 21 11 21C11.932 21 12.398 21 12.765 20.848C13.0078 20.7475 13.2284 20.6001 13.4142 20.4143C13.6001 20.2284 13.7474 20.0078 13.848 19.765C13.94 19.542 13.977 19.282 13.991 18.902C14.011 18.344 14.298 17.828 14.781 17.549C15.0202 17.4152 15.2894 17.3443 15.5634 17.3429C15.8375 17.3415 16.1074 17.4097 16.348 17.541C16.684 17.719 16.927 17.817 17.167 17.849C17.4274 17.8834 17.6921 17.8661 17.9459 17.7981C18.1996 17.7302 18.4375 17.6129 18.646 17.453C18.961 17.211 19.194 16.807 19.66 16C20.126 15.193 20.36 14.79 20.411 14.395C20.4453 14.1345 20.428 13.8699 20.3601 13.6161C20.2921 13.3623 20.1749 13.1244 20.015 12.916C19.867 12.724 19.66 12.563 19.339 12.361C19.1049 12.2184 18.9108 12.0187 18.7749 11.7807C18.639 11.5427 18.5658 11.2741 18.562 11C18.562 10.442 18.866 9.936 19.339 9.64C19.66 9.437 19.868 9.276 20.015 9.084C20.1749 8.87556 20.2921 8.63767 20.3601 8.38389C20.428 8.13012 20.4453 7.86545 20.411 7.605C20.359 7.211 20.126 6.807 19.661 6C19.194 5.193 18.961 4.79 18.646 4.547C18.4375 4.38709 18.1996 4.26981 17.9459 4.20187C17.6921 4.13392 17.4274 4.11664 17.167 4.151C16.927 4.183 16.684 4.281 16.347 4.459C16.1065 4.59014 15.8368 4.6582 15.5629 4.6568C15.2891 4.6554 15.02 4.58459 14.781 4.451C14.5456 4.31069 14.3497 4.11298 14.2115 3.87635C14.0734 3.63973 13.9975 3.37193 13.991 3.098C13.977 2.718 13.941 2.458 13.848 2.235C13.7474 1.99218 13.6001 1.77155 13.4142 1.58572C13.2284 1.3999 13.0078 1.25251 12.765 1.152Z" stroke="black" stroke-width="1.5"/>
</svg>
