<svg width="24" height="24" viewBox="0 0 24 24" fill="none" xmlns="http://www.w3.org/2000/svg">
<g clip-path="url(#clip0_100_681)">
<path fill-rule="evenodd" clip-rule="evenodd" d="M13.2 19.2C13.8365 19.2 14.447 19.4529 14.8971 19.9029C15.3471 20.353 15.6 20.9635 15.6 21.6C15.6 22.2365 15.3471 22.847 14.8971 23.2971C14.447 23.7471 13.8365 24 13.2 24C12.5635 24 11.953 23.7471 11.5029 23.2971C11.0529 22.847 10.8 22.2365 10.8 21.6C10.8 20.9635 11.0529 20.353 11.5029 19.9029C11.953 19.4529 12.5635 19.2 13.2 19.2ZM5.6892 15.6C6.48485 15.6 7.24791 15.9161 7.81052 16.4787C8.37313 17.0413 8.6892 17.8044 8.6892 18.6C8.6892 19.3957 8.37313 20.1587 7.81052 20.7213C7.24791 21.2839 6.48485 21.6 5.6892 21.6C4.89355 21.6 4.13049 21.2839 3.56788 20.7213C3.00527 20.1587 2.6892 19.3957 2.6892 18.6C2.6892 17.8044 3.00527 17.0413 3.56788 16.4787C4.13049 15.9161 4.89355 15.6 5.6892 15.6ZM19.5828 16.2C20.2193 16.2 20.8298 16.4529 21.2799 16.9029C21.7299 17.353 21.9828 17.9635 21.9828 18.6C21.9828 19.2365 21.7299 19.847 21.2799 20.2971C20.8298 20.7471 20.2193 21 19.5828 21C18.9463 21 18.3358 20.7471 17.8857 20.2971C17.4357 19.847 17.1828 19.2365 17.1828 18.6C17.1828 17.9635 17.4357 17.353 17.8857 16.9029C18.3358 16.4529 18.9463 16.2 19.5828 16.2ZM22.2 11.1828C22.6774 11.1828 23.1352 11.3724 23.4728 11.71C23.8104 12.0476 24 12.5054 24 12.9828C24 13.4602 23.8104 13.918 23.4728 14.2556C23.1352 14.5932 22.6774 14.7828 22.2 14.7828C21.7226 14.7828 21.2648 14.5932 20.9272 14.2556C20.5896 13.918 20.4 13.4602 20.4 12.9828C20.4 12.5054 20.5896 12.0476 20.9272 11.71C21.2648 11.3724 21.7226 11.1828 22.2 11.1828ZM3 7.2C3.79565 7.2 4.55871 7.51607 5.12132 8.07868C5.68393 8.64129 6 9.40435 6 10.2C6 10.9957 5.68393 11.7587 5.12132 12.3213C4.55871 12.8839 3.79565 13.2 3 13.2C2.20435 13.2 1.44129 12.8839 0.87868 12.3213C0.316071 11.7587 0 10.9957 0 10.2C0 9.40435 0.316071 8.64129 0.87868 8.07868C1.44129 7.51607 2.20435 7.2 3 7.2ZM21.3432 6.2484C21.6615 6.2484 21.9667 6.37483 22.1917 6.59987C22.4168 6.82492 22.5432 7.13014 22.5432 7.4484C22.5432 7.76666 22.4168 8.07189 22.1917 8.29693C21.9667 8.52197 21.6615 8.6484 21.3432 8.6484C21.0249 8.6484 20.7197 8.52197 20.4947 8.29693C20.2696 8.07189 20.1432 7.76666 20.1432 7.4484C20.1432 7.13014 20.2696 6.82492 20.4947 6.59987C20.7197 6.37483 21.0249 6.2484 21.3432 6.2484ZM9.6 0C10.5548 0 11.4705 0.379285 12.1456 1.05442C12.8207 1.72955 13.2 2.64522 13.2 3.6C13.2 4.55478 12.8207 5.47045 12.1456 6.14558C11.4705 6.82072 10.5548 7.2 9.6 7.2C8.64522 7.2 7.72955 6.82072 7.05442 6.14558C6.37928 5.47045 6 4.55478 6 3.6C6 2.64522 6.37928 1.72955 7.05442 1.05442C7.72955 0.379285 8.64522 0 9.6 0V0ZM18.6 3.6C18.7591 3.6 18.9117 3.66321 19.0243 3.77574C19.1368 3.88826 19.2 4.04087 19.2 4.2C19.2 4.35913 19.1368 4.51174 19.0243 4.62426C18.9117 4.73679 18.7591 4.8 18.6 4.8C18.4409 4.8 18.2883 4.73679 18.1757 4.62426C18.0632 4.51174 18 4.35913 18 4.2C18 4.04087 18.0632 3.88826 18.1757 3.77574C18.2883 3.66321 18.4409 3.6 18.6 3.6Z" fill="#100C08"/>
</g>
<defs>
<clipPath id="clip0_100_681">
<rect width="24" height="24" fill="white"/>
</clipPath>
</defs>
</svg>
