<svg width="51" height="28" viewBox="0 0 51 28" fill="none" xmlns="http://www.w3.org/2000/svg">
    <path
        d="M0.368 3.96V0.971998H7.136V27H3.824V3.96H0.368ZM12.3673 24.372C15.4153 21.924 17.8033 19.92 19.5312 18.36C21.2593 16.776 22.7113 15.132 23.8873 13.428C25.0873 11.7 25.6873 10.008 25.6873 8.352C25.6873 6.792 25.3033 5.568 24.5353 4.68C23.7913 3.768 22.5793 3.312 20.8993 3.312C19.2673 3.312 17.9953 3.828 17.0833 4.86C16.1953 5.868 15.7153 7.224 15.6433 8.928H12.4753C12.5713 6.24 13.3873 4.164 14.9233 2.7C16.4593 1.236 18.4393 0.503998 20.8633 0.503998C23.3353 0.503998 25.2913 1.188 26.7313 2.556C28.1953 3.924 28.9273 5.808 28.9273 8.208C28.9273 10.2 28.3273 12.144 27.1273 14.04C25.9513 15.912 24.6073 17.568 23.0953 19.008C21.5833 20.424 19.6513 22.08 17.2993 23.976H29.6833V26.712H12.3673V24.372ZM33.3983 7.524C33.5663 5.316 34.4183 3.588 35.9543 2.34C37.4903 1.092 39.4823 0.467998 41.9303 0.467998C43.5623 0.467998 44.9663 0.767999 46.1423 1.368C47.3423 1.944 48.2423 2.736 48.8423 3.744C49.4663 4.752 49.7783 5.892 49.7783 7.164C49.7783 8.652 49.3463 9.936 48.4823 11.016C47.6423 12.096 46.5383 12.792 45.1703 13.104V13.284C46.7303 13.668 47.9663 14.424 48.8783 15.552C49.7903 16.68 50.2463 18.156 50.2463 19.98C50.2463 21.348 49.9343 22.584 49.3103 23.688C48.6863 24.768 47.7503 25.62 46.5023 26.244C45.2543 26.868 43.7543 27.18 42.0023 27.18C39.4583 27.18 37.3703 26.52 35.7383 25.2C34.1063 23.856 33.1943 21.96 33.0023 19.512H36.1703C36.3383 20.952 36.9263 22.128 37.9343 23.04C38.9423 23.952 40.2863 24.408 41.9663 24.408C43.6463 24.408 44.9183 23.976 45.7823 23.112C46.6703 22.224 47.1143 21.084 47.1143 19.692C47.1143 17.892 46.5143 16.596 45.3143 15.804C44.1143 15.012 42.3023 14.616 39.8783 14.616H39.0503V11.88H39.9143C42.1223 11.856 43.7903 11.496 44.9183 10.8C46.0463 10.08 46.6103 8.976 46.6103 7.488C46.6103 6.216 46.1903 5.196 45.3503 4.428C44.5343 3.66 43.3583 3.276 41.8223 3.276C40.3343 3.276 39.1343 3.66 38.2223 4.428C37.3103 5.196 36.7703 6.228 36.6023 7.524H33.3983Z"
        fill="#FF5117" />
</svg>