<svg width="24" height="24" viewBox="0 0 24 24" fill="none" xmlns="http://www.w3.org/2000/svg">
<path d="M2.06398 3.48188C1.75398 2.53238 2.74298 1.68038 3.63648 2.12688L21.3785 10.9949C22.2075 11.4099 22.2075 12.5929 21.3785 13.0074L3.63648 21.8759C2.74298 22.3224 1.75398 21.4699 2.06398 20.5209L4.84248 12.0009L2.06398 3.48188ZM5.95398 12.6264L3.34498 20.6239L20.5955 12.0014L3.34498 3.37838L5.95348 11.3764H14.375C14.5407 11.3764 14.6997 11.4422 14.8169 11.5594C14.9341 11.6767 15 11.8356 15 12.0014C15 12.1671 14.9341 12.3261 14.8169 12.4433C14.6997 12.5605 14.5407 12.6264 14.375 12.6264H5.95348H5.95398Z" fill="black"/>
</svg>
