<svg width="24" height="24" viewBox="0 0 24 24" fill="none" xmlns="http://www.w3.org/2000/svg">
<path d="M22 15L16 9M22 9L16 15" stroke="black" stroke-width="2" stroke-linecap="round"/>
<path d="M2 14.959V9.04001C2 8.46601 2.448 8.00001 3 8.00001H6.586C6.71833 7.99954 6.8492 7.97228 6.97071 7.91986C7.09222 7.86744 7.20185 7.79095 7.293 7.69501L10.293 4.30701C10.923 3.65101 12 4.11601 12 5.04301V18.957C12 19.891 10.91 20.352 10.284 19.683L7.294 16.314C7.20259 16.2153 7.09185 16.1365 6.96867 16.0825C6.84549 16.0285 6.71251 16.0004 6.578 16H3C2.448 16 2 15.534 2 14.959Z" stroke="black" stroke-width="2" stroke-linecap="round" stroke-linejoin="round"/>
</svg>
