<svg width="18" height="22" viewBox="0 0 18 22" fill="none" xmlns="http://www.w3.org/2000/svg">
<path d="M3.375 22C2.75625 22 2.22675 21.7609 1.7865 21.2826C1.3455 20.8034 1.125 20.2278 1.125 19.5556V3.66667H0V1.22222H5.625V0H12.375V1.22222H18V3.66667H16.875V19.5556C16.875 20.2278 16.6549 20.8034 16.2146 21.2826C15.7736 21.7609 15.2437 22 14.625 22H3.375ZM14.625 3.66667H3.375V19.5556H14.625V3.66667ZM5.625 17.1111H7.875V6.11111H5.625V17.1111ZM10.125 17.1111H12.375V6.11111H10.125V17.1111ZM3.375 3.66667V19.5556V3.66667Z" fill="#222222"/>
</svg>
