<svg width="22" height="24" viewBox="0 0 22 24" fill="none" xmlns="http://www.w3.org/2000/svg">
<path fill-rule="evenodd" clip-rule="evenodd" d="M9.20861 18.3379C8.11058 18.3379 7.19464 17.526 7.09876 16.4676C6.89828 14.2547 6.84755 12.0319 6.94671 9.81353C6.82702 9.80577 6.70735 9.79768 6.5877 9.78924L4.47349 9.64012C3.12219 9.5448 2.3668 8.08688 3.09634 6.98216C4.65222 4.62613 7.50403 1.98918 9.85086 0.357979C10.5376 -0.119327 11.4625 -0.119326 12.1492 0.357979C14.496 1.98918 17.3478 4.62612 18.9037 6.98216C19.6332 8.08688 18.8779 9.5448 17.5266 9.64012L15.4124 9.78924C15.2927 9.79768 15.173 9.80577 15.0533 9.81352C15.1525 12.0319 15.1018 14.2547 14.9013 16.4676C14.8054 17.526 13.8895 18.3379 12.7914 18.3379H9.20861ZM9.12855 8.91013C8.96715 11.3647 8.9973 13.8276 9.21877 16.2779H12.7813C13.0028 13.8276 13.0329 11.3647 12.8715 8.91013C12.8534 8.63495 12.9501 8.36424 13.1399 8.15859C13.3297 7.95294 13.5969 7.82951 13.8815 7.81595C14.3404 7.79407 14.7991 7.76697 15.2576 7.73463L16.793 7.62633C15.4311 5.68535 13.7258 3.99026 11.7541 2.61984L11 2.09571L10.2459 2.61984C8.2743 3.99027 6.56895 5.68535 5.20701 7.62633L6.74248 7.73463C7.20091 7.76697 7.65963 7.79407 8.11856 7.81595C8.40319 7.82951 8.67031 7.95294 8.86014 8.15859C9.04996 8.36424 9.14665 8.63495 9.12855 8.91013Z" fill="black"/>
<path d="M2.12903 18.8499C2.12903 18.281 1.65243 17.8198 1.06452 17.8198C0.4766 17.8198 0 18.281 0 18.8499V21.5966C0 22.924 1.11207 24 2.48387 24H19.5161C20.8879 24 22 22.924 22 21.5966V18.8499C22 18.281 21.5234 17.8198 20.9355 17.8198C20.3476 17.8198 19.871 18.281 19.871 18.8499V21.5966C19.871 21.7862 19.7121 21.9399 19.5161 21.9399H2.48387C2.2879 21.9399 2.12903 21.7862 2.12903 21.5966V18.8499Z" fill="black"/>
</svg>
