<svg width="99" height="51" viewBox="0 0 99 51" fill="none" xmlns="http://www.w3.org/2000/svg">
    <path
        d="M14.648 39.04H4.92L3.128 44H0.056L8.12 21.824H11.48L19.512 44H16.44L14.648 39.04ZM13.816 36.672L9.784 25.408L5.752 36.672H13.816ZM21.9385 35.168C21.9385 33.376 22.3012 31.808 23.0265 30.464C23.7518 29.0987 24.7438 28.0427 26.0025 27.296C27.2825 26.5493 28.7012 26.176 30.2585 26.176C31.7945 26.176 33.1278 26.5067 34.2585 27.168C35.3892 27.8293 36.2318 28.6613 36.7865 29.664V26.464H39.7305V44H36.7865V40.736C36.2105 41.76 35.3465 42.6133 34.1945 43.296C33.0638 43.9573 31.7412 44.288 30.2265 44.288C28.6692 44.288 27.2612 43.904 26.0025 43.136C24.7438 42.368 23.7518 41.2907 23.0265 39.904C22.3012 38.5173 21.9385 36.9387 21.9385 35.168ZM36.7865 35.2C36.7865 33.8773 36.5198 32.7253 35.9865 31.744C35.4532 30.7627 34.7278 30.016 33.8105 29.504C32.9145 28.9707 31.9225 28.704 30.8345 28.704C29.7465 28.704 28.7545 28.96 27.8585 29.472C26.9625 29.984 26.2478 30.7307 25.7145 31.712C25.1812 32.6933 24.9145 33.8453 24.9145 35.168C24.9145 36.512 25.1812 37.6853 25.7145 38.688C26.2478 39.6693 26.9625 40.4267 27.8585 40.96C28.7545 41.472 29.7465 41.728 30.8345 41.728C31.9225 41.728 32.9145 41.472 33.8105 40.96C34.7278 40.4267 35.4532 39.6693 35.9865 38.688C36.5198 37.6853 36.7865 36.5227 36.7865 35.2Z"
        fill="#17A6FF" />
    <path
        d="M70.3403 27.4125C70.3403 27.4125 68.8449 18.6075 63.1484 21.3375M73.8322 26.3175C73.8322 26.3175 74.0789 18.555 68.0278 19.2675M82.3653 43.425C82.3653 43.425 82.1726 48.15 83.7528 48.15"
        stroke="#45413C" stroke-width="0.5" stroke-linecap="round" stroke-linejoin="round" />
    <path opacity="0.15"
        d="M66.5479 48.15C66.5479 48.3273 66.9187 48.5028 67.6392 48.6666C68.3598 48.8304 69.4158 48.9792 70.7472 49.1046C72.0786 49.2299 73.6591 49.3294 75.3986 49.3972C77.1381 49.4651 79.0025 49.5 80.8854 49.5C82.7682 49.5 84.6326 49.4651 86.3721 49.3972C88.1116 49.3294 89.6921 49.2299 91.0235 49.1046C92.3549 48.9792 93.4109 48.8304 94.1315 48.6666C94.852 48.5028 95.2228 48.3273 95.2228 48.15C95.2228 47.9727 94.852 47.7972 94.1315 47.6334C93.4109 47.4696 92.3549 47.3208 91.0235 47.1954C89.6921 47.07 88.1116 46.9706 86.3721 46.9028C84.6326 46.8349 82.7682 46.8 80.8854 46.8C79.0025 46.8 77.1381 46.8349 75.3986 46.9028C73.6591 46.9706 72.0786 47.07 70.7472 47.1954C69.4158 47.3208 68.3598 47.4696 67.6392 47.6334C66.9187 47.7972 66.5479 47.9727 66.5479 48.15Z"
        fill="#45413C" />
    <path
        d="M66.178 31.8675C66.178 33.5384 66.8602 35.1408 68.0745 36.3223C69.2888 37.5038 70.9357 38.1675 72.653 38.1675C74.3703 38.1675 76.0172 37.5038 77.2315 36.3223C78.4458 35.1408 79.128 33.5384 79.128 31.8675C79.128 30.1966 78.4458 28.5942 77.2315 27.4127C76.0172 26.2313 74.3703 25.5675 72.653 25.5675C70.9357 25.5675 69.2888 26.2313 68.0745 27.4127C66.8602 28.5942 66.178 30.1966 66.178 31.8675Z"
        fill="#17A6FF" />
    <path
        d="M72.653 27.4125C74.2052 27.4127 75.7055 27.956 76.8801 28.9432C78.0547 29.9305 78.8252 31.2958 79.0509 32.79C79.101 32.4849 79.1267 32.1765 79.128 31.8675C79.128 30.1966 78.4458 28.5942 77.2315 27.4127C76.0172 26.2313 74.3703 25.5675 72.653 25.5675C70.9357 25.5675 69.2888 26.2313 68.0745 27.4127C66.8602 28.5942 66.178 30.1966 66.178 31.8675C66.1792 32.1765 66.205 32.4849 66.2551 32.79C66.4808 31.2958 67.2513 29.9305 68.4259 28.9432C69.6004 27.956 71.1008 27.4127 72.653 27.4125Z"
        fill="#94FFFF" />
    <path
        d="M66.178 31.8675C66.178 33.5384 66.8602 35.1408 68.0745 36.3223C69.2888 37.5038 70.9357 38.1675 72.653 38.1675C74.3703 38.1675 76.0172 37.5038 77.2315 36.3223C78.4458 35.1408 79.128 33.5384 79.128 31.8675C79.128 30.1966 78.4458 28.5942 77.2315 27.4127C76.0172 26.2313 74.3703 25.5675 72.653 25.5675C70.9357 25.5675 69.2888 26.2313 68.0745 27.4127C66.8602 28.5942 66.178 30.1966 66.178 31.8675Z"
        stroke="#45413C" stroke-width="0.5" stroke-linecap="round" stroke-linejoin="round" />
    <path
        d="M74.5029 38.1675C74.5029 39.1223 74.8928 40.038 75.5866 40.7131C76.2805 41.3882 77.2216 41.7675 78.2029 41.7675C79.1842 41.7675 80.1253 41.3882 80.8192 40.7131C81.5131 40.038 81.9029 39.1223 81.9029 38.1675C81.9029 37.2127 81.5131 36.2971 80.8192 35.6219C80.1253 34.9468 79.1842 34.5675 78.2029 34.5675C77.2216 34.5675 76.2805 34.9468 75.5866 35.6219C74.8928 36.2971 74.5029 37.2127 74.5029 38.1675Z"
        fill="#17A6FF" />
    <path
        d="M78.1875 36.48C78.9938 36.483 79.7768 36.7428 80.4171 37.2195C81.0573 37.6962 81.5196 38.3637 81.7334 39.12C81.8314 38.8113 81.8833 38.4905 81.8875 38.1675C81.8875 37.2127 81.4977 36.2971 80.8038 35.6219C80.11 34.9468 79.1688 34.5675 78.1875 34.5675C77.2062 34.5675 76.2651 34.9468 75.5713 35.6219C74.8774 36.2971 74.4875 37.2127 74.4875 38.1675C74.4941 38.4898 74.5433 38.8099 74.634 39.12C74.8481 38.3624 75.3116 37.694 75.9534 37.2172C76.5952 36.7404 77.38 36.4814 78.1875 36.48Z"
        fill="#94FFFF" />
    <path
        d="M74.5029 38.1675C74.5029 39.1223 74.8928 40.038 75.5866 40.7131C76.2805 41.3882 77.2216 41.7675 78.2029 41.7675C79.1842 41.7675 80.1253 41.3882 80.8192 40.7131C81.5131 40.038 81.9029 39.1223 81.9029 38.1675C81.9029 37.2127 81.5131 36.2971 80.8192 35.6219C80.1253 34.9468 79.1842 34.5675 78.2029 34.5675C77.2216 34.5675 76.2805 34.9468 75.5866 35.6219C74.8928 36.2971 74.5029 37.2127 74.5029 38.1675Z"
        stroke="#45413C" stroke-width="0.5" stroke-linecap="round" stroke-linejoin="round" />
    <path
        d="M89.0794 32.325C94.059 32.775 97.89 37.935 97.6357 40.2825C97.3813 42.63 92.6946 47.0325 87.715 46.6125C82.7354 46.1925 79.2359 42.6 79.6136 38.655C79.9913 34.71 84.0998 31.875 89.0794 32.325Z"
        fill="#17A6FF" />
    <path
        d="M89.0793 34.95C93.0799 35.31 96.3405 38.7 97.3349 41.265C97.4871 40.9547 97.5885 40.6232 97.6355 40.2825C97.8899 37.935 94.0512 32.7825 89.0793 32.325C84.1074 31.8675 79.9912 34.71 79.6134 38.655C79.5574 39.2722 79.5964 39.894 79.7291 40.5C80.4999 36.9825 84.4234 34.5 89.0793 34.95Z"
        fill="#94FFFF" />
    <path
        d="M75.4279 39.0675L70.8029 40.5675C70.5125 40.6625 70.2507 40.8258 70.0409 41.043C69.8311 41.2603 69.6798 41.5246 69.6004 41.8125C69.1533 43.62 67.9662 47.4225 66.625 47.4225M76.8154 39.795L74.7804 41.3925C74.55 41.57 74.3673 41.7992 74.2478 42.0604C74.1284 42.3217 74.0757 42.6072 74.0944 42.8925C74.1792 44.685 74.2408 48.5325 73.1154 48.5325M89.0794 32.325C94.059 32.775 97.89 37.935 97.6356 40.2825C97.3812 42.63 92.6946 47.0325 87.715 46.6125C82.7354 46.1925 79.2358 42.6 79.6135 38.655C79.9912 34.71 84.0998 31.875 89.0794 32.325Z"
        stroke="#45413C" stroke-width="0.5" stroke-linecap="round" stroke-linejoin="round" />
    <path
        d="M70.88 30.0675C70.88 30.2455 70.8258 30.4195 70.7241 30.5675C70.6225 30.7155 70.478 30.8309 70.309 30.899C70.14 30.9671 69.954 30.9849 69.7746 30.9502C69.5951 30.9155 69.4303 30.8298 69.301 30.7039C69.1716 30.578 69.0835 30.4177 69.0478 30.2431C69.0121 30.0685 69.0304 29.8875 69.1004 29.7231C69.1705 29.5586 69.289 29.4181 69.4411 29.3192C69.5932 29.2203 69.7721 29.1675 69.955 29.1675C70.2004 29.1675 70.4356 29.2623 70.6091 29.4311C70.7826 29.5999 70.88 29.8288 70.88 30.0675Z"
        fill="#45413C" />
    <path
        d="M71.728 32.19C71.728 32.4375 72.1443 32.64 72.653 32.64C73.1618 32.64 73.578 32.4375 73.578 32.19C73.578 31.9425 73.1618 31.74 72.653 31.74C72.1443 31.74 71.728 31.9425 71.728 32.19Z"
        fill="#BFF3FF" />
    <path
        d="M86.2505 32.43C86.2505 32.43 84.2155 33.825 83.2365 37.41C82.3577 40.635 82.6892 44.355 84.1384 45.66M88.6169 46.6425C87.3159 44.3239 86.9138 41.6278 87.4838 39.045C88.6169 33.96 91.4921 32.9175 91.4921 32.9175M93.9202 44.865C93.9202 44.865 92.4325 44.385 92.3786 41.265C92.3399 40.1651 92.6057 39.0752 93.1481 38.1094C93.6905 37.1437 94.4896 36.3374 95.4619 35.775"
        stroke="#45413C" stroke-width="0.5" stroke-linecap="round" stroke-linejoin="round" />
    <path
        d="M35 11.3346C35.0678 10.8564 35.0339 10.3594 35.2277 9.90467C35.5057 9.25244 35.8437 8.59201 36.3405 8.00284C39.4538 4.31041 44.0205 1.59837 50.1509 0.477787C56.4067 -0.6657 62.3182 0.243715 67.245 3.20201C69.7122 4.68344 71.6318 6.45711 73.069 8.45085C73.3289 8.81142 73.6024 9.16771 74.042 9.75702C74.5946 8.93256 75.0161 8.30366 75.4376 7.67479C75.5741 7.69427 75.7105 7.71375 75.847 7.73323C75.9007 7.92797 76.0213 8.12648 75.9967 8.3168C75.8681 9.31153 75.7156 10.3052 75.5454 11.2972C75.436 11.9349 75.3155 12.6211 74.2792 12.8982C73.1651 13.1962 72.2292 12.7933 71.5091 12.2922C70.5191 11.6034 69.622 10.852 68.7634 10.0889C68.5863 9.93157 68.7536 9.60536 68.7621 9.35696C69.1366 9.36437 69.6199 9.2758 69.8653 9.39708C70.6281 9.77401 71.3006 10.2306 72.0232 10.6653C72.0766 10.5849 72.1428 10.5344 72.1262 10.5033C68.7932 4.27734 61.9238 0.570725 52.1518 1.20716C51.676 1.23814 51.1959 1.30285 50.7406 1.39887C44.1759 2.78311 39.328 5.4904 36.3613 9.61263C35.9672 10.1603 35.8107 10.7825 35.5441 11.3701C35.3628 11.3583 35.1814 11.3464 35 11.3346Z"
        fill="#17A6FF" />
</svg>