<svg width="22" height="24" viewBox="0 0 22 24" fill="none" xmlns="http://www.w3.org/2000/svg">
<path fill-rule="evenodd" clip-rule="evenodd" d="M19.4493 2.38373C13.8339 1.80567 8.16609 1.80567 2.55072 2.38373C2.17077 2.42284 1.9878 2.83323 2.22825 3.107L7.1927 8.75935C8.9711 10.7842 9.94133 13.3097 9.94133 15.9142V19.6705L12.0587 21.1007V15.9142C12.0587 13.3097 13.0289 10.7842 14.8073 8.75934L19.7717 3.107C20.0122 2.83323 19.8292 2.42284 19.4493 2.38373ZM2.31554 0.445612C8.08721 -0.148537 13.9128 -0.148537 19.6845 0.445612C21.7269 0.655861 22.7104 2.8619 21.4179 4.33354L16.4534 9.98588C14.9799 11.6636 14.176 13.7562 14.176 15.9142V23.0249C14.176 23.3924 13.9517 23.7286 13.5958 23.8947C13.24 24.0608 12.813 24.0285 12.4913 23.8112L8.25662 20.951C7.98468 20.7673 7.82401 20.4752 7.82401 20.1646V15.9142C7.82401 13.7562 7.0201 11.6636 5.54657 9.98589L0.58213 4.33354C-0.710409 2.8619 0.273135 0.655862 2.31554 0.445612Z" fill="black"/>
</svg>
