<svg width="36" height="36" viewBox="0 0 36 36" fill="none" xmlns="http://www.w3.org/2000/svg">
<path d="M3.375 18L16.8075 4.5675C16.9641 4.41085 17.15 4.28658 17.3546 4.20179C17.5592 4.117 17.7785 4.07336 18 4.07336C18.2215 4.07336 18.4408 4.117 18.6454 4.20179C18.85 4.28658 19.0359 4.41085 19.1925 4.5675L32.625 18M6.75 14.625V29.8125C6.75 30.744 7.506 31.5 8.4375 31.5H14.625V24.1875C14.625 23.256 15.381 22.5 16.3125 22.5H19.6875C20.619 22.5 21.375 23.256 21.375 24.1875V31.5H27.5625C28.494 31.5 29.25 30.744 29.25 29.8125V14.625M12.375 31.5H24.75" stroke="white" stroke-width="1.5" stroke-linecap="round" stroke-linejoin="round"/>
</svg>
