<svg width="24" height="24" viewBox="0 0 24 24" fill="none" xmlns="http://www.w3.org/2000/svg">
<path d="M2.25 12L11.205 3.045C11.3094 2.94056 11.4333 2.85772 11.5697 2.80119C11.7061 2.74467 11.8523 2.71558 12 2.71558C12.1477 2.71558 12.2939 2.74467 12.4303 2.80119C12.5667 2.85772 12.6906 2.94056 12.795 3.045L21.75 12M4.5 9.75V19.875C4.5 20.496 5.004 21 5.625 21H9.75V16.125C9.75 15.504 10.254 15 10.875 15H13.125C13.746 15 14.25 15.504 14.25 16.125V21H18.375C18.996 21 19.5 20.496 19.5 19.875V9.75M8.25 21H16.5" stroke="black" stroke-width="1.5" stroke-linecap="round" stroke-linejoin="round"/>
</svg>
