<svg width="20" height="24" viewBox="0 0 20 24" fill="none" xmlns="http://www.w3.org/2000/svg">
<path d="M10.0003 13.714C9.10128 13.714 8.22247 13.4627 7.47497 12.9917C6.72747 12.5208 6.14487 11.8515 5.80084 11.0684C5.4568 10.2853 5.36679 9.42354 5.54218 8.59219C5.71756 7.76085 6.15048 6.9972 6.78617 6.39784C7.42186 5.79847 8.23178 5.39029 9.11351 5.22493C9.99524 5.05956 10.9092 5.14444 11.7398 5.46881C12.5703 5.79319 13.2802 6.3425 13.7797 7.04728C14.2792 7.75206 14.5457 8.58066 14.5457 9.42829C14.5443 10.5645 14.0649 11.6538 13.2128 12.4572C12.3607 13.2607 11.2054 13.7126 10.0003 13.714ZM10.0003 6.85687C9.46088 6.85687 8.93359 7.00768 8.4851 7.29023C8.0366 7.57278 7.68704 7.97438 7.48062 8.44425C7.2742 8.91412 7.22019 9.43115 7.32542 9.92996C7.43065 10.4288 7.6904 10.8869 8.07182 11.2466C8.45323 11.6062 8.93918 11.8511 9.46822 11.9503C9.99726 12.0495 10.5456 11.9986 11.044 11.804C11.5423 11.6094 11.9683 11.2798 12.2679 10.8569C12.5676 10.434 12.7276 9.93687 12.7276 9.42829C12.7268 8.74652 12.4393 8.09286 11.928 7.61077C11.4167 7.12868 10.7234 6.85755 10.0003 6.85687Z" fill="black"/>
<path d="M10 24L2.33092 15.4723C2.22435 15.3442 2.1189 15.2154 2.01455 15.0857C0.704538 13.4587 -0.00316471 11.4713 1.0639e-05 9.42857C1.0639e-05 6.92796 1.05358 4.52977 2.92894 2.76156C4.8043 0.993365 7.34784 0 10 0C12.6522 0 15.1957 0.993365 17.0711 2.76156C18.9464 4.52977 20 6.92796 20 9.42857C20.0032 11.4704 19.2958 13.4568 17.9864 15.0831L17.9854 15.0857C17.9854 15.0857 17.7127 15.4234 17.6718 15.4689L10 24ZM3.46546 14.0529C3.46728 14.0529 3.67819 14.3169 3.72637 14.3734L10 21.3497L16.2818 14.364C16.3218 14.3169 16.5345 14.0511 16.5354 14.0503C17.6056 12.721 18.1839 11.0975 18.1818 9.42857C18.1818 7.38262 17.3198 5.42046 15.7854 3.97375C14.251 2.52704 12.17 1.71429 10 1.71429C7.83005 1.71429 5.74897 2.52704 4.21459 3.97375C2.6802 5.42046 1.81819 7.38262 1.81819 9.42857C1.81628 11.0985 2.39526 12.7229 3.46637 14.0529H3.46546Z" fill="black"/>
</svg>
