<svg width="24" height="24" viewBox="0 0 24 24" fill="none" xmlns="http://www.w3.org/2000/svg">
<path d="M9 17C9 17.7956 8.68393 18.5587 8.12132 19.1213C7.55871 19.6839 6.79565 20 6 20C5.20435 20 4.44129 19.6839 3.87868 19.1213C3.31607 18.5587 3 17.7956 3 17C3 16.2044 3.31607 15.4413 3.87868 14.8787C4.44129 14.3161 5.20435 14 6 14C6.79565 14 7.55871 14.3161 8.12132 14.8787C8.68393 15.4413 9 16.2044 9 17ZM9 17V9M14.42 14.45C14.0353 14.6887 13.7096 15.0113 13.4672 15.3937C13.2249 15.7762 13.0723 16.2085 13.0209 16.6583C12.9694 17.1081 13.0204 17.5637 13.17 17.991C13.3197 18.4183 13.5641 18.8061 13.885 19.1255C14.2058 19.4449 14.5948 19.6876 15.0228 19.8352C15.4508 19.9829 15.9066 20.0318 16.3562 19.9783C16.8057 19.9248 17.2374 19.7702 17.6187 19.5261C18 19.282 18.3211 18.9548 18.558 18.569M9 5V4H19V15M12 8H19M3 3L21 21" stroke="black" stroke-width="2" stroke-linecap="round" stroke-linejoin="round"/>
</svg>
