<svg width="24" height="24" viewBox="0 0 24 24" fill="none" xmlns="http://www.w3.org/2000/svg">
<path d="M22.2806 16.7194C22.3504 16.7891 22.4057 16.8718 22.4434 16.9628C22.4812 17.0539 22.5006 17.1515 22.5006 17.2501C22.5006 17.3486 22.4812 17.4462 22.4434 17.5373C22.4057 17.6283 22.3504 17.711 22.2806 17.7807L20.0306 20.0307C19.8899 20.1714 19.699 20.2505 19.5 20.2505C19.301 20.2505 19.1101 20.1714 18.9694 20.0307C18.8286 19.8899 18.7496 19.6991 18.7496 19.5001C18.7496 19.301 18.8286 19.1102 18.9694 18.9694L19.9397 18.0001H18.8381C17.7639 17.9992 16.7053 17.7423 15.75 17.2507C14.7948 16.7592 13.9705 16.0471 13.3453 15.1735L9.43406 9.69849C8.94778 9.01904 8.30662 8.46522 7.56368 8.08291C6.82074 7.7006 5.99741 7.5008 5.16188 7.50005H3C2.80109 7.50005 2.61032 7.42103 2.46967 7.28038C2.32902 7.13973 2.25 6.94896 2.25 6.75005C2.25 6.55114 2.32902 6.36037 2.46967 6.21972C2.61032 6.07907 2.80109 6.00005 3 6.00005H5.16188C6.23615 6.00094 7.29474 6.2578 8.24996 6.74935C9.20518 7.2409 10.0295 7.95299 10.6547 8.82661L14.5659 14.3016C15.0522 14.9811 15.6934 15.5349 16.4363 15.9172C17.1793 16.2995 18.0026 16.4993 18.8381 16.5001H19.9397L18.9694 15.5307C18.8286 15.3899 18.7496 15.1991 18.7496 15.0001C18.7496 14.801 18.8286 14.6102 18.9694 14.4694C19.1101 14.3287 19.301 14.2496 19.5 14.2496C19.699 14.2496 19.8899 14.3287 20.0306 14.4694L22.2806 16.7194ZM13.4062 10.0313C13.4864 10.0886 13.577 10.1295 13.673 10.1517C13.7689 10.1739 13.8683 10.177 13.9655 10.1608C14.0626 10.1446 14.1557 10.1094 14.2392 10.0573C14.3228 10.0052 14.3953 9.93707 14.4525 9.85693L14.565 9.70036C15.0512 9.02044 15.6924 8.46618 16.4355 8.08353C17.1786 7.70088 18.0023 7.50086 18.8381 7.50005H19.9397L18.9694 8.46943C18.8286 8.61016 18.7496 8.80103 18.7496 9.00005C18.7496 9.19907 18.8286 9.38995 18.9694 9.53068C19.1101 9.67141 19.301 9.75047 19.5 9.75047C19.699 9.75047 19.8899 9.67141 20.0306 9.53068L22.2806 7.28068C22.3504 7.21102 22.4057 7.1283 22.4434 7.03726C22.4812 6.94621 22.5006 6.84861 22.5006 6.75005C22.5006 6.65149 22.4812 6.55389 22.4434 6.46285C22.4057 6.3718 22.3504 6.28908 22.2806 6.21943L20.0306 3.96943C19.8899 3.8287 19.699 3.74963 19.5 3.74963C19.301 3.74963 19.1101 3.8287 18.9694 3.96943C18.8286 4.11016 18.7496 4.30103 18.7496 4.50005C18.7496 4.69907 18.8286 4.88995 18.9694 5.03068L19.9397 6.00005H18.8381C17.7639 6.00094 16.7053 6.2578 15.75 6.74935C14.7948 7.2409 13.9705 7.95299 13.3453 8.82661L13.2328 8.98318C13.1752 9.06333 13.134 9.15406 13.1116 9.25017C13.0891 9.34627 13.0858 9.44587 13.102 9.54324C13.1181 9.64061 13.1532 9.73385 13.2055 9.8176C13.2577 9.90135 13.3259 9.97397 13.4062 10.0313ZM10.5938 13.9688C10.5136 13.9116 10.423 13.8706 10.327 13.8484C10.2311 13.8262 10.1317 13.8231 10.0345 13.8393C9.93736 13.8555 9.84434 13.8907 9.76078 13.9428C9.67722 13.9949 9.60475 14.063 9.5475 14.1432L9.435 14.2997C8.94883 14.9797 8.30761 15.5339 7.56448 15.9166C6.82136 16.2992 5.99773 16.4992 5.16188 16.5001H3C2.80109 16.5001 2.61032 16.5791 2.46967 16.7197C2.32902 16.8604 2.25 17.0511 2.25 17.2501C2.25 17.449 2.32902 17.6397 2.46967 17.7804C2.61032 17.921 2.80109 18.0001 3 18.0001H5.16188C6.23615 17.9992 7.29474 17.7423 8.24996 17.2507C9.20518 16.7592 10.0295 16.0471 10.6547 15.1735L10.7672 15.0169C10.8248 14.9368 10.866 14.846 10.8884 14.7499C10.9109 14.6538 10.9142 14.5542 10.898 14.4569C10.8819 14.3595 10.8468 14.2663 10.7945 14.1825C10.7423 14.0988 10.6741 14.0261 10.5938 13.9688Z" fill="black"/>
</svg>
