<svg width="24" height="24" viewBox="0 0 24 24" fill="none" xmlns="http://www.w3.org/2000/svg">
<path d="M19.547 17.9537C19.6518 18.0582 19.7351 18.1824 19.7918 18.3192C19.8486 18.4559 19.8778 18.6025 19.8778 18.7506C19.8778 18.8987 19.8486 19.0453 19.7918 19.182C19.7351 19.3188 19.6518 19.443 19.547 19.5475C19.3347 19.757 19.0484 19.8745 18.7501 19.8745C18.4518 19.8745 18.1655 19.757 17.9532 19.5475L12.0001 13.5944L6.04695 19.5475C5.83466 19.757 5.54837 19.8745 5.25008 19.8745C4.95179 19.8745 4.6655 19.757 4.4532 19.5475C4.34832 19.443 4.26511 19.3188 4.20832 19.182C4.15154 19.0453 4.12231 18.8987 4.12231 18.7506C4.12231 18.6025 4.15154 18.4559 4.20832 18.3192C4.26511 18.1824 4.34832 18.0582 4.4532 17.9537L10.4063 12.0006L4.4532 6.04748C4.24186 5.83614 4.12313 5.54949 4.12313 5.25061C4.12313 5.10262 4.15227 4.95607 4.20891 4.81934C4.26554 4.68262 4.34855 4.55838 4.4532 4.45373C4.55785 4.34909 4.68208 4.26608 4.81881 4.20944C4.95554 4.15281 5.10208 4.12366 5.25008 4.12366C5.54896 4.12366 5.83561 4.24239 6.04695 4.45373L12.0001 10.4069L17.9532 4.45373C18.1645 4.24239 18.4512 4.12366 18.7501 4.12366C19.049 4.12366 19.3356 4.24239 19.547 4.45373C19.7583 4.66508 19.877 4.95172 19.877 5.25061C19.877 5.54949 19.7583 5.83614 19.547 6.04748L13.5938 12.0006L19.547 17.9537Z" fill="black"/>
</svg>
