<svg width="72" height="27" viewBox="0 0 72 27" fill="none" xmlns="http://www.w3.org/2000/svg">
    <path
        d="M16.604 20.42H5.66L3.644 26H0.188L9.26 1.052H13.04L22.076 26H18.62L16.604 20.42ZM15.668 17.756L11.132 5.084L6.596 17.756H15.668ZM38.5938 13.076C39.5058 13.22 40.3338 13.592 41.0778 14.192C41.8458 14.792 42.4458 15.536 42.8778 16.424C43.3338 17.312 43.5618 18.26 43.5618 19.268C43.5618 20.54 43.2378 21.692 42.5898 22.724C41.9418 23.732 40.9938 24.536 39.7458 25.136C38.5218 25.712 37.0698 26 35.3898 26H26.0298V0.907999H35.0298C36.7338 0.907999 38.1858 1.196 39.3858 1.772C40.5858 2.324 41.4858 3.08 42.0858 4.04C42.6858 5 42.9858 6.08 42.9858 7.28C42.9858 8.768 42.5778 10.004 41.7618 10.988C40.9698 11.948 39.9138 12.644 38.5938 13.076ZM29.3058 11.744H34.8138C36.3498 11.744 37.5378 11.384 38.3778 10.664C39.2178 9.944 39.6378 8.948 39.6378 7.676C39.6378 6.404 39.2178 5.408 38.3778 4.688C37.5378 3.968 36.3258 3.608 34.7418 3.608H29.3058V11.744ZM35.1018 23.3C36.7338 23.3 38.0058 22.916 38.9178 22.148C39.8298 21.38 40.2858 20.312 40.2858 18.944C40.2858 17.552 39.8058 16.46 38.8458 15.668C37.8858 14.852 36.6018 14.444 34.9938 14.444H29.3058V23.3H35.1018ZM46.8839 13.436C46.8839 10.988 47.4359 8.792 48.5399 6.848C49.6439 4.88 51.1439 3.344 53.0399 2.24C54.9599 1.136 57.0839 0.583999 59.4119 0.583999C62.1479 0.583999 64.5359 1.244 66.5759 2.564C68.6159 3.884 70.1039 5.756 71.0399 8.18H67.1159C66.4199 6.668 65.4119 5.504 64.0919 4.688C62.7959 3.872 61.2359 3.464 59.4119 3.464C57.6599 3.464 56.0879 3.872 54.6959 4.688C53.3039 5.504 52.2119 6.668 51.4199 8.18C50.6279 9.668 50.2319 11.42 50.2319 13.436C50.2319 15.428 50.6279 17.18 51.4199 18.692C52.2119 20.18 53.3039 21.332 54.6959 22.148C56.0879 22.964 57.6599 23.372 59.4119 23.372C61.2359 23.372 62.7959 22.976 64.0919 22.184C65.4119 21.368 66.4199 20.204 67.1159 18.692H71.0399C70.1039 21.092 68.6159 22.952 66.5759 24.272C64.5359 25.568 62.1479 26.216 59.4119 26.216C57.0839 26.216 54.9599 25.676 53.0399 24.596C51.1439 23.492 49.6439 21.968 48.5399 20.024C47.4359 18.08 46.8839 15.884 46.8839 13.436Z"
        fill="#C62B90" />
</svg>