<svg width="24" height="23" viewBox="0 0 24 23" fill="none" xmlns="http://www.w3.org/2000/svg">
<path d="M14.1522 13.1173C14.0198 13.2182 13.8754 13.3022 13.7222 13.3673C13.4617 13.4721 13.1945 13.5589 12.9222 13.6273C12.8769 13.6366 12.834 13.6551 12.7961 13.6816C12.7582 13.7081 12.7261 13.742 12.7018 13.7813C12.6774 13.8206 12.6614 13.8645 12.6546 13.9102C12.6478 13.9559 12.6503 14.0026 12.6622 14.0473C12.6717 14.0928 12.6901 14.1359 12.7164 14.1742C12.7428 14.2125 12.7765 14.2452 12.8156 14.2703C12.8547 14.2955 12.8984 14.3126 12.9441 14.3206C12.9899 14.3287 13.0368 14.3276 13.0822 14.3173C13.3937 14.2571 13.701 14.177 14.0022 14.0773C14.2215 14.0059 14.4301 13.905 14.6222 13.7773C15.139 13.4407 15.5491 12.9637 15.8042 12.4021C16.0593 11.8406 16.1488 11.2179 16.0622 10.6073C15.9784 9.98276 15.7281 9.39229 15.3375 8.89786C14.9469 8.40343 14.4304 8.02327 13.8422 7.79728C13.3189 7.62176 12.7615 7.57284 12.2156 7.65454C11.6698 7.73624 11.1511 7.94624 10.7022 8.26728C10.267 8.58437 9.91262 8.99946 9.66767 9.47895C9.42271 9.95843 9.29408 10.4889 9.29218 11.0273C9.26932 11.7824 9.52567 12.5194 10.0122 13.0973C10.4675 13.6664 11.1145 14.0503 11.8322 14.1773C11.9141 14.1927 11.9989 14.1765 12.0694 14.132C12.1398 14.0874 12.1909 14.0179 12.2122 13.9373C12.2224 13.8971 12.2243 13.8553 12.2176 13.8144C12.2109 13.7735 12.1958 13.7345 12.1732 13.6997C12.1507 13.665 12.1212 13.6352 12.0866 13.6125C12.052 13.5897 12.013 13.5743 11.9722 13.5673C11.4288 13.4272 10.9535 13.0973 10.6322 12.6373C10.3384 12.1811 10.2178 11.6348 10.2922 11.0973C10.3248 10.7197 10.4425 10.3544 10.6365 10.0288C10.8305 9.7032 11.0957 9.42576 11.4122 9.21728C11.7119 9.01363 12.054 8.88079 12.4126 8.82881C12.7712 8.77684 13.137 8.80709 13.4822 8.91728C13.8756 9.06677 14.2234 9.31585 14.4916 9.64015C14.7598 9.96444 14.9392 10.3528 15.0122 10.7673C15.1035 11.2002 15.0714 11.6501 14.9193 12.0657C14.7672 12.4812 14.5014 12.8456 14.1522 13.1173Z" fill="black"/>
<path d="M4.2223 12.1173C4.5623 11.6973 4.9023 11.2873 5.2223 10.8673C5.7123 10.2473 6.2223 9.60731 6.6623 8.95731C6.69556 8.92472 6.72198 8.88582 6.74002 8.8429C6.75805 8.79997 6.76735 8.75387 6.76735 8.70731C6.76735 8.66074 6.75805 8.61465 6.74002 8.57172C6.72198 8.52879 6.69556 8.4899 6.6623 8.45731C6.59519 8.39254 6.50556 8.35635 6.4123 8.35635C6.31903 8.35635 6.2294 8.39254 6.1623 8.45731C2.9423 11.7173 3.4723 11.1273 3.2123 11.6173C3.21721 11.5775 3.21721 11.5372 3.2123 11.4973C3.01672 10.7194 3.01672 9.9052 3.2123 9.12731C3.44301 8.33901 3.75817 7.57794 4.1523 6.85731C4.81993 5.64306 5.69283 4.55363 6.7323 3.63731C7.75006 2.70669 8.96807 2.02242 10.2923 1.63731C11.5635 1.20887 12.9128 1.06296 14.2462 1.20977C15.5795 1.35658 16.8648 1.79256 18.0123 2.48731C19.1631 3.21011 20.1452 4.17164 20.8922 5.30685C21.6392 6.44205 22.1338 7.72446 22.3423 9.06731C22.3529 9.16013 22.4 9.24494 22.4731 9.30308C22.5462 9.36122 22.6395 9.38792 22.7323 9.37731C22.8251 9.3667 22.9099 9.31965 22.9681 9.24651C23.0262 9.17337 23.0529 9.08013 23.0423 8.98731C22.8765 7.50676 22.3909 6.07993 21.619 4.80565C20.8472 3.53136 19.8076 2.44006 18.5723 1.60731C17.3061 0.798485 15.8772 0.278777 14.3873 0.0851905C12.8974 -0.108396 11.3831 0.0289027 9.95229 0.487309C8.4746 0.954735 7.12577 1.75924 6.0123 2.83731C4.91628 3.88439 4.01852 5.12093 3.3623 6.48731C2.87548 7.42943 2.53812 8.44152 2.3623 9.48731C2.29254 9.97818 2.29254 10.4764 2.3623 10.9673C2.1823 10.7973 1.9923 10.6273 1.8223 10.4473C1.0123 9.56731 0.812295 8.74731 0.552295 8.60731C0.51886 8.58157 0.480664 8.5627 0.439907 8.55178C0.399151 8.54087 0.356637 8.53812 0.314813 8.54369C0.272989 8.54927 0.232681 8.56306 0.196209 8.58428C0.159736 8.60549 0.127819 8.63371 0.102295 8.66731C0.0586207 8.71309 0.0274143 8.7693 0.0116576 8.83057C-0.00409903 8.89185 -0.0038795 8.95614 0.0122952 9.01731C0.161464 9.46903 0.355779 9.90456 0.592295 10.3173C0.785493 10.6676 1.00619 11.002 1.2523 11.3173C1.4823 11.6273 1.7323 11.9173 2.0023 12.2273C2.13271 12.405 2.27293 12.5752 2.4223 12.7373C2.54284 12.8593 2.69003 12.9517 2.8523 13.0073C2.95157 13.0458 3.05849 13.0604 3.16444 13.0499C3.27039 13.0395 3.37241 13.0044 3.4623 12.9473C3.74319 12.6972 3.99785 12.4191 4.2223 12.1173Z" fill="black"/>
<path d="M23.8624 16.7874L23.5224 15.4174C23.4126 14.8473 23.2416 14.2907 23.0124 13.7574C22.9404 13.633 22.8439 13.5245 22.7288 13.4385C22.6136 13.3526 22.4821 13.2909 22.3424 13.2574C22.1174 13.2141 21.8844 13.2494 21.6824 13.3574C21.4557 13.4836 21.2414 13.6309 21.0424 13.7974L18.4124 15.9774C18.3453 16.024 18.2987 16.0945 18.2819 16.1745C18.2652 16.2544 18.2797 16.3377 18.3224 16.4074C18.3447 16.443 18.3739 16.4737 18.4084 16.4976C18.4429 16.5216 18.4819 16.5383 18.5231 16.5467C18.5642 16.5551 18.6067 16.5551 18.6478 16.5466C18.6889 16.5381 18.7279 16.5214 18.7624 16.4974C19.3424 16.1874 19.9924 15.8274 20.5724 15.4974L21.7424 14.7674C21.2511 16.2178 20.4553 17.5464 19.4084 18.664C18.3615 19.7816 17.0876 20.6624 15.6724 21.2474C14.2632 21.7486 12.7548 21.9063 11.2724 21.7074C9.75369 21.4995 8.29932 20.9601 7.01238 20.1274C6.38054 19.735 5.78782 19.283 5.24238 18.7774C4.696 18.2759 4.2185 17.7043 3.82238 17.0774C3.77104 16.9991 3.69193 16.9432 3.601 16.9209C3.51008 16.8986 3.41409 16.9117 3.33238 16.9574C3.25216 17.007 3.19464 17.0862 3.1722 17.1778C3.14976 17.2695 3.16419 17.3663 3.21238 17.4474C3.61511 18.1414 4.10214 18.7829 4.66238 19.3574C5.22204 19.9307 5.83478 20.4497 6.49238 20.9074C7.84437 21.8917 9.40455 22.552 11.0524 22.8374C12.7346 23.1198 14.4618 22.9436 16.0524 22.3274C17.6078 21.6627 18.9865 20.644 20.0785 19.3523C21.1705 18.0606 21.9458 16.5317 22.3424 14.8874C22.4524 15.2374 22.5424 15.6574 22.6024 15.7874L23.0924 16.9674C23.2424 17.4474 23.3924 17.5674 23.4024 17.5674C23.435 17.6006 23.4739 17.627 23.5168 17.6451C23.5597 17.6631 23.6058 17.6724 23.6524 17.6724C23.6989 17.6724 23.745 17.6631 23.788 17.6451C23.8309 17.627 23.8698 17.6006 23.9024 17.5674C23.9673 17.4814 23.9993 17.3749 23.9924 17.2674C23.965 17.1035 23.9214 16.9427 23.8624 16.7874Z" fill="black"/>
</svg>
