<svg width="275" height="581" viewBox="0 0 275 581" fill="none" xmlns="http://www.w3.org/2000/svg">
    <g opacity="0.5">
        <path
            d="M270.734 62.1947C281.378 32.9558 324.007 37.2559 328.597 68.0313L336.784 122.933C339.267 139.58 354.955 150.927 371.542 148.074L423.493 139.137C451.888 134.252 470.173 168.309 450.412 189.277L396.57 246.409C387.246 256.303 385.741 271.229 392.901 282.785L434.248 349.519C449.424 374.011 424.706 403.731 397.858 393.274L348.739 374.142C333.056 368.033 315.417 376.019 309.66 391.834L290.674 443.995C280.031 473.234 237.401 468.934 232.811 438.159L224.624 383.257C222.141 366.61 206.453 355.263 189.866 358.116L137.915 367.053C109.52 371.938 91.2354 337.881 110.996 316.913L164.838 259.781C174.162 249.887 175.667 234.961 168.507 223.405L127.16 156.671C111.984 132.179 136.702 102.459 163.55 112.916L212.669 132.048C228.352 138.157 245.991 130.171 251.748 114.355L270.734 62.1947Z"
            fill="#C62B90" />
        <path
            d="M263.526 141.283C273.461 113.997 313.244 118.01 317.53 146.73L317.882 149.092C320.531 166.846 337.263 178.948 354.954 175.907L362.528 174.605C389.032 170.048 406.093 201.84 387.645 221.407L367.954 242.293C358.004 252.847 356.397 268.775 364.039 281.104L379.163 305.501C393.332 328.359 370.265 356.103 345.204 346.345L338.043 343.556C321.316 337.043 302.505 345.56 296.363 362.427L295.546 364.672C285.611 391.957 245.828 387.945 241.542 359.224L241.19 356.862C238.54 339.108 221.809 327.006 204.118 330.048L196.544 331.35C170.04 335.906 152.979 304.115 171.427 284.547L191.118 263.662C201.068 253.107 202.675 237.179 195.033 224.85L179.909 200.453C165.74 177.596 188.807 149.851 213.868 159.609L221.029 162.398C237.756 168.911 256.567 160.394 262.709 143.527L263.526 141.283Z"
            fill="#C62B90" stroke="#BB017A" stroke-width="4" />
    </g>
</svg>