<svg width="24" height="24" viewBox="0 0 24 24" fill="none" xmlns="http://www.w3.org/2000/svg">
<path d="M13.5 19.5H19.5V21H13.5V19.5ZM13.5 16.5H22.5V18H13.5V16.5ZM13.5 13.5H22.5V15H13.5V13.5Z" fill="black"/>
<path d="M15.4117 8.41275L12 1.5L8.58821 8.41275L0.959961 9.52125L6.47996 14.9025L5.17646 22.5L10.5 19.7017V18.0068L7.16921 19.758L7.95821 15.156L8.09171 14.3783L7.52696 13.8285L4.18346 10.5682L8.80421 9.897L9.58421 9.78375L9.93371 9.0765L12 4.88925L14.0662 9.0765L14.4157 9.78375L15.1957 9.897L20.7862 10.7108L21 9.225L15.4117 8.41275Z" fill="black"/>
</svg>
