<svg width="284" height="283" viewBox="0 0 284 283" fill="none" xmlns="http://www.w3.org/2000/svg">
<path opacity="0.5" d="M16.8779 116.682C22.7733 87.7182 62.5813 83.8356 73.9621 111.114L80.169 125.992C86.2241 140.505 102.459 147.88 117.373 142.891L132.66 137.777C160.691 128.401 183.958 160.934 166.024 184.43L156.243 197.244C146.702 209.744 148.433 227.491 160.21 237.913L172.282 248.595C194.418 268.183 177.876 304.599 148.562 300.815L132.574 298.752C116.978 296.739 102.474 307.112 99.3372 322.522L96.122 338.318C90.2266 367.282 50.4186 371.164 39.0378 343.886L32.8309 329.008C26.7758 314.495 10.541 307.12 -4.37276 312.109L-19.6603 317.223C-47.6913 326.599 -70.9577 294.065 -53.024 270.57L-43.2434 257.756C-33.7019 245.255 -35.4329 227.508 -47.21 217.087L-59.2823 206.405C-81.4179 186.817 -64.8763 150.401 -35.5618 154.184L-19.5743 156.248C-3.97775 158.261 10.5261 147.888 13.6627 132.478L16.8779 116.682Z" fill="#C62B90"/>
<path opacity="0.5" d="M26.6501 148.351C30.6194 125.495 62.1827 122.416 70.4938 144.075C75.741 157.749 91.1192 164.619 104.858 159.644C126.473 151.818 145.7 176.098 132.868 194.908L128.619 201.137C120.441 213.126 122.014 229.248 132.354 239.43L137.727 244.721C153.951 260.697 139.778 288.235 117.058 284.733C102.617 282.507 88.8561 292.218 86.3501 306.649C82.3807 329.505 50.8174 332.584 42.5063 310.925C37.2591 297.251 21.8809 290.381 8.14195 295.356C-13.4728 303.182 -32.7 278.902 -19.8683 260.092L-15.619 253.862C-7.44111 241.874 -9.01358 225.752 -19.3538 215.57L-24.7267 210.279C-40.9512 194.303 -26.7779 166.765 -4.05832 170.267C10.3829 172.493 24.144 162.782 26.6501 148.351Z" fill="#C62B90" stroke="#BB017A" stroke-width="4"/>
</svg>
