<svg width="24" height="24" viewBox="0 0 24 24" fill="none" xmlns="http://www.w3.org/2000/svg">
<path d="M23.292 11.496L12.492 0.696001C12.042 0.249696 11.4338 -0.000504989 10.8 7.65255e-07H2.4C1.76348 7.65255e-07 1.15303 0.252857 0.702944 0.702944C0.252857 1.15303 7.53516e-07 1.76348 7.53516e-07 2.4V10.8C-0.00025019 11.1167 0.06218 11.4303 0.183693 11.7228C0.305206 12.0152 0.483399 12.2807 0.708001 12.504L11.508 23.304C11.958 23.7503 12.5662 24.0005 13.2 24C13.8355 23.9973 14.444 23.7427 14.892 23.292L23.292 14.892C23.7427 14.444 23.9973 13.8355 24 13.2C24.0002 12.8833 23.9378 12.5697 23.8163 12.2772C23.6948 11.9848 23.5166 11.7193 23.292 11.496ZM13.2 21.6L2.4 10.8V2.4H10.8L21.6 13.2M5.4 3.6C5.75601 3.6 6.10402 3.70557 6.40003 3.90336C6.69604 4.10114 6.92675 4.38226 7.06298 4.71117C7.19922 5.04008 7.23487 5.402 7.16541 5.75116C7.09596 6.10033 6.92453 6.42106 6.67279 6.67279C6.42106 6.92453 6.10033 7.09596 5.75116 7.16541C5.402 7.23487 5.04008 7.19922 4.71117 7.06298C4.38226 6.92675 4.10114 6.69604 3.90336 6.40003C3.70557 6.10402 3.6 5.75601 3.6 5.4C3.6 4.92261 3.78964 4.46477 4.12721 4.12721C4.46477 3.78964 4.92261 3.6 5.4 3.6Z" fill="black"/>
</svg>
