<svg width="102" height="31" viewBox="0 0 102 31" fill="none" xmlns="http://www.w3.org/2000/svg">
<path opacity="0.15" d="M29.6125 28.6469C29.6125 29.1812 23.7093 29.6125 16.4156 29.6125C9.12194 29.6125 3.21875 29.1812 3.21875 28.6469C3.21875 28.1126 9.09619 27.6813 16.3834 27.6813C23.6707 27.6813 29.6125 28.1126 29.6125 28.6469Z" fill="#45413C"/>
<path d="M21.8425 6.93322H18.6238L19.4027 3.43122C19.4329 3.25311 19.4252 3.07066 19.3802 2.89572C19.3352 2.72077 19.2539 2.55726 19.1416 2.41579C19.0293 2.27432 18.8884 2.15807 18.7282 2.0746C18.568 1.99113 18.3921 1.94229 18.2118 1.93128C16.0793 1.92925 13.9867 2.51026 12.1605 3.61147H6.77879C5.32799 3.61144 3.93614 4.18556 2.90727 5.2084C1.87839 6.23125 1.2961 7.6197 1.2876 9.07047V18.6688C1.28909 19.9503 1.74137 21.1904 2.56523 22.172C3.38909 23.1536 4.53202 23.814 5.79385 24.0377C5.91306 24.0543 6.03447 24.0451 6.14978 24.0106C6.2651 23.976 6.37161 23.917 6.46205 23.8376C6.55249 23.7582 6.62473 23.6602 6.67383 23.5503C6.72294 23.4403 6.74776 23.3211 6.7466 23.2008V22.5313C6.75024 22.389 6.71575 22.2482 6.6467 22.1237C6.57766 21.9992 6.47657 21.8954 6.35391 21.8232C5.83701 21.5331 5.40659 21.1107 5.1068 20.5994C4.80701 20.088 4.64866 19.5061 4.64797 18.9134V17.819C4.64772 17.5777 4.72001 17.3418 4.85547 17.1421C4.99092 16.9424 5.18329 16.788 5.4076 16.6989L8.62635 15.4114C8.86111 17.0757 9.71093 18.5916 11.0082 19.6602C11.1054 19.7377 11.1845 19.8354 11.2401 19.9466C11.2957 20.0577 11.3264 20.1797 11.3301 20.3039V27.4882C11.3301 27.7101 11.4183 27.923 11.5752 28.0799C11.7322 28.2369 11.945 28.325 12.167 28.325H15.5209C15.7429 28.325 15.9557 28.2369 16.1127 28.0799C16.2696 27.923 16.3578 27.7101 16.3578 27.4882V22.0356C16.3578 21.9248 16.3796 21.8152 16.422 21.7129C16.4644 21.6106 16.5265 21.5176 16.6048 21.4393C16.6831 21.361 16.7761 21.2989 16.8784 21.2565C16.9807 21.2141 17.0904 21.1923 17.2011 21.1923H24.3532V27.4882C24.3549 27.7107 24.4445 27.9235 24.6024 28.0803C24.7604 28.2371 24.9739 28.325 25.1965 28.325H28.5504C28.7724 28.325 28.9852 28.2369 29.1422 28.0799C29.2991 27.923 29.3873 27.7101 29.3873 27.4882V14.478C29.3873 12.477 28.5924 10.5579 27.1775 9.14302C25.7626 7.72811 23.8435 6.93322 21.8425 6.93322Z" fill="#C0DCEB"/>
<path d="M6.77879 5.46547H12.1605C13.986 4.36316 16.0794 3.78413 18.2118 3.79172C18.4081 3.7932 18.601 3.84267 18.7738 3.93579C18.9466 4.02892 19.094 4.16289 19.2032 4.32603L19.4027 3.43122C19.4329 3.25311 19.4252 3.07066 19.3802 2.89572C19.3352 2.72077 19.2539 2.55726 19.1416 2.41579C19.0293 2.27432 18.8884 2.15807 18.7282 2.0746C18.568 1.99113 18.3921 1.94229 18.2118 1.93128C16.0793 1.92925 13.9867 2.51026 12.1605 3.61147H6.77879C5.32799 3.61144 3.93614 4.18556 2.90727 5.2084C1.87839 6.23125 1.2961 7.6197 1.2876 9.07047V10.9438C1.29101 9.48966 1.87105 8.09626 2.90047 7.06924C3.9299 6.04223 5.32466 5.46546 6.77879 5.46547ZM21.8425 6.93322H18.6238L18.2053 8.81941H21.8425C23.8441 8.82111 25.7631 9.61743 27.1779 11.0334C28.5926 12.4493 29.3873 14.369 29.3873 16.3706V14.478C29.3873 12.477 28.5924 10.5579 27.1775 9.14302C25.7626 7.72811 23.8435 6.93322 21.8425 6.93322Z" fill="#DAEDF7"/>
<path d="M21.8425 6.93322H18.6238L19.4027 3.43122C19.4329 3.25311 19.4252 3.07066 19.3802 2.89572C19.3352 2.72077 19.2539 2.55726 19.1416 2.41579C19.0293 2.27432 18.8884 2.15807 18.7282 2.0746C18.568 1.99113 18.3921 1.94229 18.2118 1.93128C16.0793 1.92925 13.9867 2.51026 12.1605 3.61147H6.77879C5.32799 3.61144 3.93614 4.18556 2.90727 5.2084C1.87839 6.23125 1.2961 7.6197 1.2876 9.07047V18.6688C1.28909 19.9503 1.74137 21.1904 2.56523 22.172C3.38909 23.1536 4.53202 23.814 5.79385 24.0377C5.91306 24.0543 6.03447 24.0451 6.14978 24.0106C6.2651 23.976 6.37161 23.917 6.46205 23.8376C6.55249 23.7582 6.62473 23.6602 6.67383 23.5503C6.72294 23.4403 6.74776 23.3211 6.7466 23.2008V22.5313C6.75024 22.389 6.71575 22.2482 6.6467 22.1237C6.57766 21.9992 6.47657 21.8954 6.35391 21.8232C5.83701 21.5331 5.40659 21.1107 5.1068 20.5994C4.80701 20.088 4.64866 19.5061 4.64797 18.9134V17.819C4.64772 17.5777 4.72001 17.3418 4.85547 17.1421C4.99092 16.9424 5.18329 16.788 5.4076 16.6989L8.62635 15.4114C8.86111 17.0757 9.71093 18.5916 11.0082 19.6602C11.1054 19.7377 11.1845 19.8354 11.2401 19.9466C11.2957 20.0577 11.3264 20.1797 11.3301 20.3039V27.4882C11.3301 27.7101 11.4183 27.923 11.5752 28.0799C11.7322 28.2369 11.945 28.325 12.167 28.325H15.5209C15.7429 28.325 15.9557 28.2369 16.1127 28.0799C16.2696 27.923 16.3578 27.7101 16.3578 27.4882V22.0356C16.3578 21.9248 16.3796 21.8152 16.422 21.7129C16.4644 21.6106 16.5265 21.5176 16.6048 21.4393C16.6831 21.361 16.7761 21.2989 16.8784 21.2565C16.9807 21.2141 17.0904 21.1923 17.2011 21.1923H24.3532V27.4882C24.3549 27.7107 24.4445 27.9235 24.6024 28.0803C24.7604 28.2371 24.9739 28.325 25.1965 28.325H28.5504C28.7724 28.325 28.9852 28.2369 29.1422 28.0799C29.2991 27.923 29.3873 27.7101 29.3873 27.4882V14.478C29.3873 12.477 28.5924 10.5579 27.1775 9.14302C25.7626 7.72811 23.8435 6.93322 21.8425 6.93322Z" stroke="#45413C" stroke-width="0.5" stroke-linecap="round" stroke-linejoin="round"/>
<path d="M23.0979 13.229C22.7116 14.2567 22.5905 15.3652 22.7458 16.4521C22.9011 17.539 23.3277 18.5692 23.9863 19.4477C24.2249 19.765 24.3537 20.1514 24.3533 20.5485V21.1922M9.25732 5.67785L11.1886 4.22941C13.2073 2.72871 15.6579 1.9224 18.1733 1.93122C18.3601 1.93622 18.5437 1.98185 18.7112 2.06495C18.8786 2.14805 19.026 2.26662 19.143 2.41243C19.26 2.55823 19.3439 2.72777 19.3887 2.90925C19.4336 3.09074 19.4384 3.27982 19.4028 3.46335L17.7613 10.8085C17.6104 11.4939 17.2302 12.1072 16.6836 12.5473C16.137 12.9874 15.4567 13.2279 14.7549 13.229H11.4654C10.8798 13.229 10.3181 12.9964 9.90405 12.5823C9.48996 12.1682 9.25732 11.6066 9.25732 11.021" stroke="#45413C" stroke-width="0.5" stroke-linecap="round" stroke-linejoin="round"/>
<path d="M11.465 13.2291H14.7546C15.4563 13.2279 16.1366 12.9874 16.6832 12.5473C17.2298 12.1073 17.61 11.4939 17.7609 10.8086L19.0934 4.82814C18.9773 4.69892 18.8354 4.59549 18.6768 4.52453C18.5183 4.45356 18.3466 4.41664 18.1729 4.41614C15.6516 4.41521 13.1982 5.23301 11.1817 6.74651L9.25049 8.19495V11.021C9.25049 11.3115 9.30781 11.5992 9.41918 11.8675C9.53055 12.1358 9.69377 12.3795 9.89949 12.5846C10.1052 12.7898 10.3494 12.9523 10.618 13.0628C10.8867 13.1734 11.1745 13.2299 11.465 13.2291Z" fill="#FFCCDD"/>
<path d="M18.1729 6.55339C18.3483 6.55298 18.5217 6.5903 18.6814 6.66283L19.0934 4.82814C18.9773 4.69892 18.8354 4.59549 18.6768 4.52453C18.5183 4.45356 18.3466 4.41664 18.1729 4.41614C15.6516 4.41521 13.1982 5.23301 11.1817 6.74651L9.25049 8.19495V10.3322L11.1817 8.88376C13.1982 7.37026 15.6516 6.55246 18.1729 6.55339Z" fill="#FFB0CA"/>
<path d="M1.2876 13.6475H2.96779M1.2876 15.3213H2.96779M1.2876 17.0015H2.54291M11.4653 13.2291H14.7548C15.4566 13.2279 16.1369 12.9874 16.6835 12.5473C17.2301 12.1073 17.6103 11.4939 17.7612 10.8086L19.0937 4.82814C18.9776 4.69892 18.8357 4.59549 18.6771 4.52453C18.5186 4.45356 18.3469 4.41664 18.1732 4.41614C15.6519 4.41521 13.1985 5.23301 11.182 6.74651L9.25079 8.19495V11.021C9.25078 11.3115 9.30811 11.5992 9.41948 11.8675C9.53085 12.1358 9.69407 12.3795 9.89979 12.5846C10.1055 12.7898 10.3497 12.9523 10.6183 13.0628C10.887 13.1734 11.1748 13.2299 11.4653 13.2291Z" stroke="#45413C" stroke-width="0.5" stroke-linecap="round" stroke-linejoin="round"/>
<path d="M8.65186 15.3985C8.65186 15.3985 10.699 14.6517 10.4994 13.0037" stroke="#45413C" stroke-width="0.5" stroke-linecap="round" stroke-linejoin="round"/>
<path d="M5.87758 10.8987C5.84106 11.0596 5.75781 11.206 5.63829 11.3197C5.51878 11.4334 5.36833 11.5093 5.20585 11.5377C5.04337 11.5662 4.87611 11.546 4.72507 11.4797C4.57403 11.4134 4.44596 11.3039 4.35694 11.165C4.26792 11.0262 4.22192 10.8641 4.22473 10.6992C4.22754 10.5342 4.27903 10.3738 4.37272 10.238C4.46642 10.1023 4.59814 9.99724 4.75135 9.93611C4.90456 9.87498 5.07242 9.86049 5.23383 9.89447C5.34247 9.91733 5.44547 9.96158 5.53684 10.0246C5.62821 10.0877 5.70612 10.1683 5.76603 10.2618C5.82594 10.3552 5.86666 10.4597 5.88581 10.569C5.90496 10.6784 5.90217 10.7905 5.87758 10.8987Z" fill="#45413C"/>
<path d="M8.36893 12.9522C8.28455 13.1373 8.13751 13.2866 7.95376 13.3737C7.77001 13.4609 7.56137 13.4803 7.36468 13.4286C6.91406 13.3513 6.63724 13.0037 6.72093 12.6561C6.80751 12.4714 6.95587 12.3227 7.1404 12.2357C7.32493 12.1487 7.53404 12.1289 7.73162 12.1797C8.21443 12.2312 8.49768 12.6046 8.36893 12.9522Z" fill="#FFB0CA"/>
<g clip-path="url(#clip0_121_2193)">
<path d="M50.2971 1.25296C47.1852 0.326941 43.0008 1.83303 42.036 5.28186C41.8877 5.80921 41.7455 6.65928 41.9588 7.18241C42.2838 7.98819 42.9744 8.63999 43.7341 8.95007C44.4572 9.24538 45.5521 9.34452 46.2244 9.81702C47.2279 10.5237 45.9136 12.1479 45.4404 12.7617C44.439 14.0653 43.5066 15.3921 42.5397 16.7273C41.709 17.8748 40.8477 19.1869 40.5958 20.6255C39.8402 24.9539 44.4268 26.749 47.7824 26.2976C50.7521 25.8989 53.1876 23.9308 55.0522 21.5916C55.3326 21.2393 55.6819 20.3597 56.1105 20.2141C56.854 19.9631 56.6569 20.8976 56.7016 21.4945C56.728 21.8742 56.7951 22.2307 56.8824 22.5977C57.246 24.1481 58.7796 25.1564 60.2482 25.0425C62.3119 24.8843 63.3336 22.8129 63.7846 20.9587C64.0182 19.999 64.0568 18.8873 63.7257 17.9487C63.6282 17.6744 63.5957 17.4361 63.2727 17.4783C62.8461 17.5373 62.7466 18.0014 62.5841 18.3326C62.3201 18.8789 61.9829 19.459 61.5888 19.9146C60.9124 20.7035 60.8616 20.0728 60.8352 19.3535C60.7641 17.2251 60.303 14.753 58.3977 13.5633C55.2574 11.6016 52.1313 16.3793 50.3438 18.3916C50.0127 18.7734 47.9916 20.9819 47.6727 19.5201C47.5285 18.8683 48.4365 18.0183 48.8305 17.6238C51.6276 14.812 54.8674 10.53 54.388 6.22686C54.1361 3.93608 52.4238 1.88577 50.2971 1.25296Z" fill="#BDCF46"/>
<path d="M48.9932 4.81362C49.0074 5.37683 49.4278 5.81347 49.9275 5.79659C50.4313 5.77339 50.8294 5.29878 50.8132 4.73558C50.7969 4.17448 50.3764 3.73151 49.8747 3.75472C49.373 3.7737 48.9769 4.25042 48.9932 4.81362Z" fill="#2F2F2F"/>
<path d="M42.8468 7.45243C42.8325 7.46508 42.8183 7.47985 42.8041 7.49251C42.3958 7.92282 42.1094 8.4586 41.6361 8.82352C40.9069 9.38461 40.0071 9.51329 39.1357 9.30868C38.8919 9.25172 38.1769 8.80665 38.1241 9.27493C38.0591 9.86555 39.2718 10.1461 39.678 10.1883C39.8994 10.2094 40.1736 10.1735 40.3727 10.3001C40.7464 10.5363 40.1838 11.0995 39.9644 11.2514C39.7146 11.4202 39.4607 11.5362 39.1682 11.5889C38.9082 11.6374 38.51 11.5509 38.3252 11.7956C38.0103 12.2112 39.0768 12.2977 39.2921 12.285C40.3199 12.2302 41.1872 11.4518 41.7824 10.6355C42.2211 10.0343 42.8 9.55969 43.2489 8.96907C43.4216 8.73704 43.6491 8.41852 43.903 8.27719C44.0736 8.18227 44.3621 8.09368 44.3702 7.85532C44.3783 7.66547 44.2361 7.56422 44.098 7.47141C43.7669 7.25204 43.1677 7.18032 42.8468 7.45243Z" fill="#ED6C30"/>
<path d="M63.0493 22.834C62.7872 22.7792 62.2876 23.6524 61.5015 24.087C60.7133 24.5236 59.7972 24.5025 58.6963 23.9857C57.8168 23.5744 57.7111 21.792 57.8554 20.4082C58.0118 18.8831 57.6705 18.147 56.8316 18.0373C55.9358 17.9213 55.1782 19.8893 53.4719 22.0978C51.786 24.2789 48.7594 25.1543 47.9144 25.2661C46.7424 25.3062 45.3916 25.3188 44.1972 23.3698C42.8708 21.2035 44.4146 18.263 45.5907 16.3203C46.3301 15.1917 49.1251 11.7809 49.4013 10.4478C49.5618 9.6715 49.1535 8.46072 47.7458 8.39533C45.3449 8.28564 44.6502 9.22431 44.6482 9.22642C45.2108 9.36986 45.7999 9.51752 46.2244 9.81916C47.106 10.4414 46.2001 11.7682 45.6455 12.4981C45.5683 12.5993 45.4993 12.69 45.4404 12.7638C44.439 14.0674 43.5066 15.3942 42.5397 16.7295C41.709 17.877 40.8477 19.189 40.5958 20.6276C39.8402 24.956 44.4268 26.7511 47.7824 26.2997C48.2618 26.2343 48.7229 26.112 49.1738 25.9685C51.5199 25.2366 53.4902 23.5554 55.0543 21.5958C55.3346 21.2435 55.684 20.3639 56.1126 20.2184C56.856 19.9674 56.659 20.9018 56.7036 21.4988C56.7301 21.8785 56.7971 22.2349 56.8844 22.602C57.248 24.1524 58.7816 25.1606 60.2502 25.0467C61.603 24.9434 62.5029 24.011 63.0919 22.8635C63.0757 22.8551 63.0676 22.8361 63.0493 22.834Z" fill="#E5DDA0"/>
</g>
<path d="M99.1034 10.2356C100.986 8.98032 101.035 7.14564 101.035 7.14564C99.1517 7.04907 99.2 5.11782 97.4619 3.3797C95.1444 1.0622 92.1992 2.51064 92.1992 2.51064C92.344 1.78642 91.9578 1.35189 92.2475 0.965637C88.2884 0.965637 86.5503 2.65548 86.5503 2.65548C86.5503 2.65548 84.8122 0.965637 80.8531 0.965637C81.0945 1.35189 80.7565 1.78642 80.9014 2.51064C80.9014 2.51064 77.9079 1.01392 75.6387 3.3797C73.9006 5.16611 73.9489 7.09736 72.0659 7.14564C72.0659 7.14564 72.1142 8.98032 73.9972 10.2356C73.9972 10.2356 72.0176 12.1186 72.3556 16.0777C72.3556 16.0777 73.1281 15.112 75.0111 14.7741C72.8384 16.6088 74.0937 19.3125 72.5004 21.1472C72.5004 21.1472 74.7214 21.63 75.6387 21.0024C75.3008 23.851 77.0389 24.9614 77.0389 26.3616C79.0184 25.7339 79.3081 23.7544 79.3081 23.7544C79.3081 27.3755 80.5634 27.2306 80.5634 29.1619C80.5634 29.1619 82.7361 28.8239 83.6534 26.9892C83.9914 28.6791 85.7295 28.8722 86.6469 29.9344C87.5642 28.8722 89.254 28.6791 89.6403 26.9892C90.5576 28.7756 92.7303 29.1619 92.7303 29.1619C92.7303 27.2306 93.9856 27.3755 93.9856 23.7544C93.9856 23.7544 94.2753 25.6856 96.2548 26.3616C96.2548 24.9614 97.9929 23.851 97.655 21.0024C98.5723 21.63 100.793 21.1472 100.793 21.1472C99.2 19.2642 100.455 16.5605 98.2826 14.7741C100.117 15.1603 100.938 16.0777 100.938 16.0777C101.083 12.0703 99.1034 10.2356 99.1034 10.2356Z" fill="#8F6B51"/>
<path d="M97.9929 3.42794C96.7376 2.41404 93.1165 3.5245 91.7163 5.26263C93.4062 5.842 95.3857 7.29044 96.8824 10.7667C100.021 9.22169 99.2965 4.49013 97.9929 3.42794Z" fill="#E5BC5E"/>
<path d="M96.2064 9.41482C98.0411 8.64232 97.6549 6.03514 96.9306 5.45576C96.303 4.92467 94.4683 5.45576 93.6958 6.32483C94.5649 7.00076 95.4339 8.01467 96.2064 9.41482Z" fill="#3E4347"/>
<path d="M81.3841 5.26263C79.984 3.5245 76.3629 2.41404 75.1075 3.42794C73.804 4.49013 73.0315 9.22169 76.218 10.7667C77.763 7.33872 79.6943 5.842 81.3841 5.26263Z" fill="#E5BC5E"/>
<path d="M76.8938 9.41482C77.6663 8.01467 78.5354 7.00076 79.4045 6.32483C78.5837 5.45576 76.7973 4.92467 76.1696 5.45576C75.4454 6.03514 75.0591 8.64232 76.8938 9.41482Z" fill="#3E4347"/>
<path d="M94.7097 13.8567C94.9511 12.7945 93.9372 10.3322 93.0198 9.84936C92.875 9.7528 92.2956 9.84936 92.2956 9.84936C92.1025 9.60795 91.1851 6.95248 88.7711 6.46967C87.3226 6.22826 86.5501 7.4353 86.5501 7.4353C86.5501 7.4353 85.7776 6.17998 84.3292 6.46967C81.9151 6.9042 80.9495 9.60795 80.8047 9.84936C80.8047 9.84936 80.2253 9.7528 80.0805 9.84936C79.1631 10.3805 78.1975 12.7945 78.3906 13.8567C78.6803 15.1603 80.9495 16.4639 80.9495 18.6848H92.2473C92.199 16.4639 94.4683 15.1603 94.7097 13.8567Z" fill="#E5BC5E"/>
<path d="M86.55 7.91815L85.9224 9.17346L86.55 13.0842L87.1777 9.17346L86.55 7.91815Z" fill="white"/>
<path d="M91.8129 12.5531C91.8129 13.3739 91.2818 14.0016 90.6542 14.0016C90.0265 14.0016 89.4954 13.3739 89.4954 12.5531C89.4954 11.7323 90.0265 11.1047 90.6542 11.1047C91.2818 11.1047 91.8129 11.7806 91.8129 12.5531ZM81.2876 12.5531C81.2876 13.3739 81.8187 14.0016 82.4463 14.0016C83.074 14.0016 83.6051 13.3739 83.6051 12.5531C83.6051 11.7323 83.074 11.1047 82.4463 11.1047C81.8187 11.1047 81.2876 11.7806 81.2876 12.5531Z" fill="#3E4347"/>
<path d="M80.9976 20.1816C80.9976 23.2716 84.7152 25.6374 84.7152 25.6374C84.6669 25.0097 84.8601 24.5269 84.8601 24.5269C85.0049 25.4442 85.4394 26.1202 85.4394 26.1202C85.4394 25.3477 85.8257 25.0097 85.8257 25.0097C86.2119 26.0719 86.5982 26.5064 86.5982 26.5064C86.5982 26.5064 86.9844 26.0719 87.3707 25.0097C87.3707 25.0097 87.7569 25.3477 87.7569 26.1202C87.7569 26.1202 88.1915 25.4442 88.3363 24.5269C88.3363 24.5269 88.5294 25.058 88.4812 25.6374C88.4812 25.6374 92.1988 23.2716 92.1988 20.1816H80.9976Z" fill="white"/>
<path d="M92.0057 17.6227C91.8609 17.333 89.3985 15.3535 89.3985 15.3535H83.7013C83.7013 15.3535 81.2873 17.2847 81.0941 17.6227C80.8527 18.1055 80.8045 19.6505 80.9976 20.1333C80.9976 20.1333 83.3634 23.7061 86.5499 20.6161C89.7365 23.7061 92.1023 20.1333 92.1023 20.1333C92.2954 19.6505 92.2471 18.1055 92.0057 17.6227Z" fill="#FFDA87"/>
<path d="M87.0328 20.6161V17.7675L88.8675 16.995C89.1571 16.8502 89.3986 16.5122 89.3986 16.2225V15.4017H83.7014V16.2225C83.7014 16.5122 83.9428 16.8502 84.2325 16.995L86.0671 17.7675V20.6161C83.6531 22.837 81.2873 20.423 81.0459 20.1816C81.3356 20.6161 83.6531 24.4786 86.5982 21.4369C89.4951 24.4786 91.8609 20.5678 92.1506 20.1816C91.8609 20.4713 89.4468 22.8853 87.0328 20.6161Z" fill="#3E4347"/>
<path d="M89.3989 15.4017C88.6264 14.0016 88.5298 13.905 87.8539 13.567C87.2745 13.3256 85.8744 13.3256 85.295 13.567C84.6191 13.8567 84.5225 14.0016 83.75 15.4017H89.3989Z" fill="#FFDA87"/>
<path d="M86.5503 14.6292C84.7156 14.6292 83.7017 15.4017 83.7017 15.4017C83.7017 15.4017 83.7982 15.3534 84.8121 16.0776C85.4398 16.5605 85.9709 17.8158 86.5503 17.8158C87.1296 17.8158 87.6607 16.5605 88.2884 16.0776C89.3023 15.3051 89.3988 15.4017 89.3988 15.4017C89.3988 15.4017 88.3849 14.6292 86.5503 14.6292Z" fill="#AF7751"/>
<defs>
<clipPath id="clip0_121_2193">
<rect width="26" height="27" fill="white" transform="translate(38)"/>
</clipPath>
</defs>
</svg>
