<svg width="98" height="37" viewBox="0 0 98 37" fill="none" xmlns="http://www.w3.org/2000/svg">
<path d="M96.069 26.0854C95.8183 26.6485 94.7693 26.6127 94.1909 26.4147C92.7131 25.9089 91.7938 24.53 91.7938 24.53L84.176 21.0231L81.8427 19.6942C81.8427 19.6942 81.3897 18.8593 82.2958 18.2223C83.2018 17.5853 83.8374 17.5376 83.8374 17.5376L86.4631 19.3507C86.4631 19.3507 88.1587 17.9193 89.8806 17.7022C91.5255 17.497 93.5729 18.9475 94.1117 21.6863C94.5494 23.9073 95.2421 24.6898 95.451 24.9785C95.6599 25.2695 96.2845 25.6035 96.069 26.0854Z" fill="#FF8E00"/>
<path d="M86.9425 11.0629C86.2674 8.63903 85.4141 5.80247 84.1254 4.8315C82.9841 3.97266 81.8735 4.12773 81.3457 4.50228C81.3457 4.50228 80.3935 4.92454 80.1428 5.99094C79.7294 7.74202 80.2726 9.84379 80.6266 12.0147C80.9807 14.1857 81.1654 15.6791 81.3259 17.4231C81.3413 17.5805 84.0001 22.7145 84.0001 22.7145L86.1223 23.9479C86.1223 23.9479 87.743 20.1451 87.7188 19.6083C87.6968 19.0692 87.4351 12.833 86.9425 11.0629Z" fill="#FFE4B4"/>
<path d="M81.4073 19.3626C81.3787 19.9423 82.6674 24.5634 82.6674 24.5634L86.1244 23.9431C86.1244 23.9431 88.5765 22.3686 88.6447 19.5129C88.7502 15.2068 88.0707 13.179 87.5781 11.4088C86.9007 8.98973 85.3921 5.80247 84.1144 4.81481C83.3645 4.23509 82.5333 4.14921 82.1924 4.22078C82.1924 4.22078 84.4619 6.1484 85.6098 9.44539C86.7578 12.7424 87.0283 16.5523 87.0283 16.5523C87.0283 16.5523 86.1838 17.2274 84.1914 17.5376C82.652 17.7785 81.3237 17.3706 81.3237 17.3706C81.3237 17.3706 81.4447 18.6278 81.4073 19.3626Z" fill="#FFE265"/>
<path d="M88.6161 23.3729L87.2329 20.2381L87.3076 19.1217C87.3076 19.1217 87.6023 18.1841 85.7616 19.699C84.9084 20.4004 84.3938 21.6934 84.3938 21.6934C84.3938 21.6934 84.1343 20.9968 83.2238 20.0759C82.4146 19.26 81.326 18.864 81.326 18.864C81.326 18.864 79.0653 18.3869 78.819 18.5944C77.2246 19.9447 76.059 21.5884 76.059 21.5884L74.8869 26.3956L72.9385 27.691C72.9385 27.691 73.4707 28.5355 74.2404 28.2206C74.8407 27.9749 75.584 27.2377 75.9843 26.3097C76.5341 25.0333 77.6886 22.619 78.2758 21.8556C79.4105 20.3861 80.5233 19.8493 81.3524 20.2763C82.2958 20.7606 81.5415 25.594 81.5415 25.594L75.4763 31.1311L75.3729 31.885C75.3729 31.885 76.2548 32.8035 78.6848 32.7176C81.1149 32.6317 84.3652 31.656 86.4214 28.6142C88.2357 25.9327 88.6161 23.3729 88.6161 23.3729Z" fill="#FFA726"/>
<path d="M83.8332 23.6616C83.886 24.9856 83.1251 26.992 81.3658 28.6643C79.6087 30.3367 77.7526 30.8901 76.6003 30.9856C75.7646 31.0547 75.5161 30.5371 75.5161 30.5371C75.5161 30.5371 77.2007 28.8552 78.452 27.5073C79.6395 26.2262 80.9326 23.5351 81.2141 22.297C81.4956 21.0588 81.2405 20.2262 81.2405 20.2262C81.2405 20.2262 81.7858 20.3908 82.5885 21.264C83.367 22.1109 83.8047 22.9268 83.8332 23.6616Z" fill="#FFB803"/>
<path d="M76.3276 31.7204C76.145 32.1808 75.5183 32.1999 75.2456 31.9446C74.9883 31.7037 74.7376 31.2242 74.9971 30.6874C75.1686 30.3343 75.7316 30.2365 76.0483 30.5108C76.365 30.7852 76.4925 31.3029 76.3276 31.7204Z" fill="#875B54"/>
<path d="M75.0761 26.7343C74.3547 27.8198 73.6312 27.9844 73.3321 28.0202C73.0705 28.0536 72.7846 27.691 72.8176 27.357C72.8505 27.023 73.3563 26.553 73.4179 25.5272C73.4795 24.5014 73.4047 20.7392 75.329 18.5777C76.6858 17.0557 78.3484 17.5805 79.4216 17.9837C80.6311 18.437 81.3282 18.8664 81.3282 18.8664C81.3282 18.8664 80.3386 18.7925 78.6321 20.2525C77.6403 21.1018 77.0575 22.2684 76.5077 23.6067C76.1119 24.5753 75.5841 25.9709 75.0761 26.7343Z" fill="#FEE4B4"/>
<path d="M94.2614 29.5351C94.059 29.974 93.5642 30.246 93.1266 30.2245C92.2008 30.1816 91.3563 29.6639 90.4217 28.3565C89.1 26.5053 87.9498 22.0632 87.0878 20.8799C86.505 20.0807 85.7793 19.6846 85.7793 19.6846C85.7793 19.6846 86.1795 19.3173 86.5798 19.0906C86.98 18.864 87.9476 18.9713 87.9476 18.9713L92.0776 26.1713L94.2614 29.5351Z" fill="#FEB804"/>
<path d="M91.928 19.7252C92.834 21.1304 92.9528 22.3638 93.0891 23.6234C93.2122 24.7614 93.4652 27.1542 93.8456 27.9343C94.2283 28.7144 94.5999 29.2226 94.1887 29.6973C93.7774 30.1721 92.5679 30.0027 91.6992 28.9769C90.9999 28.149 90.6129 27.2472 90.0873 25.9232C89.5617 24.5992 88.7876 21.4739 87.7826 20.0616C87.1404 19.1598 86.5005 19.1336 86.5005 19.1336C86.5005 19.1336 87.3472 18.3845 88.9635 18.3654C90.4128 18.3487 91.1737 18.5563 91.928 19.7252Z" fill="#FFE4B4"/>
<g clip-path="url(#clip0_119_1593)">
<path d="M47.5225 19.6489L46.3239 16.4259L46.3569 11.2084C46.3569 11.2084 49.5852 10.6836 51.2808 10.4307C52.9763 10.1778 56.3476 8.63666 59.422 10.1134C62.9142 11.7905 64.7659 15.672 63.8334 21.5885C62.901 27.5049 58.8128 32.2929 55.1315 32.8082C53.3084 33.0635 52.9829 32.2953 51.5865 32.4051C50.4561 32.4933 50.5177 33.1303 48.589 33.023C46.6604 32.9156 45.0242 32.1379 44.061 30.8401C43.0978 29.5423 47.5225 19.6489 47.5225 19.6489Z" fill="#DC0D28"/>
<path d="M42.2003 12.2175C39.436 14.7225 38.1319 20.002 40.3377 25.6369C42.2993 30.6516 45.4331 32.0854 45.4331 32.0854C45.4331 32.0854 50.9133 31.6965 54.7376 29.4587C58.5619 27.221 62.2543 23.3252 62.2543 18.2032C62.2543 13.0811 59.7934 11.3491 59.5273 11.2776C59.2612 11.206 58.1639 11.9623 56.9323 11.998C55.7008 12.0338 54.7376 11.7094 54.7376 11.7094L50.8473 13.1169L47.21 12.196C47.21 12.196 47.0934 11.645 47.4871 11.4207C48.3051 10.9579 50.0139 11.7452 50.7132 11.7094C51.4125 11.6736 52.0107 10.6621 52.0107 10.6621C52.0107 10.6621 50.3811 10.4808 49.8159 10.3376C49.2508 10.1992 45.4265 9.29507 42.2003 12.2175Z" fill="#FF5117"/>
<path d="M51.1732 12.2486C50.166 12.2987 47.4654 11.2704 47.2213 12.0744C46.9618 12.9285 48.9719 14.0617 51.4195 13.8756C53.9727 13.6824 55.5627 12.1508 55.158 11.3253C54.7556 10.4999 53.0996 12.1508 51.1732 12.2486Z" fill="#8D1D0A"/>
<path d="M48.7562 7.43905C48.7562 7.43905 48.3318 7.4152 48.1075 7.31738C47.8831 7.21957 47.5665 7.22673 47.5929 6.80685C47.6368 6.10308 48.4681 5.38022 48.6682 5.25139C49.0487 5.00806 49.715 5.07486 49.9679 5.25139C50.2824 5.47088 50.1241 6.27246 50.1241 6.27246C50.1241 6.27246 51.2434 8.09511 51.3996 9.2116C51.5425 10.2303 52.1275 13.2028 51.2434 13.3889C50.4363 13.5583 50.7728 11.2752 50.3264 10.1587C50.0581 9.49073 49.6776 8.77503 49.3192 8.28835C49.1162 8.01757 48.9282 7.73398 48.7562 7.43905Z" fill="#513630"/>
<path d="M60.7126 4.59769C60.8028 4.42831 60.6224 4.25654 59.8835 4.23268C59.1446 4.20883 55.1136 3.79611 52.8309 6.88078C51.1903 9.09706 51.4432 10.9865 51.4432 10.9865L52.9431 11.0605L60.7126 4.59769Z" fill="#2F7C31"/>
<path d="M55.7627 7.63229C57.1195 6.616 60.7327 4.4021 60.7327 4.4021C60.7327 4.4021 60.7327 4.96035 60.5084 5.44702C60.2841 5.9337 59.5232 8.33845 56.4334 10.0871C53.5327 11.7285 51.5975 11.3253 51.4392 11.0343C51.2852 10.7432 53.5239 9.30942 55.7627 7.63229Z" fill="#709F19"/>
<path d="M45.8005 12.9284C45.2001 11.9909 43.7465 12.2557 42.4424 14.1427C40.7623 16.5714 40.8525 19.8015 41.9938 19.9972C43.1264 20.1904 42.1279 18.9522 43.8741 16.4998C45.2111 14.6223 46.5614 14.1189 45.8005 12.9284Z" fill="#FFD2B1"/>
</g>
<path d="M11.9337 13.6321C9.93195 13.1873 7.21436 13.2024 6.20656 15.1401C4.9138 17.6207 6.9711 18.8271 8.23607 17.5529C9.50103 16.2786 7.10316 13.0289 2.67578 14.65" stroke="#45413C" stroke-width="0.5" stroke-linecap="round" stroke-linejoin="round"/>
<path d="M27.058 27.1436C27.4504 27.7777 27.6606 28.5237 27.6621 29.2875C27.6635 30.0512 27.4562 30.7982 27.0662 31.434C26.6762 32.0698 26.1212 32.5659 25.4712 32.8594C24.8213 33.1529 24.1058 33.2307 23.4151 33.083C22.7244 32.9352 22.0896 32.5686 21.591 32.0294C21.0925 31.4902 20.7526 30.8027 20.6143 30.0539C20.476 29.305 20.5455 28.5285 20.8141 27.8226C21.0827 27.1167 21.5383 26.513 22.1232 26.088C22.9068 25.5187 23.8667 25.3101 24.7919 25.508C25.7172 25.7059 26.5322 26.2942 27.058 27.1436Z" fill="#9F5AE5"/>
<path d="M27.4123 27.8976C27.285 28.0256 27.1478 28.1416 27.0023 28.2444C26.2664 28.7774 25.3988 29.0561 24.514 29.0436C24.4219 29.6755 24.21 30.2797 23.8918 30.8183C23.5736 31.3568 23.156 31.818 22.6652 32.1727C22.496 32.2977 22.3169 32.4062 22.1301 32.4969C21.7391 32.2231 21.4053 31.8635 21.1501 31.4413C20.7625 30.8091 20.5557 30.0668 20.5557 29.3075C20.5557 28.5483 20.7625 27.8059 21.1501 27.1738C21.4118 26.7465 21.7468 26.3778 22.137 26.088C22.6173 25.7341 23.1717 25.5163 23.7495 25.4547C24.3902 25.3851 25.0363 25.5055 25.6189 25.8029C26.2016 26.1004 26.6989 26.5637 27.0579 27.1436C27.2059 27.377 27.3251 27.6305 27.4123 27.8976Z" fill="#803EC2"/>
<path d="M27.058 27.1436C27.4504 27.7777 27.6606 28.5237 27.6621 29.2875C27.6635 30.0512 27.4562 30.7982 27.0662 31.434C26.6762 32.0698 26.1212 32.5659 25.4712 32.8594C24.8213 33.1529 24.1058 33.2307 23.4151 33.083C22.7244 32.9352 22.0896 32.5686 21.591 32.0294C21.0925 31.4902 20.7526 30.8027 20.6143 30.0539C20.476 29.305 20.5455 28.5285 20.8141 27.8226C21.0827 27.1167 21.5383 26.513 22.1232 26.088C22.9068 25.5187 23.8667 25.3101 24.7919 25.508C25.7172 25.7059 26.5322 26.2942 27.058 27.1436Z" stroke="#45413C" stroke-width="0.5" stroke-linecap="round" stroke-linejoin="round"/>
<path d="M22.1995 11.5435C22.6339 12.2474 22.8661 13.0752 22.8668 13.9222C22.8675 14.7692 22.6366 15.5974 22.2034 16.3021C21.7702 17.0068 21.1541 17.5563 20.433 17.8812C19.7119 18.206 18.9183 18.2916 18.1523 18.1271C17.3864 17.9626 16.6826 17.5554 16.13 16.9571C15.5774 16.3587 15.2008 15.596 15.0478 14.7654C14.8947 13.9348 14.9722 13.0736 15.2703 12.2908C15.5684 11.5079 16.0739 10.8386 16.7227 10.3673C17.5933 9.73739 18.6585 9.50747 19.6851 9.72793C20.7117 9.9484 21.6158 10.6013 22.1995 11.5435Z" fill="#803EC2" stroke="#45413C" stroke-width="0.5" stroke-linecap="round" stroke-linejoin="round"/>
<path opacity="0.15" d="M9.50098 33.3942C9.50098 33.5635 9.73612 33.7312 10.193 33.8876C10.6499 34.044 11.3195 34.1861 12.1637 34.3059C13.0079 34.4256 14.0101 34.5206 15.113 34.5854C16.216 34.6502 17.3982 34.6835 18.592 34.6835C19.7859 34.6835 20.9681 34.6502 22.071 34.5854C23.174 34.5206 24.1762 34.4256 25.0204 34.3059C25.8646 34.1861 26.5342 34.044 26.9911 33.8876C27.448 33.7312 27.6831 33.5635 27.6831 33.3942C27.6831 33.2249 27.448 33.0572 26.9911 32.9008C26.5342 32.7443 25.8646 32.6022 25.0204 32.4825C24.1762 32.3628 23.174 32.2678 22.071 32.203C20.9681 32.1382 19.7859 32.1049 18.592 32.1049C17.3982 32.1049 16.216 32.1382 15.113 32.203C14.0101 32.2678 13.0079 32.3628 12.1637 32.4825C11.3195 32.6022 10.6499 32.7443 10.193 32.9008C9.73612 33.0572 9.50098 33.2249 9.50098 33.3942Z" fill="#45413C"/>
<path d="M16.2915 15.8338C16.725 16.5377 16.9565 17.3652 16.9566 18.2118C16.9568 19.0584 16.7257 19.886 16.2925 20.5902C15.8593 21.2943 15.2434 21.8434 14.5226 22.168C13.8019 22.4926 13.0087 22.5783 12.2431 22.414C11.4775 22.2498 10.774 21.8432 10.2214 21.2454C9.66878 20.6477 9.29186 19.8857 9.13826 19.0557C8.98466 18.2257 9.06127 17.3649 9.35841 16.5821C9.65554 15.7993 10.1599 15.1296 10.8077 14.6575C11.2385 14.3425 11.7224 14.1229 12.2317 14.0115C12.7409 13.9001 13.2655 13.899 13.7751 14.0083C14.2848 14.1176 14.7695 14.3352 15.2013 14.6485C15.6332 14.9617 16.0037 15.3646 16.2915 15.8338Z" fill="#9F5AE5"/>
<path d="M10.8078 16.9044C11.6806 16.2735 12.7487 16.0446 13.7771 16.268C14.8055 16.4915 15.71 17.1489 16.2916 18.0957C16.5303 18.4811 16.7087 18.9065 16.8198 19.3549C16.9703 18.7221 16.9852 18.0603 16.8636 17.4203C16.7419 16.7802 16.4868 16.1789 16.1178 15.6623C15.7489 15.1457 15.2758 14.7275 14.7349 14.4399C14.194 14.1522 13.5995 14.0026 12.9971 14.0026C12.3947 14.0026 11.8003 14.1522 11.2594 14.4399C10.7184 14.7275 10.2454 15.1457 9.87642 15.6623C9.50745 16.1789 9.25236 16.7802 9.13068 17.4203C9.00901 18.0603 9.02397 18.7221 9.17442 19.3549C9.4284 18.351 10.0085 17.4806 10.8078 16.9044Z" fill="#BF8DF2"/>
<path d="M16.2915 15.8338C16.725 16.5377 16.9565 17.3652 16.9566 18.2118C16.9568 19.0584 16.7257 19.886 16.2925 20.5902C15.8593 21.2943 15.2434 21.8434 14.5226 22.168C13.8019 22.4926 13.0087 22.5783 12.2431 22.414C11.4775 22.2498 10.774 21.8432 10.2214 21.2454C9.66878 20.6477 9.29186 19.8857 9.13826 19.0557C8.98466 18.2257 9.06127 17.3649 9.35841 16.5821C9.65554 15.7993 10.1599 15.1296 10.8077 14.6575C11.2385 14.3425 11.7224 14.1229 12.2317 14.0115C12.7409 13.9001 13.2655 13.899 13.7751 14.0083C14.2848 14.1176 14.7695 14.3352 15.2013 14.6485C15.6332 14.9617 16.0037 15.3646 16.2915 15.8338Z" stroke="#45413C" stroke-width="0.5" stroke-linecap="round" stroke-linejoin="round"/>
<path d="M15.7564 21.9033C16.1922 22.6082 16.4254 23.4375 16.4266 24.2862C16.4278 25.1349 16.1969 25.9649 15.7632 26.6713C15.3294 27.3776 14.7123 27.9285 13.9899 28.2543C13.2675 28.5801 12.4723 28.6661 11.7048 28.5015C10.9373 28.3369 10.232 27.929 9.67827 27.3295C9.1245 26.73 8.74708 25.9658 8.59377 25.1335C8.44046 24.3013 8.51813 23.4384 8.81697 22.654C9.11581 21.8697 9.62239 21.1991 10.2726 20.7271C11.1438 20.0948 12.2107 19.8635 13.2389 20.0841C14.2672 20.3046 15.1727 20.959 15.7564 21.9033Z" fill="#9F5AE5"/>
<path d="M10.2725 23.2003C11.1437 22.5679 12.2106 22.3366 13.2389 22.5572C14.2671 22.7777 15.1726 23.4321 15.7564 24.3765C15.9728 24.7306 16.1413 25.1166 16.2568 25.5225C16.4361 24.8815 16.4744 24.2038 16.3689 23.5437C16.2633 22.8837 16.0167 22.2596 15.6488 21.7215C15.2809 21.1834 14.802 20.7463 14.2504 20.4451C13.6988 20.1439 13.0899 19.987 12.4723 19.987C11.8548 19.987 11.2458 20.1439 10.6942 20.4451C10.1426 20.7463 9.66372 21.1834 9.29585 21.7215C8.92798 22.2596 8.68138 22.8837 8.5758 23.5437C8.47023 24.2038 8.5086 24.8815 8.68786 25.5225C8.95321 24.5733 9.51309 23.7528 10.2725 23.2003Z" fill="#BF8DF2"/>
<path d="M15.7564 21.9033C16.1922 22.6082 16.4254 23.4375 16.4266 24.2862C16.4278 25.1349 16.1969 25.9649 15.7632 26.6713C15.3294 27.3776 14.7123 27.9285 13.9899 28.2543C13.2675 28.5801 12.4723 28.6661 11.7048 28.5015C10.9373 28.3369 10.232 27.929 9.67827 27.3295C9.1245 26.73 8.74708 25.9658 8.59377 25.1335C8.44046 24.3013 8.51813 23.4384 8.81697 22.654C9.11581 21.8697 9.62239 21.1991 10.2726 20.7271C11.1438 20.0948 12.2107 19.8635 13.2389 20.0841C14.2672 20.3046 15.1727 20.959 15.7564 21.9033Z" stroke="#45413C" stroke-width="0.5" stroke-linecap="round" stroke-linejoin="round"/>
<path d="M26.6961 13.4361C27.1305 14.1399 27.3627 14.9677 27.3634 15.8147C27.3641 16.6617 27.1332 17.49 26.7 18.1946C26.2668 18.8993 25.6507 19.4489 24.9296 19.7737C24.2085 20.0985 23.4148 20.1841 22.6489 20.0196C21.883 19.8552 21.1792 19.448 20.6266 18.8496C20.074 18.2512 19.6974 17.4885 19.5443 16.6579C19.3913 15.8273 19.4688 14.9661 19.7669 14.1833C20.065 13.4004 20.5704 12.7311 21.2192 12.2598C22.0898 11.6299 23.1551 11.4 24.1817 11.6205C25.2083 11.8409 26.1124 12.4938 26.6961 13.4361Z" fill="#9F5AE5"/>
<path d="M21.2194 14.6576C22.09 14.0276 23.1553 13.7977 24.1818 14.0182C25.2084 14.2386 26.1126 14.8915 26.6963 15.8338C26.9234 16.197 27.0969 16.5964 27.2106 17.0175C27.3835 16.3779 27.4167 15.7034 27.3074 15.0474C27.1982 14.3914 26.9496 13.7721 26.5813 13.2386C26.213 12.705 25.7351 12.2719 25.1856 11.9735C24.6362 11.6752 24.0301 11.5199 23.4157 11.5199C22.8012 11.5199 22.1952 11.6752 21.6457 11.9735C21.0963 12.2719 20.6184 12.705 20.2501 13.2386C19.8818 13.7721 19.6332 14.3914 19.5239 15.0474C19.4147 15.7034 19.4479 16.3779 19.6208 17.0175C19.8815 16.0515 20.4474 15.216 21.2194 14.6576Z" fill="#BF8DF2"/>
<path d="M26.6961 13.4361C27.1305 14.1399 27.3627 14.9677 27.3634 15.8147C27.3641 16.6617 27.1332 17.49 26.7 18.1946C26.2668 18.8993 25.6507 19.4489 24.9296 19.7737C24.2085 20.0985 23.4148 20.1841 22.6489 20.0196C21.883 19.8552 21.1792 19.448 20.6266 18.8496C20.074 18.2512 19.6974 17.4885 19.5443 16.6579C19.3913 15.8273 19.4688 14.9661 19.7669 14.1833C20.065 13.4004 20.5704 12.7311 21.2192 12.2598C22.0898 11.6299 23.1551 11.4 24.1817 11.6205C25.2083 11.8409 26.1124 12.4938 26.6961 13.4361Z" stroke="#45413C" stroke-width="0.5" stroke-linecap="round" stroke-linejoin="round"/>
<path d="M27.4815 20.0938C27.915 20.7978 28.1464 21.6253 28.1466 22.4719C28.1467 23.3185 27.9156 24.1461 27.4824 24.8502C27.0492 25.5544 26.4333 26.1035 25.7126 26.4281C24.9919 26.7527 24.1986 26.8383 23.433 26.6741C22.6675 26.5099 21.964 26.1033 21.4113 25.5055C20.8587 24.9078 20.4818 24.1458 20.3282 23.3157C20.1746 22.4857 20.2512 21.6249 20.5483 20.8421C20.8455 20.0593 21.3498 19.3896 21.9976 18.9176C22.4284 18.6025 22.9123 18.383 23.4216 18.2716C23.9309 18.1602 24.4554 18.1591 24.9651 18.2684C25.4747 18.3777 25.9594 18.5953 26.3913 18.9085C26.8231 19.2218 27.1937 19.6246 27.4815 20.0938Z" fill="#9F5AE5"/>
<path d="M21.998 20.7271C22.5328 20.3371 23.1475 20.095 23.7884 20.022C24.4293 19.949 25.0769 20.0473 25.6747 20.3084C26.2725 20.5694 26.8024 20.9853 27.2179 21.5196C27.6335 22.0539 27.9221 22.6904 28.0587 23.3736C28.1815 22.7494 28.1741 22.1034 28.037 21.4827C27.9 20.862 27.6368 20.2823 27.2667 19.7862C26.8967 19.29 26.429 18.8899 25.898 18.615C25.3671 18.3401 24.7861 18.1974 24.1978 18.1974C23.6095 18.1974 23.0286 18.3401 22.4976 18.615C21.9666 18.8899 21.4989 19.29 21.1289 19.7862C20.7588 20.2823 20.4956 20.862 20.3586 21.4827C20.2215 22.1034 20.2141 22.7494 20.3369 23.3736C20.5502 22.2897 21.1466 21.3397 21.998 20.7271Z" fill="#BF8DF2"/>
<path d="M27.4815 20.0938C27.915 20.7978 28.1464 21.6253 28.1466 22.4719C28.1467 23.3185 27.9156 24.1461 27.4824 24.8502C27.0492 25.5544 26.4333 26.1035 25.7126 26.4281C24.9919 26.7527 24.1986 26.8383 23.433 26.6741C22.6675 26.5099 21.964 26.1033 21.4113 25.5055C20.8587 24.9078 20.4818 24.1458 20.3282 23.3157C20.1746 22.4857 20.2512 21.6249 20.5483 20.8421C20.8455 20.0593 21.3498 19.3896 21.9976 18.9176C22.4284 18.6025 22.9123 18.383 23.4216 18.2716C23.9309 18.1602 24.4554 18.1591 24.9651 18.2684C25.4747 18.3777 25.9594 18.5953 26.3913 18.9085C26.8231 19.2218 27.1937 19.6246 27.4815 20.0938Z" stroke="#45413C" stroke-width="0.5" stroke-linecap="round" stroke-linejoin="round"/>
<path d="M21.6853 25.334C22.117 26.0414 22.3458 26.8717 22.3426 27.7201C22.3394 28.5684 22.1044 29.3967 21.6674 30.1002C21.2304 30.8037 20.6109 31.3509 19.8872 31.6725C19.1636 31.9941 18.3683 32.0758 17.6019 31.9072C16.8355 31.7386 16.1323 31.3273 15.5813 30.7252C15.0304 30.1232 14.6563 29.3575 14.5064 28.5249C14.3565 27.6922 14.4376 26.8301 14.7393 26.0474C15.041 25.2647 15.5498 24.5967 16.2015 24.1277C17.0765 23.5002 18.1453 23.2749 19.1733 23.501C20.2013 23.7272 21.1047 24.3864 21.6853 25.334Z" fill="#9F5AE5"/>
<path d="M22.2411 26.5932C22.0026 26.8561 21.7393 27.0911 21.4557 27.2944C19.3706 28.8024 16.646 28.4103 15.388 26.367C15.2347 26.1335 15.1086 25.8802 15.0127 25.613C15.3451 24.9784 15.8217 24.4467 16.3972 24.0686C16.9727 23.6904 17.6278 23.4784 18.3002 23.4527C18.9726 23.427 19.6399 23.5884 20.2385 23.9217C20.8371 24.255 21.347 24.749 21.7198 25.3567C21.9551 25.7349 22.1312 26.1527 22.2411 26.5932Z" fill="#803EC2"/>
<path d="M21.6853 25.334C22.117 26.0414 22.3458 26.8717 22.3426 27.7201C22.3394 28.5684 22.1044 29.3967 21.6674 30.1002C21.2304 30.8037 20.6109 31.3509 19.8872 31.6725C19.1636 31.9941 18.3683 32.0758 17.6019 31.9072C16.8355 31.7386 16.1323 31.3273 15.5813 30.7252C15.0304 30.1232 14.6563 29.3575 14.5064 28.5249C14.3565 27.6922 14.4376 26.8301 14.7393 26.0474C15.041 25.2647 15.5498 24.5967 16.2015 24.1277C17.0765 23.5002 18.1453 23.2749 19.1733 23.501C20.2013 23.7272 21.1047 24.3864 21.6853 25.334Z" stroke="#45413C" stroke-width="0.5" stroke-linecap="round" stroke-linejoin="round"/>
<path d="M17.786 16.8064C16.656 14.6189 15.029 12.7812 13.0597 11.4682C11.5639 10.3784 9.86028 9.66959 8.07633 9.39469C7.90381 9.36881 7.72826 9.40588 7.57728 9.50006C7.4263 9.59423 7.30846 9.74018 7.24229 9.91494L6.83222 11.0007C6.78257 11.1278 6.76215 11.2662 6.77274 11.4038C6.78332 11.5415 6.82459 11.6742 6.89298 11.7907C6.96137 11.9072 7.05484 12.0039 7.16533 12.0725C7.27582 12.1411 7.40003 12.1795 7.52725 12.1844C9.14302 12.2837 10.7135 12.8007 12.1075 13.6924C15.9163 16.2107 16.9728 18.4426 16.9728 18.4426L17.786 16.8064Z" fill="#6DD627"/>
<path d="M12.6008 12.5841C14.5419 13.7901 16.1924 15.4772 17.4174 17.5076L17.7858 16.8064C16.6558 14.6189 15.0288 12.7812 13.0596 11.4682C11.5637 10.3784 9.8601 9.66959 8.07615 9.39469C7.90363 9.36881 7.72808 9.40588 7.5771 9.50006C7.42613 9.59423 7.30828 9.74018 7.24211 9.91494L6.9502 10.6312C8.94828 10.7956 10.8833 11.4644 12.6008 12.5841Z" fill="#9CEB60"/>
<path d="M17.786 16.8064C16.656 14.6189 15.029 12.7812 13.0597 11.4682C11.5639 10.3784 9.86028 9.66959 8.07633 9.39469C7.90381 9.36881 7.72826 9.40588 7.57728 9.50006C7.4263 9.59423 7.30846 9.74018 7.24229 9.91494L6.83222 11.0007C6.78257 11.1278 6.76215 11.2662 6.77274 11.4038C6.78332 11.5415 6.82459 11.6742 6.89298 11.7907C6.96137 11.9072 7.05484 12.0039 7.16533 12.0725C7.27582 12.1411 7.40003 12.1795 7.52725 12.1844C9.14302 12.2837 10.7135 12.8007 12.1075 13.6924C15.9163 16.2107 16.9728 18.4426 16.9728 18.4426L17.786 16.8064Z" stroke="#45413C" stroke-width="0.5" stroke-linecap="round" stroke-linejoin="round"/>
<path d="M23.0889 17.6057C23.6109 18.4506 23.8902 19.4444 23.8914 20.4616C23.8927 21.4787 23.6158 22.4733 23.096 23.3198C22.5761 24.1662 21.8365 24.8264 20.9707 25.2168C20.1049 25.6072 19.1519 25.7103 18.2321 25.513C17.3123 25.3158 16.4671 24.8271 15.8033 24.1087C15.1396 23.3903 14.6871 22.4745 14.5032 21.4771C14.3193 20.4798 14.4122 19.4457 14.7701 18.5056C15.128 17.5655 15.7348 16.7616 16.5139 16.1957C17.0307 15.8191 17.6109 15.5568 18.2213 15.4238C18.8317 15.2908 19.4603 15.2898 20.0711 15.4208C20.6818 15.5517 21.2628 15.8122 21.7806 16.1871C22.2985 16.562 22.7431 17.0441 23.0889 17.6057Z" fill="#9F5AE5"/>
<path d="M16.5141 19.1589C17.1306 18.7122 17.835 18.4284 18.5708 18.3302C19.3066 18.232 20.0533 18.3221 20.7513 18.5933C21.4492 18.8644 22.0789 19.3092 22.5899 19.8919C23.1008 20.4745 23.4789 21.1789 23.6938 21.9486C23.9051 21.1811 23.9481 20.3706 23.8194 19.5818C23.6908 18.793 23.394 18.0477 22.9528 17.4053C22.5117 16.763 21.9383 16.2413 21.2783 15.882C20.6184 15.5226 19.8902 15.3354 19.1518 15.3354C18.4133 15.3354 17.6851 15.5226 17.0252 15.882C16.3653 16.2413 15.7919 16.763 15.3507 17.4053C14.9095 18.0477 14.6128 18.793 14.4841 19.5818C14.3555 20.3706 14.3985 21.1811 14.6097 21.9486C14.9262 20.8068 15.5996 19.8203 16.5141 19.1589Z" fill="#BF8DF2"/>
<path d="M23.0889 17.6057C23.6109 18.4506 23.8902 19.4444 23.8914 20.4616C23.8927 21.4787 23.6158 22.4733 23.096 23.3198C22.5761 24.1662 21.8365 24.8264 20.9707 25.2168C20.1049 25.6072 19.1519 25.7103 18.2321 25.513C17.3123 25.3158 16.4671 24.8271 15.8033 24.1087C15.1396 23.3903 14.6871 22.4745 14.5032 21.4771C14.3193 20.4798 14.4122 19.4457 14.7701 18.5056C15.128 17.5655 15.7348 16.7616 16.5139 16.1957C17.0307 15.8191 17.6109 15.5568 18.2213 15.4238C18.8317 15.2908 19.4603 15.2898 20.0711 15.4208C20.6818 15.5517 21.2628 15.8122 21.7806 16.1871C22.2985 16.562 22.7431 17.0441 23.0889 17.6057Z" stroke="#45413C" stroke-width="0.5" stroke-linecap="round" stroke-linejoin="round"/>
<path d="M11.4055 4.00366C11.4212 3.91817 11.4572 3.83864 11.5101 3.77301C11.563 3.70739 11.6308 3.65798 11.7068 3.62973C11.7828 3.60149 11.8643 3.59539 11.9432 3.61205C12.0221 3.62872 12.0955 3.66756 12.1562 3.72469L13.6227 5.05925C13.6733 5.10803 13.7333 5.14386 13.7984 5.16409C13.8634 5.18432 13.9319 5.18843 13.9986 5.17613C14.0653 5.16382 14.1286 5.13541 14.1839 5.093C14.2391 5.05058 14.2849 4.99524 14.3177 4.93107L14.415 4.75765C14.9281 3.81963 15.7308 3.10907 16.6809 2.75204L17.3759 2.49569C17.4903 2.4579 17.6137 2.46788 17.7217 2.52368C17.8297 2.57948 17.9146 2.67707 17.9597 2.79728L18.2308 3.45325C18.5924 4.32498 18.7385 5.28386 18.6548 6.23547V6.43905C18.6449 6.51813 18.6507 6.59856 18.6715 6.67507C18.6924 6.75159 18.728 6.82243 18.7759 6.88297C18.8238 6.9435 18.883 6.99235 18.9496 7.0263C19.0162 7.06024 19.0886 7.07853 19.1621 7.07994L20.6773 7.01962C20.7652 7.02269 20.8511 7.04953 20.927 7.09772C21.003 7.14591 21.0666 7.21391 21.1122 7.29555C21.1578 7.37719 21.1838 7.46989 21.188 7.56523C21.1921 7.66056 21.1743 7.75552 21.136 7.84147L20.9136 8.3768C20.5394 9.3222 19.947 10.147 19.1934 10.7717C18.4398 11.3964 17.5505 11.7999 16.6114 11.9432L14.0953 12.29L12.5106 10.028C11.9221 9.17786 11.5173 8.19507 11.326 7.15231C11.1347 6.10955 11.1619 5.03349 11.4055 4.00366Z" fill="#6DD627"/>
<path d="M11.4057 5.70772C11.4214 5.62222 11.4574 5.54269 11.5103 5.47706C11.5632 5.41144 11.631 5.36203 11.707 5.33378C11.783 5.30554 11.8645 5.29944 11.9434 5.3161C12.0223 5.33277 12.0957 5.37161 12.1564 5.42874L13.6229 6.78592C13.6745 6.83213 13.7346 6.86574 13.7993 6.88447C13.8639 6.90319 13.9315 6.90659 13.9975 6.89442C14.0634 6.88226 14.1262 6.85482 14.1815 6.81398C14.2368 6.77314 14.2833 6.71985 14.3179 6.65774L14.4083 6.48432C14.9193 5.53642 15.7251 4.81727 16.6811 4.45609L17.3761 4.1922C17.4906 4.15782 17.6126 4.1694 17.7199 4.2248C17.8271 4.2802 17.9124 4.37571 17.9599 4.49379L18.231 5.1573C18.5926 6.02903 18.7387 6.98791 18.655 7.93952V8.1431C18.6451 8.22181 18.6508 8.3019 18.6717 8.37802C18.6926 8.45414 18.7283 8.52454 18.7764 8.58449C18.8244 8.64445 18.8837 8.6926 18.9502 8.7257C19.0168 8.7588 19.0891 8.77611 19.1623 8.77645L20.6775 8.71613H20.7401L20.9138 8.36176L21.1362 7.81888C21.1745 7.73293 21.1923 7.63798 21.1882 7.54264C21.184 7.44731 21.1579 7.35461 21.1124 7.27297C21.0668 7.19133 21.0032 7.12332 20.9272 7.07514C20.8513 7.02695 20.7654 7.0001 20.6775 6.99704L19.1623 7.05735C19.0888 7.05594 19.0164 7.03766 18.9498 7.00371C18.8832 6.96976 18.824 6.92092 18.7761 6.86038C18.7282 6.79985 18.6926 6.729 18.6717 6.65249C18.6509 6.57598 18.6451 6.49554 18.655 6.41646V6.21289C18.7387 5.26128 18.5926 4.3024 18.231 3.43067L17.9599 2.7747C17.9148 2.65448 17.8299 2.5569 17.7219 2.5011C17.6139 2.4453 17.4905 2.43531 17.3761 2.4731L16.6811 2.72946C15.7259 3.08339 14.9178 3.79428 14.4013 4.73507L14.311 4.90849C14.2772 4.9716 14.231 5.02588 14.1758 5.06749C14.1205 5.10909 14.0575 5.137 13.9911 5.14923C13.9248 5.16146 13.8568 5.15772 13.792 5.13827C13.7272 5.11881 13.6671 5.08413 13.6159 5.03666L12.1564 3.72472C12.0957 3.66759 12.0223 3.62875 11.9434 3.61209C11.8645 3.59543 11.783 3.60152 11.707 3.62977C11.631 3.65802 11.5632 3.70743 11.5103 3.77305C11.4574 3.83867 11.4214 3.91821 11.4057 4.0037C11.2102 4.8485 11.1584 5.72491 11.2528 6.58988C11.2876 6.29279 11.3387 5.99822 11.4057 5.70772Z" fill="#9CEB60"/>
<path d="M11.4055 4.00366C11.4212 3.91817 11.4572 3.83864 11.5101 3.77301C11.563 3.70739 11.6308 3.65798 11.7068 3.62973C11.7828 3.60149 11.8643 3.59539 11.9432 3.61205C12.0221 3.62872 12.0955 3.66756 12.1562 3.72469L13.6227 5.05925C13.6733 5.10803 13.7333 5.14386 13.7984 5.16409C13.8634 5.18432 13.9319 5.18843 13.9986 5.17613C14.0653 5.16382 14.1286 5.13541 14.1839 5.093C14.2391 5.05058 14.2849 4.99524 14.3177 4.93107L14.415 4.75765C14.9281 3.81963 15.7308 3.10907 16.6809 2.75204L17.3759 2.49569C17.4903 2.4579 17.6137 2.46788 17.7217 2.52368C17.8297 2.57948 17.9146 2.67707 17.9597 2.79728L18.2308 3.45325C18.5924 4.32498 18.7385 5.28386 18.6548 6.23547V6.43905C18.6449 6.51813 18.6507 6.59856 18.6715 6.67507C18.6924 6.75158 18.728 6.82243 18.7759 6.88297C18.8238 6.9435 18.883 6.99235 18.9496 7.0263C19.0162 7.06024 19.0886 7.07852 19.1621 7.07994L20.6773 7.01962C20.7652 7.02269 20.8511 7.04953 20.927 7.09772C21.003 7.14591 21.0666 7.21391 21.1122 7.29555C21.1578 7.37719 21.1838 7.46989 21.188 7.56523C21.1921 7.66056 21.1743 7.75551 21.136 7.84147L20.9136 8.3768C20.5394 9.3222 19.947 10.147 19.1934 10.7717C18.4398 11.3964 17.5505 11.7999 16.6114 11.9432L14.0953 12.29L12.5106 10.028C11.9221 9.17786 11.5173 8.19507 11.326 7.15231C11.1347 6.10955 11.1619 5.03349 11.4055 4.00366Z" stroke="#45413C" stroke-width="0.5" stroke-linecap="round" stroke-linejoin="round"/>
<path d="M14.1093 12.29C14.0467 10.782 14.7557 8.56532 16.0971 6.61249" stroke="#45413C" stroke-width="0.5" stroke-linecap="round" stroke-linejoin="round"/>
<defs>
<clipPath id="clip0_119_1593">
<rect width="28.1489" height="30.5366" fill="white" transform="translate(37.5317 3.39294)"/>
</clipPath>
</defs>
</svg>
