<svg width="68" height="28" viewBox="0 0 68 28" fill="none" xmlns="http://www.w3.org/2000/svg">
    <path
        d="M0.548 17.064C0.548 15.048 0.956 13.284 1.772 11.772C2.588 10.236 3.704 9.048 5.12 8.208C6.56 7.368 8.156 6.948 9.908 6.948C11.636 6.948 13.136 7.32 14.408 8.064C15.68 8.808 16.628 9.744 17.252 10.872V7.272H20.564V27H17.252V23.328C16.604 24.48 15.632 25.44 14.336 26.208C13.064 26.952 11.576 27.324 9.872 27.324C8.12 27.324 6.536 26.892 5.12 26.028C3.704 25.164 2.588 23.952 1.772 22.392C0.956 20.832 0.548 19.056 0.548 17.064ZM17.252 17.1C17.252 15.612 16.952 14.316 16.352 13.212C15.752 12.108 14.936 11.268 13.904 10.692C12.896 10.092 11.78 9.792 10.556 9.792C9.332 9.792 8.216 10.08 7.208 10.656C6.2 11.232 5.396 12.072 4.796 13.176C4.196 14.28 3.896 15.576 3.896 17.064C3.896 18.576 4.196 19.896 4.796 21.024C5.396 22.128 6.2 22.98 7.208 23.58C8.216 24.156 9.332 24.444 10.556 24.444C11.78 24.444 12.896 24.156 13.904 23.58C14.936 22.98 15.752 22.128 16.352 21.024C16.952 19.896 17.252 18.588 17.252 17.1ZM29.3761 10.944C30.0481 9.768 31.0321 8.808 32.3281 8.064C33.6241 7.32 35.1001 6.948 36.7561 6.948C38.5321 6.948 40.1281 7.368 41.5441 8.208C42.9601 9.048 44.0761 10.236 44.8921 11.772C45.7081 13.284 46.1161 15.048 46.1161 17.064C46.1161 19.056 45.7081 20.832 44.8921 22.392C44.0761 23.952 42.9481 25.164 41.5081 26.028C40.0921 26.892 38.5081 27.324 36.7561 27.324C35.0521 27.324 33.5521 26.952 32.2561 26.208C30.9841 25.464 30.0241 24.516 29.3761 23.364V27H26.1001V0.36H29.3761V10.944ZM42.7681 17.064C42.7681 15.576 42.4681 14.28 41.8681 13.176C41.2681 12.072 40.4521 11.232 39.4201 10.656C38.4121 10.08 37.2961 9.792 36.0721 9.792C34.8721 9.792 33.7561 10.092 32.7241 10.692C31.7161 11.268 30.9001 12.12 30.2761 13.248C29.6761 14.352 29.3761 15.636 29.3761 17.1C29.3761 18.588 29.6761 19.896 30.2761 21.024C30.9001 22.128 31.7161 22.98 32.7241 23.58C33.7561 24.156 34.8721 24.444 36.0721 24.444C37.2961 24.444 38.4121 24.156 39.4201 23.58C40.4521 22.98 41.2681 22.128 41.8681 21.024C42.4681 19.896 42.7681 18.576 42.7681 17.064ZM49.2043 17.1C49.2043 15.06 49.6123 13.284 50.4283 11.772C51.2443 10.236 52.3723 9.048 53.8123 8.208C55.2763 7.368 56.9443 6.948 58.8163 6.948C61.2403 6.948 63.2323 7.536 64.7923 8.712C66.3763 9.888 67.4203 11.52 67.9243 13.608H64.3963C64.0603 12.408 63.4003 11.46 62.4163 10.764C61.4563 10.068 60.2563 9.72 58.8163 9.72C56.9443 9.72 55.4323 10.368 54.2803 11.664C53.1283 12.936 52.5523 14.748 52.5523 17.1C52.5523 19.476 53.1283 21.312 54.2803 22.608C55.4323 23.904 56.9443 24.552 58.8163 24.552C60.2563 24.552 61.4563 24.216 62.4163 23.544C63.3763 22.872 64.0363 21.912 64.3963 20.664H67.9243C67.3963 22.68 66.3403 24.3 64.7563 25.524C63.1723 26.724 61.1923 27.324 58.8163 27.324C56.9443 27.324 55.2763 26.904 53.8123 26.064C52.3723 25.224 51.2443 24.036 50.4283 22.5C49.6123 20.964 49.2043 19.164 49.2043 17.1Z"
        fill="#FF1093" />
</svg>