<svg width="35" height="33" viewBox="0 0 35 33" fill="none" xmlns="http://www.w3.org/2000/svg">
<rect width="35" height="33" fill="white"/>
<path d="M7.65618 9.79688C7.65618 7.74559 8.52044 5.77832 10.0588 4.32785C11.5972 2.87737 13.6837 2.0625 15.8593 2.0625C18.0349 2.0625 20.1214 2.87737 21.6598 4.32785C23.1982 5.77832 24.0624 7.74559 24.0624 9.79688C24.0624 10.0704 23.9472 10.3327 23.7421 10.5261C23.537 10.7195 23.2588 10.8281 22.9687 10.8281C22.6786 10.8281 22.4004 10.7195 22.1953 10.5261C21.9902 10.3327 21.8749 10.0704 21.8749 9.79688C21.8749 8.2926 21.2411 6.84994 20.113 5.78625C18.9849 4.72257 17.4548 4.125 15.8593 4.125C14.2639 4.125 12.7338 4.72257 11.6056 5.78625C10.4775 6.84994 9.84368 8.2926 9.84368 9.79688C9.84368 10.0704 9.72845 10.3327 9.52333 10.5261C9.31821 10.7195 9.04002 10.8281 8.74993 10.8281C8.45985 10.8281 8.18165 10.7195 7.97654 10.5261C7.77142 10.3327 7.65618 10.0704 7.65618 9.79688ZM26.7968 15.4688C26.1588 15.4681 25.5308 15.6183 24.9702 15.9057C24.8028 15.4171 24.5266 14.9677 24.1602 14.5877C23.7938 14.2077 23.3456 13.9058 22.8455 13.7021C22.3455 13.4985 21.8051 13.3978 21.2605 13.4068C20.7159 13.4158 20.1796 13.5343 19.6874 13.7543V9.79688C19.6874 8.83961 19.2841 7.92155 18.5662 7.24466C17.8483 6.56777 16.8746 6.1875 15.8593 6.1875C14.844 6.1875 13.8703 6.56777 13.1524 7.24466C12.4345 7.92155 12.0312 8.83961 12.0312 9.79688V20.1094L11.5089 19.3192C10.9982 18.4917 10.1597 17.8893 9.17799 17.6447C8.19624 17.4 7.15163 17.5331 6.27396 18.0146C5.39628 18.4962 4.75744 19.2867 4.49797 20.2124C4.23849 21.138 4.37964 22.1229 4.89036 22.9505L8.89896 29.3958C8.96619 29.5213 9.05994 29.6326 9.17444 29.7227C9.28895 29.8128 9.4218 29.8799 9.56481 29.9198C9.70783 29.9597 9.85799 29.9716 10.0061 29.9548C10.1542 29.938 10.297 29.8928 10.4259 29.822C10.5548 29.7512 10.6669 29.6563 10.7555 29.5431C10.844 29.43 10.9071 29.3009 10.9408 29.1639C10.9745 29.0269 10.9781 28.8849 10.9514 28.7465C10.9247 28.6082 10.8683 28.4764 10.7857 28.3594L6.78118 21.9141C6.66876 21.738 6.59467 21.5426 6.56324 21.3392C6.53182 21.1358 6.54369 20.9286 6.59816 20.7296C6.65263 20.5306 6.74861 20.3439 6.8805 20.1802C7.01238 20.0166 7.17752 19.8794 7.36628 19.7766C7.55504 19.6739 7.76362 19.6076 7.97985 19.5817C8.19608 19.5558 8.41561 19.5707 8.62564 19.6257C8.83566 19.6807 9.03196 19.7746 9.20307 19.9019C9.37417 20.0292 9.51666 20.1874 9.6222 20.3672L9.64134 20.3968L12.1952 24.264C12.3206 24.4548 12.5086 24.6018 12.7306 24.6827C12.9527 24.7636 13.1966 24.774 13.4255 24.7123C13.6544 24.6507 13.8557 24.5203 13.9988 24.3409C14.142 24.1616 14.2192 23.9432 14.2187 23.7188V9.79688C14.2187 9.38662 14.3915 8.99316 14.6992 8.70307C15.0069 8.41297 15.4242 8.25 15.8593 8.25C16.2944 8.25 16.7117 8.41297 17.0194 8.70307C17.3271 8.99316 17.4999 9.38662 17.4999 9.79688V18.5625C17.4999 18.836 17.6152 19.0983 17.8203 19.2917C18.0254 19.4851 18.3036 19.5938 18.5937 19.5938C18.8838 19.5938 19.162 19.4851 19.3671 19.2917C19.5722 19.0983 19.6874 18.836 19.6874 18.5625V17.0156C19.6874 16.6054 19.8603 16.2119 20.168 15.9218C20.4756 15.6317 20.8929 15.4688 21.3281 15.4688C21.7632 15.4688 22.1805 15.6317 22.4882 15.9218C22.7958 16.2119 22.9687 16.6054 22.9687 17.0156V19.5938C22.9687 19.8673 23.0839 20.1296 23.289 20.323C23.4942 20.5164 23.7724 20.625 24.0624 20.625C24.3525 20.625 24.6307 20.5164 24.8358 20.323C25.041 20.1296 25.1562 19.8673 25.1562 19.5938V19.0781C25.1562 18.6679 25.329 18.2744 25.6367 17.9843C25.9444 17.6942 26.3617 17.5312 26.7968 17.5312C27.2319 17.5312 27.6492 17.6942 27.9569 17.9843C28.2646 18.2744 28.4374 18.6679 28.4374 19.0781V23.7188C28.4374 26.5044 27.4667 28.398 27.4585 28.4135C27.329 28.6581 27.3077 28.9413 27.3995 29.2006C27.4913 29.46 27.6886 29.6744 27.948 29.7967C28.0997 29.869 28.2674 29.9066 28.4374 29.9062C28.6406 29.9064 28.8398 29.8532 29.0128 29.7525C29.1857 29.6519 29.3254 29.5078 29.4163 29.3365C29.4669 29.2424 30.6263 27.0162 30.6263 23.7188V19.0781C30.6263 18.604 30.5272 18.1346 30.3348 17.6966C30.1423 17.2586 29.8602 16.8606 29.5046 16.5255C29.149 16.1903 28.7268 15.9244 28.2622 15.7431C27.7976 15.5618 27.2996 15.4686 26.7968 15.4688Z" fill="#FF5117"/>
</svg>
