<svg width="30" height="27" viewBox="0 0 30 27" fill="none" xmlns="http://www.w3.org/2000/svg">
<path d="M10.0001 17.4375C9.38826 17.4356 8.7837 17.3181 8.22554 17.0926C7.66737 16.867 7.16805 16.5386 6.75988 16.1284C6.35171 15.7182 6.0438 15.2354 5.85607 14.7113C5.66833 14.1872 5.60497 13.6335 5.67008 13.086C5.78225 12.1216 6.28633 11.2285 7.08552 10.5781C7.8847 9.9278 8.92266 9.56611 10.0001 9.5625C10.6119 9.56441 11.2165 9.68193 11.7746 9.90745C12.3328 10.133 12.8321 10.4614 13.2403 10.8716C13.6484 11.2818 13.9564 11.7646 14.1441 12.2887C14.3318 12.8128 14.3952 13.3665 14.3301 13.914C14.2179 14.8784 13.7138 15.7715 12.9146 16.4219C12.1155 17.0722 11.0775 17.4339 10.0001 17.4375Z" fill="black"/>
<path fill-rule="evenodd" clip-rule="evenodd" d="M10.0925 21.0938H19.9075C22.1453 21.0938 24.2914 20.2937 25.8737 18.8696C27.4561 17.4455 28.345 15.514 28.345 13.5C28.345 11.486 27.4561 9.55451 25.8737 8.13041C24.2914 6.7063 22.1453 5.90625 19.9075 5.90625H10.0925C7.85477 5.90625 5.70865 6.7063 4.12632 8.13041C2.54398 9.55451 1.65503 11.486 1.65503 13.5C1.65503 15.514 2.54398 17.4455 4.12632 18.8696C5.70865 20.2937 7.85477 21.0938 10.0925 21.0938ZM10.0925 19.4062C8.35205 19.4062 6.68285 18.784 5.45214 17.6763C4.22143 16.5687 3.53003 15.0664 3.53003 13.5C3.53003 11.9336 4.22143 10.4313 5.45214 9.32365C6.68285 8.21601 8.35205 7.59375 10.0925 7.59375H19.9075C21.648 7.59375 23.3172 8.21601 24.5479 9.32365C25.7786 10.4313 26.47 11.9336 26.47 13.5C26.47 15.0664 25.7786 16.5687 24.5479 17.6763C23.3172 18.784 21.648 19.4062 19.9075 19.4062H10.0925Z" fill="black"/>
</svg>
