<svg width="44" height="36" viewBox="0 0 44 36" fill="none" xmlns="http://www.w3.org/2000/svg">
<path d="M23.5753 19.8H13.8161L18.6979 8.61483L23.5753 19.8ZM24.3607 21.6L24.8623 22.752L26.5849 21.3426L19.9387 6.10923C19.8471 5.89951 19.6785 5.71809 19.456 5.58982C19.2334 5.46155 18.9679 5.3927 18.6957 5.3927C18.4235 5.3927 18.1579 5.46155 17.9354 5.58982C17.7129 5.71809 17.5443 5.89951 17.4527 6.10923L8.85949 25.8048C8.76147 26.0297 8.77663 26.2772 8.90164 26.4929C9.02665 26.7086 9.25127 26.8748 9.52609 26.955C9.80091 27.0352 10.1034 27.0228 10.367 26.9205C10.6307 26.8183 10.8339 26.6345 10.9319 26.4096L13.0285 21.6H24.3607ZM34.7755 17.1864L24.1495 25.8804C23.5305 26.3871 23.091 27.0216 22.8779 27.7164L22.0551 30.4128C22.0302 30.4957 22.0126 30.5799 22.0023 30.6648C21.1827 30.6933 20.362 30.6401 19.5581 30.5064C19.3975 30.4758 19.3381 30.3084 19.4129 30.1878C19.8089 29.5596 19.9255 28.2546 18.5241 27.7938C16.6321 27.171 14.1725 28.0188 12.2277 28.6884C11.4225 28.9656 10.7053 29.2122 10.1509 29.313C9.29949 29.466 8.28529 29.1942 7.47569 28.863C7.00929 28.6722 6.41529 29.0106 6.68369 29.3778C7.16549 30.0384 8.03449 30.7044 9.60089 30.8628C11.4049 31.0464 12.6611 30.591 13.9459 30.1248C14.8259 29.8044 15.7169 29.4804 16.8059 29.3544C16.9951 29.3328 17.1249 29.5164 17.0523 29.6604C16.7179 30.303 16.7597 31.2696 17.7475 31.9014C18.8871 32.6286 22.5677 32.8194 25.0361 32.2308L27.7223 31.68C28.5737 31.5072 29.3503 31.1472 29.9685 30.6396L40.5945 21.9456C40.9813 21.6339 41.2889 21.2626 41.4994 20.8532C41.71 20.4437 41.8195 20.0042 41.8215 19.56C41.8235 19.1158 41.718 18.6756 41.5111 18.2649C41.3042 17.8542 41 17.4811 40.616 17.167C40.232 16.853 39.7758 16.6042 39.2738 16.4351C38.7717 16.266 38.2337 16.1798 37.6908 16.1816C37.1479 16.1834 36.6107 16.2731 36.1104 16.4456C35.61 16.6181 35.1563 16.8698 34.7755 17.1864Z" fill="#803EC2"/>
</svg>
