<svg xmlns="http://www.w3.org/2000/svg" width="300" height="300" viewBox="0 0 100 100">
    <circle cx="30" cy="10" r="2" fill="#aaa"></circle>
    <circle cx="30" cy="20" r="2" fill="#aaa"></circle>
    <circle cx="30" cy="30" r="2" fill="#aaa"></circle>
    <circle cx="30" cy="40" r="2" fill="#aaa"></circle>
    <circle cx="30" cy="50" r="2" fill="#aaa"></circle>
    <circle cx="30" cy="60" r="2" fill="#aaa"></circle>
    <circle cx="30" cy="70" r="2" fill="#aaa"></circle>
    <circle cx="30" cy="80" r="2" fill="#aaa"></circle>
    <circle cx="30" cy="90" r="2" fill="#aaa"></circle>
    <circle cx="40" cy="10" r="2" fill="#aaa"></circle>
    <circle cx="40" cy="50" r="2" fill="#aaa"></circle>
    <circle cx="40" cy="90" r="2" fill="#aaa"></circle>
    <circle cx="50" cy="10" r="2" fill="#aaa"></circle>
    <circle cx="50" cy="50" r="2" fill="#aaa"></circle>
    <circle cx="50" cy="90" r="2" fill="#aaa"></circle>
    <circle cx="60" cy="10" r="2" fill="#aaa"></circle>
    <circle cx="67" cy="16" r="2" fill="#aaa"></circle>
    <circle cx="71" cy="25" r="2" fill="#aaa"></circle>
    <circle cx="71" cy="35" r="2" fill="#aaa"></circle>
    <circle cx="67" cy="44" r="2" fill="#aaa"></circle>
    <circle cx="60" cy="50" r="2" fill="#aaa"></circle>
    <circle cx="60" cy="50" r="2" fill="#aaa"></circle>
    <circle cx="67" cy="56" r="2" fill="#aaa"></circle>
    <circle cx="71" cy="65" r="2" fill="#aaa"></circle>
    <circle cx="71" cy="75" r="2" fill="#aaa"></circle>
    <circle cx="67" cy="84" r="2" fill="#aaa"></circle>
    <circle cx="60" cy="90" r="2" fill="#aaa"></circle>
</svg>