<svg width="83" height="51" viewBox="0 0 83 51" fill="none" xmlns="http://www.w3.org/2000/svg">
    
    <path
        d="M20 11.3346C20.0678 10.8564 20.0339 10.3594 20.2277 9.90467C20.5057 9.25244 20.8437 8.59201 21.3405 8.00284C24.4538 4.31041 29.0205 1.59837 35.1509 0.477787C41.4067 -0.6657 47.3182 0.243715 52.245 3.20201C54.7122 4.68344 56.6318 6.45711 58.069 8.45085C58.3289 8.81142 58.6024 9.16771 59.042 9.75702C59.5946 8.93256 60.0161 8.30366 60.4376 7.67479C60.5741 7.69427 60.7105 7.71375 60.847 7.73323C60.9007 7.92797 61.0213 8.12648 60.9967 8.3168C60.8681 9.31153 60.7156 10.3052 60.5454 11.2972C60.436 11.9349 60.3155 12.6211 59.2792 12.8982C58.1651 13.1962 57.2292 12.7933 56.5091 12.2922C55.5191 11.6034 54.622 10.852 53.7634 10.0889C53.5863 9.93157 53.7536 9.60536 53.7621 9.35696C54.1366 9.36437 54.6199 9.2758 54.8653 9.39708C55.6281 9.77401 56.3006 10.2306 57.0232 10.6653C57.0766 10.5849 57.1428 10.5344 57.1262 10.5033C53.7932 4.27734 46.9238 0.570725 37.1518 1.20716C36.676 1.23814 36.1959 1.30285 35.7406 1.39887C29.1759 2.78311 24.328 5.4904 21.3613 9.61263C20.9672 10.1603 20.8107 10.7825 20.5441 11.3701C20.3628 11.3583 20.1814 11.3464 20 11.3346Z"
        fill="#A65F3E" />
<g id="ant" transform="translate(-50,-7)">
    <path
    d="M79.0485 42.7566C78.3004 41.3559 76.8914 41.0156 75.3501 41.3334C75.322 41.3391 75.2882 41.3475 75.2545 41.3587C75.6961 40.5628 76.0364 39.7837 76.0898 38.3466C76.2164 34.8084 74.7567 33.0703 73.2435 31.785C70.1076 29.1216 61.0429 29.9991 60.9023 30.0047C59.7379 30.0525 58.1151 30.7641 57.2348 31.5403C55.2942 33.2306 53.7979 35.6128 53.6882 38.2397C53.6292 39.1903 53.7951 40.3181 54.2479 41.2294C53.0301 41.0775 51.742 41.4966 50.9376 42.9309C50.2851 44.0925 50.4707 45.5156 51.1795 46.8262C52.1386 48.6037 54.3182 50.2828 56.4754 49.785C58.6636 49.2816 60.562 47.1131 62.4942 45.9684C62.632 45.8869 62.7951 45.8587 62.9554 45.8756C64.1592 46.0134 65.8523 46.0134 66.9154 45.8981C67.1376 45.8756 67.357 45.9487 67.5145 46.1034C67.7142 46.3003 67.9139 46.4859 67.987 46.5534C69.1992 47.67 70.5857 48.8766 72.127 49.4925C74.737 50.5331 77.3273 49.3687 78.7307 46.8769C79.4676 45.5662 79.791 44.1431 79.0485 42.7566Z"
    fill="#A65F3E" />
<path
    d="M70.8667 44.5791C70.7429 44.5791 70.6164 44.5678 70.4898 44.5453C69.3507 44.3344 68.6729 43.2009 68.5914 42.1884C68.5098 41.1647 68.9036 40.1944 69.2973 39.3816C69.3676 39.2353 70.0989 37.8937 70.2957 36.9825C70.5911 35.6072 70.3436 34.3528 70.2564 33.7931C70.1692 33.2306 70.5967 33.3262 70.7823 33.7284C71.2379 34.7156 71.3195 36.0966 71.1142 37.1512C70.9257 38.1159 70.1186 39.6009 70.0482 39.7472C69.7023 40.4616 69.3564 41.2997 69.4211 42.1237C69.4745 42.8016 69.9189 43.5919 70.6389 43.7241C71.4179 43.8675 72.0423 43.5862 72.7004 42.9844L73.4092 43.2544C72.8889 43.7325 71.9579 44.5791 70.8667 44.5791ZM59.9232 37.9078C59.7545 36.9937 59.6364 35.8378 60.2101 35.0194L59.7911 34.2122C58.7279 35.2894 58.9023 36.9825 59.102 38.0569C59.1273 38.2003 59.5407 40.3153 59.3129 41.1478C59.0514 42.1041 58.202 42.8719 57.2345 43.0687C56.7114 42.2334 55.9267 41.6344 55.0604 41.2856C54.2167 40.9453 53.0045 41.0381 52.3154 41.5416C53.0579 41.3362 53.9242 41.3841 54.6498 41.73C55.6595 42.2081 56.2839 42.8634 56.8548 44.2556C57.0432 44.7141 57.1923 45.4453 57.6282 45.3187C57.8786 45.2484 58.0754 44.9953 57.9798 44.5931C57.8786 44.1684 57.7267 43.8787 57.7267 43.8787C57.7267 43.8787 59.2679 43.6144 60.1201 41.3672C60.5561 40.2141 59.9514 38.0484 59.9232 37.9078Z"
    fill="#703B26" />
<path
    d="M72.7173 45.2484C72.6358 45.4003 72.5205 45.5184 72.3545 45.5156C72.0986 45.5128 71.9355 45.2119 71.9327 44.9531C71.9214 42.9169 74.1517 41.0578 76.2048 41.2237C74.5989 41.5669 73.412 42.8775 72.8383 44.9503C72.8102 45.0487 72.768 45.1528 72.7173 45.2484ZM62.193 37.5928L61.5742 36.9206C62.5867 35.9559 63.9677 34.6284 64.2067 33.4303L65.0252 33.5934C64.758 34.9378 63.6133 36.5606 62.5867 37.6012C62.477 37.7137 62.297 37.7081 62.193 37.5928Z"
    fill="#703B26" />
<path
    d="M67.0782 33.3206C68.7798 32.9494 70.0229 31.9059 70.1017 30.6038L60.8429 30.0441C60.7838 31.0369 61.4138 31.9622 62.446 32.5978C61.1607 32.8172 60.2832 33.1463 59.9092 33.3038C59.7038 33.3909 59.5688 33.5906 59.5688 33.8156C59.5717 34.8816 60.7107 37.0584 61.5292 37.1906C62.3392 37.3228 64.1645 34.9716 64.8367 33.9591C64.8367 35.5341 65.0729 38.3184 65.5454 38.5378C66.5045 38.9794 69.542 37.3369 69.632 36.4791C69.7023 35.8069 68.3551 34.4906 67.0782 33.3206Z"
    fill="#FFCA28" />
<path
    d="M75.1787 20.4844C75.1083 19.2806 74.3068 18.2063 73.1733 17.7984C72.2537 17.4694 71.334 17.5847 70.5943 18.0009C70.2568 18.1894 69.8518 18.2203 69.503 18.0459C68.963 17.7759 68.0265 17.4103 66.6933 17.2416C65.3658 17.0728 64.3393 17.2191 63.7233 17.3653C63.324 17.4609 62.9133 17.3203 62.6237 17.0278C62.3347 16.7397 61.9916 16.5117 61.6142 16.3567C61.2367 16.2018 60.8323 16.123 60.4243 16.125C58.9815 16.125 57.7018 17.1769 57.4149 18.5916C57.2349 19.4719 57.4458 20.3269 57.9183 20.9906C58.329 21.5728 58.4105 22.335 58.1462 22.9988C57.879 23.6681 57.3699 25.1391 57.3812 25.9547C57.4233 29.5125 60.6605 31.3575 64.9412 31.9003C69.2218 32.4431 73.0496 31.1072 73.7696 27.4256C73.9327 26.5931 73.8877 25.5047 73.7443 24.6891C73.6262 24.0169 73.8483 23.3222 74.3237 22.83C74.8918 22.2394 75.2349 21.4153 75.1787 20.4844Z"
    fill="#A65F3E" />
<path
    d="M58.6295 19.41C58.7448 18.5128 59.5239 17.8744 60.3761 17.9813C60.6995 18.0234 61.6698 18.4031 61.338 18.9094C61.2761 19.0022 61.1833 19.0669 61.0933 19.1316C60.4826 19.5742 59.9438 20.1083 59.4958 20.715C59.4142 20.8275 59.2905 20.9541 59.1695 20.9006C58.742 20.7178 58.5789 19.8206 58.6295 19.41ZM73.8001 21.3366C73.9155 20.4394 73.3164 19.6238 72.467 19.5169C72.1436 19.4747 71.1086 19.6013 71.3055 20.175C71.342 20.2819 71.4151 20.3663 71.4855 20.4534C71.9608 21.0272 72.3517 21.6825 72.6358 22.3884C72.6864 22.5178 72.7736 22.6725 72.9058 22.65C73.3642 22.5769 73.7467 21.75 73.8001 21.3366Z"
    fill="#874D36" />
<path opacity="0.7"
    d="M64.4234 24.3291C63.5937 25.2825 62.9694 25.8225 62.3816 26.6634C61.3831 28.0922 62.0778 30.5756 64.9072 30.9441C66.8787 31.2 68.5775 30.2663 68.6112 28.3791C68.6337 27.1838 67.5791 25.5891 67.0334 24.5597C66.3528 23.2828 65.2869 23.3363 64.4234 24.3291Z"
    fill="#F29657" />
<path opacity="0.55"
    d="M63.0349 24.0171C63.1395 23.282 62.7182 22.6141 62.0938 22.5252C61.4695 22.4364 60.8785 22.9602 60.7739 23.6953C60.6693 24.4304 61.0906 25.0983 61.715 25.1871C62.3393 25.276 62.9302 24.7521 63.0349 24.0171Z"
    fill="black" />
<path opacity="0.55"
    d="M70.7932 25.0033C70.8978 24.2682 70.4765 23.6003 69.8521 23.5114C69.2278 23.4226 68.6368 23.9464 68.5322 24.6815C68.4276 25.4166 68.8489 26.0845 69.4733 26.1733C70.0976 26.2622 70.6885 25.7383 70.7932 25.0033Z"
    fill="black" />
<path opacity="0.55" d="M63.1973 28.2806C63.7316 29.8585 66.3641 30.2016 67.3063 28.8066" stroke="black"
    stroke-width="0.687937" stroke-miterlimit="10" stroke-linecap="round" />
<path opacity="0.55"
    d="M66.0629 28.4522C65.3851 28.6013 64.6961 28.4831 64.2432 27.915C63.9029 27.4903 63.5514 26.7788 64.0351 26.2753C64.7214 25.5722 66.4286 25.7831 67.0473 26.4806C67.3989 27.0741 66.7042 28.3172 66.0629 28.4522Z"
    fill="black" />
<path opacity="0.7"
    d="M51.5561 44.9672C51.5645 44.4525 51.9527 43.7044 52.4364 43.5244C53.5895 43.0884 54.8439 43.6144 55.5386 45.1922C56.1124 46.4972 56.1686 47.8669 55.9239 48.2353C55.5611 48.7781 55.0324 48.6909 54.6667 48.6262C54.0002 48.5081 53.4208 48.1059 52.8977 47.6728C52.3661 47.2312 51.5336 46.3369 51.5561 44.9672ZM78.4324 44.9447C78.4155 44.43 78.0161 43.6903 77.5324 43.5131C76.3736 43.0941 75.1249 43.6369 74.4555 45.2259C73.9014 46.5394 73.9633 47.7459 74.0392 48.0019C74.2755 48.7922 75.0152 48.7162 75.378 48.6459C76.0417 48.5166 76.6155 48.1059 77.133 47.6672C77.6589 47.2228 78.4746 46.3172 78.4324 44.9447Z"
    fill="#F29657" />
</g>
<g id="text" transform="translate(60,-3)">
    <path
    d="M3.376 29.728C3.97333 28.6827 4.848 27.8293 6 27.168C7.152 26.5067 8.464 26.176 9.936 26.176C11.5147 26.176 12.9333 26.5493 14.192 27.296C15.4507 28.0427 16.4427 29.0987 17.168 30.464C17.8933 31.808 18.256 33.376 18.256 35.168C18.256 36.9387 17.8933 38.5173 17.168 39.904C16.4427 41.2907 15.44 42.368 14.16 43.136C12.9013 43.904 11.4933 44.288 9.936 44.288C8.42133 44.288 7.088 43.9573 5.936 43.296C4.80533 42.6347 3.952 41.792 3.376 40.768V44H0.464V20.32H3.376V29.728ZM15.28 35.168C15.28 33.8453 15.0133 32.6933 14.48 31.712C13.9467 30.7307 13.2213 29.984 12.304 29.472C11.408 28.96 10.416 28.704 9.328 28.704C8.26133 28.704 7.26933 28.9707 6.352 29.504C5.456 30.016 4.73067 30.7733 4.176 31.776C3.64267 32.7573 3.376 33.8987 3.376 35.2C3.376 36.5227 3.64267 37.6853 4.176 38.688C4.73067 39.6693 5.456 40.4267 6.352 40.96C7.26933 41.472 8.26133 41.728 9.328 41.728C10.416 41.728 11.408 41.472 12.304 40.96C13.2213 40.4267 13.9467 39.6693 14.48 38.688C15.0133 37.6853 15.28 36.512 15.28 35.168Z"
    fill="#A65F3E" />
</g>
</svg>