<svg width="85" height="51" viewBox="0 0 85 51" fill="none" xmlns="http://www.w3.org/2000/svg">
    <path
        d="M14.648 39.04H4.92L3.128 44H0.056L8.12 21.824H11.48L19.512 44H16.44L14.648 39.04ZM13.816 36.672L9.784 25.408L5.752 36.672H13.816Z"
        fill="#17A6FF" />
    <path
        d="M56.3403 27.4125C56.3403 27.4125 54.8449 18.6075 49.1484 21.3375M59.8322 26.3175C59.8322 26.3175 60.0789 18.555 54.0278 19.2675M68.3653 43.425C68.3653 43.425 68.1726 48.15 69.7528 48.15"
        stroke="#45413C" stroke-width="0.5" stroke-linecap="round" stroke-linejoin="round" />
    <path opacity="0.15"
        d="M52.5479 48.15C52.5479 48.3273 52.9187 48.5028 53.6392 48.6666C54.3598 48.8304 55.4158 48.9792 56.7472 49.1046C58.0786 49.23 59.6591 49.3294 61.3986 49.3972C63.1381 49.4651 65.0025 49.5 66.8854 49.5C68.7682 49.5 70.6326 49.4651 72.3721 49.3972C74.1116 49.3294 75.6921 49.23 77.0235 49.1046C78.3549 48.9792 79.4109 48.8304 80.1315 48.6666C80.852 48.5028 81.2228 48.3273 81.2228 48.15C81.2228 47.9727 80.852 47.7972 80.1315 47.6334C79.4109 47.4696 78.3549 47.3208 77.0235 47.1954C75.6921 47.07 74.1116 46.9706 72.3721 46.9028C70.6326 46.8349 68.7682 46.8 66.8854 46.8C65.0025 46.8 63.1381 46.8349 61.3986 46.9028C59.6591 46.9706 58.0786 47.07 56.7472 47.1954C55.4158 47.3208 54.3598 47.4696 53.6392 47.6334C52.9187 47.7972 52.5479 47.9727 52.5479 48.15Z"
        fill="#45413C" />
    <path
        d="M52.1777 31.8675C52.1777 33.5384 52.8599 35.1408 54.0742 36.3223C55.2885 37.5038 56.9355 38.1675 58.6527 38.1675C60.37 38.1675 62.017 37.5038 63.2313 36.3223C64.4455 35.1408 65.1277 33.5384 65.1277 31.8675C65.1277 30.1966 64.4455 28.5942 63.2313 27.4127C62.017 26.2313 60.37 25.5675 58.6527 25.5675C56.9355 25.5675 55.2885 26.2313 54.0742 27.4127C52.8599 28.5942 52.1777 30.1966 52.1777 31.8675Z"
        fill="#17A6FF" />
    <path
        d="M58.6527 27.4125C60.2049 27.4127 61.7053 27.956 62.8799 28.9432C64.0545 29.9305 64.8249 31.2958 65.0507 32.79C65.1007 32.4849 65.1265 32.1765 65.1277 31.8675C65.1277 30.1966 64.4455 28.5942 63.2313 27.4127C62.017 26.2313 60.37 25.5675 58.6527 25.5675C56.9355 25.5675 55.2885 26.2313 54.0742 27.4127C52.8599 28.5942 52.1777 30.1966 52.1777 31.8675C52.179 32.1765 52.2047 32.4849 52.2548 32.79C52.4805 31.2958 53.251 29.9305 54.4256 28.9432C55.6002 27.956 57.1006 27.4127 58.6527 27.4125Z"
        fill="#94FFFF" />
    <path
        d="M52.1777 31.8675C52.1777 33.5384 52.8599 35.1408 54.0742 36.3223C55.2885 37.5038 56.9355 38.1675 58.6527 38.1675C60.37 38.1675 62.017 37.5038 63.2313 36.3223C64.4455 35.1408 65.1277 33.5384 65.1277 31.8675C65.1277 30.1966 64.4455 28.5942 63.2313 27.4127C62.017 26.2313 60.37 25.5675 58.6527 25.5675C56.9355 25.5675 55.2885 26.2313 54.0742 27.4127C52.8599 28.5942 52.1777 30.1966 52.1777 31.8675Z"
        stroke="#45413C" stroke-width="0.5" stroke-linecap="round" stroke-linejoin="round" />
    <path
        d="M60.5029 38.1675C60.5029 39.1223 60.8928 40.038 61.5866 40.7131C62.2805 41.3882 63.2216 41.7675 64.2029 41.7675C65.1842 41.7675 66.1253 41.3882 66.8192 40.7131C67.5131 40.038 67.9029 39.1223 67.9029 38.1675C67.9029 37.2127 67.5131 36.2971 66.8192 35.6219C66.1253 34.9468 65.1842 34.5675 64.2029 34.5675C63.2216 34.5675 62.2805 34.9468 61.5866 35.6219C60.8928 36.2971 60.5029 37.2127 60.5029 38.1675Z"
        fill="#17A6FF" />
    <path
        d="M64.1873 36.48C64.9935 36.483 65.7765 36.7428 66.4168 37.2195C67.0571 37.6962 67.5194 38.3637 67.7331 39.12C67.8311 38.8113 67.883 38.4905 67.8873 38.1675C67.8873 37.2127 67.4975 36.2971 66.8036 35.6219C66.1097 34.9468 65.1686 34.5675 64.1873 34.5675C63.206 34.5675 62.2649 34.9468 61.571 35.6219C60.8771 36.2971 60.4873 37.2127 60.4873 38.1675C60.4938 38.4898 60.5431 38.8099 60.6338 39.12C60.8479 38.3624 61.3113 37.694 61.9532 37.2172C62.595 36.7404 63.3798 36.4814 64.1873 36.48Z"
        fill="#94FFFF" />
    <path
        d="M60.5029 38.1675C60.5029 39.1223 60.8928 40.038 61.5866 40.7131C62.2805 41.3882 63.2216 41.7675 64.2029 41.7675C65.1842 41.7675 66.1253 41.3882 66.8192 40.7131C67.5131 40.038 67.9029 39.1223 67.9029 38.1675C67.9029 37.2127 67.5131 36.2971 66.8192 35.6219C66.1253 34.9468 65.1842 34.5675 64.2029 34.5675C63.2216 34.5675 62.2805 34.9468 61.5866 35.6219C60.8928 36.2971 60.5029 37.2127 60.5029 38.1675Z"
        stroke="#45413C" stroke-width="0.5" stroke-linecap="round" stroke-linejoin="round" />
    <path
        d="M75.0792 32.325C80.0587 32.775 83.8898 37.935 83.6354 40.2825C83.381 42.63 78.6944 47.0325 73.7148 46.6125C68.7352 46.1925 65.2356 42.6 65.6133 38.655C65.991 34.71 70.0996 31.875 75.0792 32.325Z"
        fill="#17A6FF" />
    <path
        d="M75.0795 34.95C79.0801 35.31 82.3408 38.7 83.3351 41.265C83.4873 40.9547 83.5888 40.6232 83.6358 40.2825C83.8901 37.935 80.0514 32.7825 75.0795 32.325C70.1076 31.8675 65.9914 34.71 65.6137 38.655C65.5577 39.2722 65.5966 39.894 65.7293 40.5C66.5001 36.9825 70.4237 34.5 75.0795 34.95Z"
        fill="#94FFFF" />
    <path
        d="M61.4279 39.0675L56.8029 40.5675C56.5125 40.6625 56.2507 40.8258 56.0409 41.043C55.8311 41.2603 55.6798 41.5246 55.6004 41.8125C55.1533 43.62 53.9662 47.4225 52.625 47.4225M62.8154 39.795L60.7804 41.3925C60.55 41.57 60.3673 41.7992 60.2478 42.0604C60.1284 42.3217 60.0757 42.6072 60.0944 42.8925C60.1792 44.685 60.2408 48.5325 59.1154 48.5325M75.0794 32.325C80.059 32.775 83.89 37.935 83.6356 40.2825C83.3812 42.63 78.6946 47.0325 73.715 46.6125C68.7354 46.1925 65.2358 42.6 65.6135 38.655C65.9912 34.71 70.0998 31.875 75.0794 32.325Z"
        stroke="#45413C" stroke-width="0.5" stroke-linecap="round" stroke-linejoin="round" />
    <path
        d="M56.8798 30.0675C56.8798 30.2455 56.8255 30.4195 56.7239 30.5675C56.6223 30.7155 56.4778 30.8309 56.3088 30.899C56.1397 30.9671 55.9538 30.9849 55.7743 30.9502C55.5949 30.9155 55.4301 30.8298 55.3007 30.7039C55.1713 30.578 55.0833 30.4177 55.0476 30.2431C55.0119 30.0685 55.0302 29.8875 55.1002 29.7231C55.1702 29.5586 55.2888 29.4181 55.4409 29.3192C55.593 29.2203 55.7718 29.1675 55.9548 29.1675C56.2001 29.1675 56.4354 29.2623 56.6089 29.4311C56.7823 29.5999 56.8798 29.8288 56.8798 30.0675Z"
        fill="#45413C" />
    <path
        d="M57.728 32.19C57.728 32.4375 58.1443 32.64 58.653 32.64C59.1618 32.64 59.578 32.4375 59.578 32.19C59.578 31.9425 59.1618 31.74 58.653 31.74C58.1443 31.74 57.728 31.9425 57.728 32.19Z"
        fill="#BFF3FF" />
    <path
        d="M72.2505 32.43C72.2505 32.43 70.2155 33.825 69.2365 37.41C68.3577 40.635 68.6892 44.355 70.1384 45.66M74.6169 46.6425C73.3159 44.3239 72.9138 41.6278 73.4838 39.045C74.6169 33.96 77.4921 32.9175 77.4921 32.9175M79.9202 44.865C79.9202 44.865 78.4325 44.385 78.3786 41.265C78.3399 40.1651 78.6057 39.0752 79.1481 38.1094C79.6905 37.1437 80.4896 36.3374 81.4619 35.775"
        stroke="#45413C" stroke-width="0.5" stroke-linecap="round" stroke-linejoin="round" />
    <path
        d="M21 11.3346C21.0678 10.8564 21.0339 10.3594 21.2277 9.90467C21.5057 9.25244 21.8437 8.59201 22.3405 8.00284C25.4538 4.31041 30.0205 1.59837 36.1509 0.477787C42.4067 -0.6657 48.3182 0.243715 53.245 3.20201C55.7122 4.68344 57.6318 6.45711 59.069 8.45085C59.3289 8.81142 59.6024 9.16771 60.042 9.75702C60.5946 8.93256 61.0161 8.30366 61.4376 7.67479C61.5741 7.69427 61.7105 7.71375 61.847 7.73323C61.9007 7.92797 62.0213 8.12648 61.9967 8.3168C61.8681 9.31153 61.7156 10.3052 61.5454 11.2972C61.436 11.9349 61.3155 12.6211 60.2792 12.8982C59.1651 13.1962 58.2292 12.7933 57.5091 12.2922C56.5191 11.6034 55.622 10.852 54.7634 10.0889C54.5863 9.93157 54.7536 9.60536 54.7621 9.35696C55.1366 9.36437 55.6199 9.2758 55.8653 9.39708C56.6281 9.77401 57.3006 10.2306 58.0232 10.6653C58.0766 10.5849 58.1428 10.5344 58.1262 10.5033C54.7932 4.27734 47.9238 0.570725 38.1518 1.20716C37.676 1.23814 37.1959 1.30285 36.7406 1.39887C30.1759 2.78311 25.328 5.4904 22.3613 9.61263C21.9672 10.1603 21.8107 10.7825 21.5441 11.3701C21.3628 11.3583 21.1814 11.3464 21 11.3346Z"
        fill="#17A6FF" />
</svg>